<?xml version="1.0" encoding="UTF-8" standalone="no"?>
<svg
   version="1.1"
   width="210.0072mm"
   height="297.0022mm"
   viewBox="0 0 210.0072 297.00219"
   id="svg560"
   sodipodi:docname="STM32-F_Cu.svg"
   inkscape:version="1.1.2 (0a00cf5339, 2022-02-04)"
   xmlns:inkscape="http://www.inkscape.org/namespaces/inkscape"
   xmlns:sodipodi="http://sodipodi.sourceforge.net/DTD/sodipodi-0.dtd"
   xmlns="http://www.w3.org/2000/svg"
   xmlns:svg="http://www.w3.org/2000/svg"
   xmlns:rdf="http://www.w3.org/1999/02/22-rdf-syntax-ns#"
   xmlns:cc="http://creativecommons.org/ns#"
   xmlns:dc="http://purl.org/dc/elements/1.1/">
  <defs
     id="defs564" />
  <sodipodi:namedview
     id="namedview562"
     pagecolor="#ffffff"
     bordercolor="#666666"
     borderopacity="1.0"
     inkscape:pageshadow="2"
     inkscape:pageopacity="0.0"
     inkscape:pagecheckerboard="0"
     inkscape:document-units="mm"
     showgrid="false"
     inkscape:zoom="1.0330995"
     inkscape:cx="362.98537"
     inkscape:cy="149.54997"
     inkscape:window-width="1850"
     inkscape:window-height="1009"
     inkscape:window-x="70"
     inkscape:window-y="34"
     inkscape:window-maximized="1"
     inkscape:current-layer="svg560" />
  <title
     id="title2">SVG Image created as STM32-F_Cu.svg date 2024/09/16 16:15:59 </title>
  <desc
     id="desc4">Image generated by PCBNEW </desc>
  <g
     style="fill:#000000;fill-opacity:1;stroke:#000000;stroke-linecap:round;stroke-linejoin:round;stroke-opacity:1"
     id="g6" />
  <g
     style="fill:#000000;fill-opacity:0;stroke:#000000;stroke-width:0;stroke-linecap:round;stroke-linejoin:round;stroke-opacity:1"
     id="g8" />
  <g
     style="fill:#000000;fill-opacity:1;stroke:#000000;stroke-width:0.0212;stroke-linecap:round;stroke-linejoin:round;stroke-opacity:1"
     id="g12"
     transform="translate(-78.12899,-51.524561)">
    <rect
       x="164.5"
       y="63.75"
       width="35.25"
       height="40.5"
       rx="0.000000"
       id="rect10" />
  </g>
  <g
     style="fill:#ffffff;fill-opacity:1;stroke:#ffffff;stroke-width:0.0212;stroke-linecap:round;stroke-linejoin:round;stroke-opacity:1"
     id="g384"
     transform="translate(-78.12899,-51.524561)">
    <g
       id="g14" />
    <g
       style="fill:#ffffff;fill-opacity:1;stroke:#ffffff;stroke-width:0;stroke-linecap:round;stroke-linejoin:round;stroke-opacity:1"
       id="g36">
      <circle
         cx="172.72"
         cy="95.254997"
         r="0.85000002"
         id="circle16" />
      <circle
         cx="172.72"
         cy="92.714996"
         r="0.85000002"
         id="circle18" />
      <circle
         cx="172.72"
         cy="90.175003"
         r="0.85000002"
         id="circle20" />
      <circle
         cx="172.72"
         cy="87.635002"
         r="0.85000002"
         id="circle22" />
      <circle
         cx="172.72"
         cy="85.095001"
         r="0.85000002"
         id="circle24" />
      <circle
         cx="172.72"
         cy="82.555"
         r="0.85000002"
         id="circle26" />
      <circle
         cx="172.72"
         cy="80.014999"
         r="0.85000002"
         id="circle28" />
      <circle
         cx="172.72"
         cy="77.474998"
         r="0.85000002"
         id="circle30" />
      <circle
         cx="172.72"
         cy="74.934998"
         r="0.85000002"
         id="circle32" />
      <path
         style="fill:#ffffff;fill-opacity:1;fill-rule:evenodd;stroke:#ffffff;stroke-width:0;stroke-linecap:round;stroke-linejoin:round;stroke-opacity:1"
         d="m 171.87,73.245 v -1.7 h 1.7 v 1.7 z"
         id="path34" />
    </g>
    <g
       id="g38" />
    <g
       style="fill:#ffffff;fill-opacity:1;stroke:#ffffff;stroke-width:0;stroke-linecap:round;stroke-linejoin:round;stroke-opacity:1"
       id="g40" />
    <g
       style="fill:#ffffff;fill-opacity:1;stroke:#ffffff;stroke-width:0.36;stroke-linecap:round;stroke-linejoin:round;stroke-opacity:1"
       id="g42" />
    <g
       style="fill:#ffffff;fill-opacity:0;stroke:#ffffff;stroke-width:0.36;stroke-linecap:round;stroke-linejoin:round;stroke-opacity:1"
       id="g84">
      <path
         d="m 180.07,79.07 h -1.38"
         id="path44" />
      <path
         d="m 180.07,79.72 h -1.38"
         id="path46" />
      <path
         d="m 180.07,80.37 h -1.38"
         id="path48" />
      <path
         d="m 180.07,81.02 h -1.38"
         id="path50" />
      <path
         d="m 180.07,81.68 h -1.38"
         id="path52" />
      <path
         d="m 180.07,82.33 h -1.38"
         id="path54" />
      <path
         d="m 180.07,82.98 h -1.38"
         id="path56" />
      <path
         d="m 180.07,83.63 h -1.38"
         id="path58" />
      <path
         d="m 180.07,84.28 h -1.38"
         id="path60" />
      <path
         d="m 180.07,84.93 h -1.38"
         id="path62" />
      <path
         d="m 185.81,79.07 h -1.38"
         id="path64" />
      <path
         d="m 185.81,79.72 h -1.38"
         id="path66" />
      <path
         d="m 185.81,80.37 h -1.38"
         id="path68" />
      <path
         d="m 185.81,81.02 h -1.38"
         id="path70" />
      <path
         d="m 185.81,81.68 h -1.38"
         id="path72" />
      <path
         d="m 185.81,82.33 h -1.38"
         id="path74" />
      <path
         d="m 185.81,82.98 h -1.38"
         id="path76" />
      <path
         d="m 185.81,83.63 h -1.38"
         id="path78" />
      <path
         d="m 185.81,84.28 h -1.38"
         id="path80" />
      <path
         d="m 185.81,84.93 h -1.38"
         id="path82" />
    </g>
    <g
       id="g86" />
    <g
       style="fill:#ffffff;fill-opacity:0;stroke:#ffffff;stroke-width:0.36;stroke-linecap:round;stroke-linejoin:round;stroke-opacity:1"
       id="g88" />
    <g
       style="fill:#ffffff;fill-opacity:0;stroke:#ffffff;stroke-width:0;stroke-linecap:round;stroke-linejoin:round;stroke-opacity:1"
       id="g90" />
    <g
       style="fill:#ffffff;fill-opacity:1;stroke:#ffffff;stroke-width:0;stroke-linecap:round;stroke-linejoin:round;stroke-opacity:1"
       id="g96">
      <path
         style="fill:#ffffff;fill-opacity:1;fill-rule:evenodd;stroke:#ffffff;stroke-width:0;stroke-linecap:round;stroke-linejoin:round;stroke-opacity:1"
         d="m 177.55,93.25 v -1.5 h 1.9 v 1.5 z"
         id="path92" />
      <path
         style="fill:#ffffff;fill-opacity:1;fill-rule:evenodd;stroke:#ffffff;stroke-width:0;stroke-linecap:round;stroke-linejoin:round;stroke-opacity:1"
         d="m 185.55,93.25 v -1.5 h 1.9 v 1.5 z"
         id="path94" />
    </g>
    <g
       id="g98" />
    <g
       style="fill:#ffffff;fill-opacity:1;stroke:#ffffff;stroke-width:0;stroke-linecap:round;stroke-linejoin:round;stroke-opacity:1"
       id="g104">
      <path
         style="fill:#ffffff;fill-opacity:1;fill-rule:evenodd;stroke:#ffffff;stroke-width:0;stroke-linecap:round;stroke-linejoin:round;stroke-opacity:1"
         d="m 178.3725,96.025 -0.0152,0.0765 -0.0434,0.0649 -0.0649,0.0434 -0.0765,0.0152 h -0.4 l -0.0765,-0.0152 -0.0649,-0.0434 -0.0434,-0.0649 -0.0152,-0.0765 v -0.55 l 0.0152,-0.0765 0.0434,-0.0649 0.0649,-0.0434 0.0765,-0.0152 h 0.4 l 0.0765,0.0152 0.0649,0.0434 0.0434,0.0649 0.0152,0.0765 z"
         id="path100" />
      <path
         style="fill:#ffffff;fill-opacity:1;fill-rule:evenodd;stroke:#ffffff;stroke-width:0;stroke-linecap:round;stroke-linejoin:round;stroke-opacity:1"
         d="m 180.0225,96.025 -0.0152,0.0765 -0.0434,0.0649 -0.0649,0.0434 -0.0765,0.0152 h -0.4 l -0.0765,-0.0152 -0.0649,-0.0434 -0.0434,-0.0649 -0.0152,-0.0765 v -0.55 l 0.0152,-0.0765 0.0434,-0.0649 0.0649,-0.0434 0.0765,-0.0152 h 0.4 l 0.0765,0.0152 0.0649,0.0434 0.0434,0.0649 0.0152,0.0765 z"
         id="path102" />
    </g>
    <g
       id="g106" />
    <g
       style="fill:#ffffff;fill-opacity:1;stroke:#ffffff;stroke-width:0;stroke-linecap:round;stroke-linejoin:round;stroke-opacity:1"
       id="g112">
      <path
         style="fill:#ffffff;fill-opacity:1;fill-rule:evenodd;stroke:#ffffff;stroke-width:0;stroke-linecap:round;stroke-linejoin:round;stroke-opacity:1"
         d="m 186.025,88.675 0.0765,0.0152 0.0649,0.0434 0.0434,0.0649 0.0152,0.0765 v 0.4 l -0.0152,0.0765 -0.0434,0.0649 -0.0649,0.0434 -0.0765,0.0152 h -0.55 l -0.0765,-0.0152 -0.0649,-0.0434 -0.0434,-0.0649 -0.0152,-0.0765 v -0.4 l 0.0152,-0.0765 0.0434,-0.0649 0.0649,-0.0434 0.0765,-0.0152 z"
         id="path108" />
      <path
         style="fill:#ffffff;fill-opacity:1;fill-rule:evenodd;stroke:#ffffff;stroke-width:0;stroke-linecap:round;stroke-linejoin:round;stroke-opacity:1"
         d="m 186.025,87.025 0.0765,0.0152 0.0649,0.0434 0.0434,0.0649 0.0152,0.0765 v 0.4 l -0.0152,0.0765 -0.0434,0.0649 -0.0649,0.0434 -0.0765,0.0152 h -0.55 l -0.0765,-0.0152 -0.0649,-0.0434 -0.0434,-0.0649 -0.0152,-0.0765 v -0.4 l 0.0152,-0.0765 0.0434,-0.0649 0.0649,-0.0434 0.0765,-0.0152 z"
         id="path110" />
    </g>
    <g
       id="g114" />
    <g
       style="fill:#ffffff;fill-opacity:1;stroke:#ffffff;stroke-width:0;stroke-linecap:round;stroke-linejoin:round;stroke-opacity:1"
       id="g136">
      <circle
         cx="192"
         cy="95.43"
         r="0.85000002"
         id="circle116" />
      <circle
         cx="192"
         cy="92.889999"
         r="0.85000002"
         id="circle118" />
      <circle
         cx="192"
         cy="90.349998"
         r="0.85000002"
         id="circle120" />
      <circle
         cx="192"
         cy="87.809998"
         r="0.85000002"
         id="circle122" />
      <circle
         cx="192"
         cy="85.269997"
         r="0.85000002"
         id="circle124" />
      <circle
         cx="192"
         cy="82.730003"
         r="0.85000002"
         id="circle126" />
      <circle
         cx="192"
         cy="80.190002"
         r="0.85000002"
         id="circle128" />
      <circle
         cx="192"
         cy="77.650002"
         r="0.85000002"
         id="circle130" />
      <circle
         cx="192"
         cy="75.110001"
         r="0.85000002"
         id="circle132" />
      <path
         style="fill:#ffffff;fill-opacity:1;fill-rule:evenodd;stroke:#ffffff;stroke-width:0;stroke-linecap:round;stroke-linejoin:round;stroke-opacity:1"
         d="m 191.15,73.42 v -1.7 h 1.7 v 1.7 z"
         id="path134" />
    </g>
    <g
       id="g138" />
    <g
       style="fill:#ffffff;fill-opacity:1;stroke:#ffffff;stroke-width:0;stroke-linecap:round;stroke-linejoin:round;stroke-opacity:1"
       id="g148">
      <circle
         cx="185.07001"
         cy="73"
         r="0.85000002"
         id="circle140" />
      <circle
         cx="182.53"
         cy="73"
         r="0.85000002"
         id="circle142" />
      <circle
         cx="179.99001"
         cy="73"
         r="0.85000002"
         id="circle144" />
      <path
         style="fill:#ffffff;fill-opacity:1;fill-rule:evenodd;stroke:#ffffff;stroke-width:0;stroke-linecap:round;stroke-linejoin:round;stroke-opacity:1"
         d="m 178.3,73.85 h -1.7 v -1.7 h 1.7 z"
         id="path146" />
    </g>
    <g
       id="g150" />
    <g
       style="fill:#ffffff;fill-opacity:1;stroke:#ffffff;stroke-width:0;stroke-linecap:round;stroke-linejoin:round;stroke-opacity:1"
       id="g156">
      <path
         style="fill:#ffffff;fill-opacity:1;fill-rule:evenodd;stroke:#ffffff;stroke-width:0;stroke-linecap:round;stroke-linejoin:round;stroke-opacity:1"
         d="m 184.315,96.0062 -0.0167,0.0838 -0.0474,0.0709 -0.0709,0.0474 -0.0838,0.0167 h -0.4375 L 183.575,96.2083 183.5041,96.1609 183.4567,96.09 183.44,96.0062 v -0.5125 l 0.0167,-0.0837 0.0474,-0.0709 0.0709,-0.0474 0.0837,-0.0167 h 0.4375 l 0.0838,0.0167 0.0709,0.0474 0.0474,0.0709 0.0167,0.0837 z"
         id="path152" />
      <path
         style="fill:#ffffff;fill-opacity:1;fill-rule:evenodd;stroke:#ffffff;stroke-width:0;stroke-linecap:round;stroke-linejoin:round;stroke-opacity:1"
         d="m 185.89,96.0062 -0.0167,0.0838 -0.0474,0.0709 -0.0709,0.0474 -0.0838,0.0167 h -0.4375 L 185.15,96.2083 185.0791,96.1609 185.0317,96.09 185.015,96.0062 v -0.5125 l 0.0167,-0.0837 0.0474,-0.0709 0.0709,-0.0474 0.0837,-0.0167 h 0.4375 l 0.0838,0.0167 0.0709,0.0474 0.0474,0.0709 0.0167,0.0837 z"
         id="path154" />
    </g>
    <g
       id="g158" />
    <g
       style="fill:#ffffff;fill-opacity:1;stroke:#ffffff;stroke-width:0;stroke-linecap:round;stroke-linejoin:round;stroke-opacity:1"
       id="g164">
      <path
         style="fill:#ffffff;fill-opacity:1;fill-rule:evenodd;stroke:#ffffff;stroke-width:0;stroke-linecap:round;stroke-linejoin:round;stroke-opacity:1"
         d="m 180.7,76.525 0.019,-0.0957 0.0542,-0.0811 0.0811,-0.0542 0.0957,-0.019 h 0.5 l 0.0957,0.019 0.0811,0.0542 0.0542,0.0811 0.019,0.0957 v 0.95 l -0.019,0.0957 -0.0542,0.0811 -0.0811,0.0542 -0.0957,0.019 h -0.5 l -0.0957,-0.019 -0.0811,-0.0542 -0.0542,-0.0811 -0.019,-0.0957 z"
         id="path160" />
      <path
         style="fill:#ffffff;fill-opacity:1;fill-rule:evenodd;stroke:#ffffff;stroke-width:0;stroke-linecap:round;stroke-linejoin:round;stroke-opacity:1"
         d="m 178.8,76.525 0.019,-0.0957 0.0542,-0.0811 0.0811,-0.0542 0.0957,-0.019 h 0.5 l 0.0957,0.019 0.0811,0.0542 0.0542,0.0811 0.019,0.0957 v 0.95 l -0.019,0.0957 -0.0542,0.0811 -0.0811,0.0542 -0.0957,0.019 h -0.5 l -0.0957,-0.019 -0.0811,-0.0542 -0.0542,-0.0811 -0.019,-0.0957 z"
         id="path162" />
    </g>
    <g
       id="g166" />
    <g
       id="g168" />
    <g
       style="fill:#ffffff;fill-opacity:1;stroke:#ffffff;stroke-width:0;stroke-linecap:round;stroke-linejoin:round;stroke-opacity:1"
       id="g170" />
    <g
       style="fill:#ffffff;fill-opacity:1;stroke:#ffffff;stroke-width:0.4;stroke-linecap:round;stroke-linejoin:round;stroke-opacity:1"
       id="g172" />
    <g
       style="fill:#ffffff;fill-opacity:0;stroke:#ffffff;stroke-width:0.4;stroke-linecap:round;stroke-linejoin:round;stroke-opacity:1"
       id="g370">
      <path
         d="m 172.72,72.395 v 0.4262"
         id="path174" />
      <path
         d="m 172.72,72.8212 2.28,2.28"
         id="path176" />
      <path
         d="M 175,75.1012 V 75.75"
         id="path178" />
      <path
         d="m 175,75.75 3.32,3.32"
         id="path180" />
      <path
         d="m 178.32,79.07 h 1.06"
         id="path182" />
      <path
         d="m 192,82.73 -1.05,-1.05"
         id="path184" />
      <path
         d="m 190.95,81.68 h -5.83"
         id="path186" />
      <path
         d="m 192,80.19 -0.83,0.83"
         id="path188" />
      <path
         d="m 191.17,81.02 h -6.05"
         id="path190" />
      <path
         d="m 185.12,80.37 h 2.26"
         id="path192" />
      <path
         d="m 187.38,80.37 2.72,-2.72"
         id="path194" />
      <path
         d="M 190.1,77.65 H 192"
         id="path196" />
      <path
         d="m 185.12,79.72 h 1.2585"
         id="path198" />
      <path
         d="m 186.3785,79.72 4.61,-4.61"
         id="path200" />
      <path
         d="M 190.9885,75.11 H 192"
         id="path202" />
      <path
         d="m 185.12,79.07 h 1.06"
         id="path204" />
      <path
         d="M 186.18,79.07 188.25,77"
         id="path206" />
      <path
         d="M 188.25,77 V 73.75"
         id="path208" />
      <path
         d="m 188.25,73.75 1.18,-1.18"
         id="path210" />
      <path
         d="M 189.43,72.57 H 192"
         id="path212" />
      <path
         d="m 185.12,82.33 h 2.46"
         id="path214" />
      <path
         d="m 187.58,82.33 2.94,2.94"
         id="path216" />
      <path
         d="M 190.52,85.27 H 192"
         id="path218" />
      <path
         d="m 185.12,82.98 h 2.05"
         id="path220" />
      <path
         d="M 187.17,82.98 192,87.81"
         id="path222" />
      <path
         d="m 185.12,83.63 h 1.76"
         id="path224" />
      <path
         d="m 186.88,83.63 2.87,2.87"
         id="path226" />
      <path
         d="m 189.75,86.5 v 3.3"
         id="path228" />
      <path
         d="m 189.75,89.8 0.55,0.55"
         id="path230" />
      <path
         d="m 190.3,90.35 h 1.2"
         id="path232" />
      <path
         d="m 185.12,84.28 h 1.16"
         id="path234" />
      <path
         d="M 186.28,84.28 189,87"
         id="path236" />
      <path
         d="m 189,87 v 5"
         id="path238" />
      <path
         d="m 189,92 0.89,0.89"
         id="path240" />
      <path
         d="m 189.89,92.89 h 1.61"
         id="path242" />
      <path
         d="m 185.12,84.93 h 0.81"
         id="path244" />
      <path
         d="m 188.93,95.43 h 2.57"
         id="path246" />
      <path
         d="m 185.93,84.93 2.32,2.32"
         id="path248" />
      <path
         d="m 188.25,87.25 v 7.5"
         id="path250" />
      <path
         d="m 188.25,94.75 0.68,0.68"
         id="path252" />
      <path
         d="m 181.2,77 v 3.8"
         id="path254" />
      <path
         d="M 181.2,80.8 181,81"
         id="path256" />
      <path
         d="m 183.25,74.82 v 4.43"
         id="path258" />
      <path
         d="m 185.07,73 -1.82,1.82"
         id="path260" />
      <path
         d="m 183.25,79.25 0.47,0.47"
         id="path262" />
      <path
         d="m 183.72,79.72 h 1.4"
         id="path264" />
      <path
         d="m 182.53,73 v 6.53"
         id="path266" />
      <path
         d="m 182.53,79.53 0.84,0.84"
         id="path268" />
      <path
         d="m 183.37,80.37 h 1.75"
         id="path270" />
      <path
         d="m 177.45,73 v 1.2"
         id="path272" />
      <path
         d="m 177.45,74.2 0.8,0.8"
         id="path274" />
      <path
         d="m 178.25,75 h 1.5"
         id="path276" />
      <path
         d="m 179.75,75 1.45,1.45"
         id="path278" />
      <path
         d="M 181.2,76.45 V 77"
         id="path280" />
      <path
         d="M 183.25,83.25 181,81"
         id="path282" />
      <path
         d="m 185.75,87.425 h -1.075"
         id="path284" />
      <path
         d="M 183.25,86 V 83.25"
         id="path286" />
      <path
         d="M 184.675,87.425 183.25,86"
         id="path288" />
      <path
         d="m 181,81 -0.02,0.02"
         id="path290" />
      <path
         d="m 180.98,81.02 h -1.6"
         id="path292" />
      <path
         d="m 180.29,82.33 1.96,1.96"
         id="path294" />
      <path
         d="M 182.25,84.29 V 86.5"
         id="path296" />
      <path
         d="m 179.38,82.33 h 0.91"
         id="path298" />
      <path
         d="m 182.25,86.5 2.575,2.575"
         id="path300" />
      <path
         d="m 184.825,89.075 h 0.925"
         id="path302" />
      <path
         d="M 186.5,92.5 V 89.825"
         id="path304" />
      <path
         d="m 186.5,89.825 -0.75,-0.75"
         id="path306" />
      <path
         d="M 177.9725,95.75 H 177.25"
         id="path308" />
      <path
         d="M 177.25,95.75 175.5,94"
         id="path310" />
      <path
         d="m 179.38,84.93 h -0.81"
         id="path312" />
      <path
         d="m 178.57,84.93 -1.32,1.32"
         id="path314" />
      <path
         d="m 175.5,94 -1.255,1.255"
         id="path316" />
      <path
         d="M 177.25,86.25 V 90"
         id="path318" />
      <path
         d="M 175.5,91.75 V 94"
         id="path320" />
      <path
         d="m 177.25,90 -1.75,1.75"
         id="path322" />
      <path
         d="M 174.245,95.255 H 172.72"
         id="path324" />
      <path
         d="m 179.6225,95.75 h 4.255"
         id="path326" />
      <path
         d="M 175,87.895 V 86"
         id="path328" />
      <path
         d="M 172.72,90.175 175,87.895"
         id="path330" />
      <path
         d="m 177.37,83.63 h 2.01"
         id="path332" />
      <path
         d="m 175,86 2.37,-2.37"
         id="path334" />
      <path
         d="M 172.72,92.715 176,89.435"
         id="path336" />
      <path
         d="M 176,89.435 V 86.25"
         id="path338" />
      <path
         d="m 176,86.25 1.97,-1.97"
         id="path340" />
      <path
         d="m 177.97,84.28 h 1.41"
         id="path342" />
      <path
         d="M 172.72,87.635 V 87.03"
         id="path344" />
      <path
         d="m 172.72,87.03 4.05,-4.05"
         id="path346" />
      <path
         d="m 176.77,82.98 h 2.61"
         id="path348" />
      <path
         d="m 172.72,85.095 2.765,-2.765"
         id="path350" />
      <path
         d="m 175.485,82.33 h 3.895"
         id="path352" />
      <path
         d="m 172.72,82.555 0.875,-0.875"
         id="path354" />
      <path
         d="m 173.595,81.68 h 5.785"
         id="path356" />
      <path
         d="m 172.72,80.015 1.005,1.005"
         id="path358" />
      <path
         d="m 173.725,81.02 h 5.655"
         id="path360" />
      <path
         d="m 172.72,77.475 2.895,2.895"
         id="path362" />
      <path
         d="m 175.615,80.37 h 3.765"
         id="path364" />
      <path
         d="m 172.72,74.935 4.785,4.785"
         id="path366" />
      <path
         d="m 177.505,79.72 h 1.875"
         id="path368" />
    </g>
    <g
       id="g372" />
    <g
       style="fill:#ffffff;fill-opacity:0;stroke:#ffffff;stroke-width:0.4;stroke-linecap:round;stroke-linejoin:round;stroke-opacity:1"
       id="g382">
      <g
         id="g374" />
      <g
         style="fill:#ffffff;fill-opacity:1;stroke:#ffffff;stroke-width:0;stroke-linecap:round;stroke-linejoin:round;stroke-opacity:1"
         id="g380">
        <path
           style="fill:#ffffff;fill-opacity:1;fill-rule:evenodd;stroke:#ffffff;stroke-width:0;stroke-linecap:round;stroke-linejoin:round;stroke-opacity:1"
           d="m 174.8715,81.7402 0.0458,0.0528 0.01,0.0691 -0.029,0.0636 -0.006,0.0065 -0.8365,0.8365 -0.0614,0.0335 -0.0263,0.0028 h -0.8143 l 0.0258,-0.0402 0.0405,-0.1379 v -0.1438 l -0.0405,-0.1379 -0.0258,-0.0402 h 0.8969 v 0 l -0.0572,-0.2135 v 0 l -0.0907,-0.1946 -0.0105,-0.0691 0.0285,-0.0638 0.0585,-0.0382 0.0359,-0.0053 h 0.7894 z"
           id="path376" />
        <path
           style="fill:#ffffff;fill-opacity:1;fill-rule:evenodd;stroke:#ffffff;stroke-width:0;stroke-linecap:round;stroke-linejoin:round;stroke-opacity:1"
           d="m 193.9425,69.5202 0.0458,0.0528 0.0112,0.0515 v 28.251 l -0.0197,0.067 -0.0528,0.0458 -0.0515,0.0112 h -23.001 l -0.067,-0.0197 -0.0458,-0.0528 -0.0112,-0.0515 V 95.255 h 0.6138 l 0.0206,0.2354 v 0 l 0.0612,0.2283 v 0 0 l 0.046,0.0986 0.0539,0.1155 v 0 l 0.0849,0.1213 0.0506,0.0723 0.1671,0.1671 0.0862,0.0604 0.1074,0.0751 v 0 0 l 0.2141,0.0999 0.2283,0.0612 0.1883,0.0164 0.0471,0.0042 v 0 0 l 0.0392,-0.0035 0.1962,-0.0171 0.2283,-0.0612 0.2141,-0.0999 0.1936,-0.1355 0.1671,-0.1671 0.0826,-0.118 0.0546,-0.0436 0.047,-0.0093 h 0.2774 l 0.007,2e-4 0.06,0.0037 0.0592,-0.0109 0.007,-0.0011 0.004,-5e-4 0.056,-0.0068 0.009,-0.0036 0.0217,-0.006 9e-4,-10e-5 0.009,-0.0017 0.0549,-0.0247 0.007,-0.0028 0.0562,-0.0214 0.008,-0.0057 0.0195,-0.0111 0.009,-0.0041 0.0473,-0.0371 0.006,-0.0044 0.0495,-0.0342 0.0399,-0.045 0.005,-0.0055 0.6544,-0.6544 0.0613,-0.0334 0.0697,0.0049 0.0444,0.0285 1.1494,1.1494 0.005,0.0055 0.0399,0.045 0.0495,0.0342 0.006,0.0044 0.0473,0.0371 v 0 0 l 0.009,0.0041 0.0195,0.0111 0.008,0.0057 0.0562,0.0214 0.007,0.0028 0.0214,0.0096 0.0335,0.0151 v 0 0 l 0.01,0.0018 0.0217,0.006 0.003,0.0012 0.006,0.0024 0.0576,0.007 0.002,3e-4 0.007,0.0011 0.0258,0.0047 0.0624,0.0315 0.003,0.0028 0.098,0.098 0.1456,0.088 0.1624,0.0506 0.0706,0.0064 v 0 h 0.5132 v 0 l 0.0706,-0.0064 0.1624,-0.0506 0.1456,-0.088 0.0385,-0.0385 0.0636,-0.0637 0.0613,-0.0334 0.0697,0.0049 0.0444,0.0285 0.1021,0.1022 v 0 0 l 0.1456,0.088 0.1624,0.0506 0.0706,0.0064 v 0 h 0.5132 v 0 l 0.0706,-0.0064 0.1624,-0.0506 0.1456,-0.088 0.0385,-0.0385 0.0551,-0.0552 0.0614,-0.0335 0.0263,-0.0028 h 2.5955 l 0.067,0.0197 0.0206,0.0166 0.0875,0.0875 v 0 l 0.1431,0.0882 v 0 0 l 0.1596,0.0529 0.0985,0.0101 v 0 h 0.5334 v 0 l 0.0985,-0.0101 0.1596,-0.0529 0.1431,-0.0882 0.0323,-0.0323 0.0613,-0.0335 0.0697,0.005 0.0443,0.0285 0.0319,0.0319 0.143,0.0882 v 0 l 0.1595,0.0528 0.0985,0.0101 h 0.0166 V 96 h 0.5 v 0.725 h 0.0166 1e-4 l 0.0984,-0.0101 0.1595,-0.0528 v 0 l 0.143,-0.0882 0.1188,-0.1188 0.0882,-0.143 v 0 l 0.0528,-0.1595 0.0101,-0.0985 v 0 V 96 h -0.6875 -0.5 v -1.225 h 0.5 V 95.5 h 0.6875 v -0.0541 -10e-5 l -0.0101,-0.0984 -0.0528,-0.1595 v 0 l -0.0882,-0.143 -0.1188,-0.1188 -0.143,-0.0882 v 0 l -0.1595,-0.0528 -0.0985,-0.0101 h -0.0166 -0.5 v 0 h -0.0166 l -0.0985,0.0101 -0.1595,0.0528 v 0 l -0.143,0.0882 -0.0319,0.0319 -0.0613,0.0335 -0.0697,-0.005 -0.0443,-0.0285 -0.0323,-0.0323 v 0 l -0.1431,-0.0882 v 0 0 l -0.1596,-0.0529 v 0 l -0.0985,-0.0101 v 0 h -0.5334 v 0 l -0.0985,0.0101 v 0 l -0.0791,0.0262 -0.0805,0.0266 v 1e-4 l -0.1431,0.0882 v 0 l -0.0875,0.0875 -0.0613,0.0335 -0.0263,0.0028 h -2.5955 l -0.067,-0.0197 -0.0207,-0.0166 -0.0936,-0.0937 -0.1456,-0.088 -0.0261,-0.0081 -0.1363,-0.0425 v 0 0 l -0.0494,-0.0045 -0.0212,-0.0019 h -0.5132 l -0.0193,0.0017 -0.0513,0.0047 -0.1624,0.0506 -0.1456,0.088 v 0 l -0.1021,0.1022 -0.0613,0.0334 -0.0697,-0.0049 -0.0444,-0.0285 -0.1021,-0.1022 -0.1456,-0.088 -0.0261,-0.0081 -0.1363,-0.0425 v 0 0 l -0.0494,-0.0045 -0.0212,-0.0019 h -0.5132 l -0.0193,0.0017 -0.0513,0.0047 -0.0133,0.0042 -0.1491,0.0464 v 0 0 l -0.017,0.0103 -0.0676,0.0179 -0.0665,-0.0216 -0.0178,-0.0147 -1.0772,-1.0772 -0.0335,-0.0614 -0.003,-0.0263 V 92.75 h 0.8495 v 0.5478 l 0.006,0.0596 v 0 l 0.0502,0.1347 v 0 l 0.0862,0.1151 v 0 l 0.1151,0.0861 v 1e-4 l 0.1347,0.0502 v 0 l 0.0596,0.0064 v 0 h 0.7478 v -1 h 0.5 v 1 h 0.7478 v 0 l 0.0596,-0.0064 v 0 l 0.1347,-0.0502 v -1e-4 l 0.1151,-0.0861 v 0 l 0.0861,-0.1151 h 1e-4 l 0.0502,-0.1347 v 0 l 0.006,-0.0596 v 0 -0.5478 h -1.2 -0.5 -1.2 -0.8495 v -0.5 h 0.8495 1.2 v -1 h 0.5 v 1 h 1.2 v -0.5478 0 l -0.006,-0.0596 v 0 l -0.0502,-0.1347 h -1e-4 l -0.0861,-0.1151 v 0 l -0.1151,-0.0862 v 0 l -0.1347,-0.0502 v 0 L 179.4978,91.25 h -0.7478 -0.5 -0.7478 l -0.0596,0.0064 v 0 l -0.1347,0.0502 v 0 l -0.0993,0.0744 -0.0166,0.0062 -0.002,0.0065 -0.009,0.0149 -0.0744,0.0993 v 0 l -0.0502,0.1347 v 0 l -0.006,0.0596 V 92.25 h -0.8495 v -0.1585 l 0.0197,-0.067 0.0166,-0.0207 0.7572,-0.7572 0.0332,-0.0181 0.008,-0.0211 0.0116,-0.0134 0.3159,-0.3158 0.3652,-0.3653 0.006,-0.0051 0.045,-0.0399 0.0342,-0.0495 0.004,-0.006 0.001,-0.002 0.0356,-0.0453 0.004,-0.0093 0.0111,-0.0195 0.006,-0.0084 0.0213,-0.0562 0.003,-0.0069 0.0247,-0.0549 v 0 0 l 0.002,-0.0099 0.006,-0.0217 0.004,-0.0094 0.007,-0.0597 0.001,-0.0074 0.004,-0.023 0.007,-0.0362 -0.004,-0.06 -2e-4,-0.0075 v -3.3836 l 0.0197,-0.067 0.0166,-0.0207 0.837,-0.837 0.0614,-0.0335 0.0263,-0.0028 h 0.5109 l 0.0843,-0.0102 0.0422,-0.0052 v 0 l 0.004,-0.001 0.0297,-0.0036 h 0.5284 l 0.0921,-0.0112 0.0307,-0.0037 0.1546,-0.0586 0.136,-0.0939 0.1096,-0.1237 0.0768,-0.1463 0.0395,-0.1605 v -0.1652 l -0.0395,-0.1605 -0.0128,-0.0243 -0.0137,-0.0685 0.0137,-0.0467 0.002,-0.0036 0.0109,-0.0207 0.0395,-0.1605 v -0.1652 l -0.0297,-0.1205 0.003,-0.0698 0.0403,-0.0571 0.0648,-0.0262 0.0686,0.013 0.0313,0.0227 0.5843,0.5843 0.0335,0.0614 0.003,0.0263 v 1.8436 l -2e-4,0.0075 -0.004,0.06 v 0 l 0.0109,0.0592 0.001,0.0074 0.007,0.0597 v 0 l 0.004,0.0094 0.006,0.0216 0.002,0.01 v 0 l 0.0242,0.0537 5e-4,0.0012 0.003,0.0069 0.0213,0.0562 v 0 l 0.006,0.0084 0.0111,0.0195 0.004,0.0093 v 0 l 0.0371,0.0473 0.005,0.006 0.0341,0.0495 v 0 l 0.045,0.0399 0.006,0.0051 2.5398,2.5398 0.005,0.0055 0.0399,0.045 0.0495,0.0342 0.006,0.0044 0.0388,0.0304 0.008,0.0067 0.007,0.0031 0.002,0.001 0.0195,0.0111 0.008,0.0057 0.0562,0.0214 0.007,0.0028 0.0215,0.0097 0.0334,0.015 v 0 0 l 0.01,0.0018 0.0217,0.006 0.003,0.0012 0.006,0.0024 0.0576,0.007 0.002,3e-4 0.007,0.0011 0.0592,0.0109 0.06,-0.0037 0.007,-2e-4 h 0.0836 l 0.067,0.0197 0.0207,0.0166 0.0186,0.0187 v 0 0 l 0.1456,0.088 0.1624,0.0506 0.0706,0.0064 h 0.1901 l 0.067,0.0197 0.0207,0.0166 0.067,0.067 0.0335,0.0614 0.003,0.0263 v 0.959 l -0.0197,0.067 -0.0528,0.0458 -0.0515,0.0112 h -0.1734 v 0 l -0.0596,0.0064 -0.1348,0.0503 v 0 l -0.1152,0.0863 v 0 l -0.0863,0.1152 v 0 l -0.0503,0.1348 -0.006,0.0596 v 0 1.5958 0 l 0.006,0.0596 0.0503,0.1348 v 0 l 0.0863,0.1152 v 0 l 0.1152,0.0863 v 0 l 0.1348,0.0503 v 0 l 0.007,7e-4 0.0527,0.0057 h 1.9234 l 0.067,0.0197 0.0458,0.0528 0.0112,0.0515 v 0.8506 l -2e-4,0.0075 -0.004,0.06 v 0 l 0.0109,0.0592 0.001,0.0074 0.007,0.0597 v 0 l 0.004,0.0094 0.006,0.0216 0.002,0.01 0.0247,0.0549 0.003,0.0069 0.0213,0.0562 v 0 l 0.006,0.0084 0.0111,0.0195 0.004,0.0093 v 0 l 0.0371,0.0473 0.005,0.006 0.0341,0.0495 v 0 l 0.045,0.0399 0.006,0.0051 0.6448,0.6448 0.005,0.0055 0.0399,0.045 v 0 l 0.0495,0.0341 0.006,0.0045 0.0473,0.0371 0.009,0.0041 0.0195,0.0111 0.008,0.0057 0.0562,0.0213 0.007,0.0029 0.0549,0.0247 0.01,0.0018 0.0217,0.006 0.009,0.0036 v 0 l 0.0441,0.0054 0.0156,0.0019 0.007,0.0011 0.0212,0.0039 0.038,0.007 0.06,-0.0037 0.008,-2e-4 h 1.8224 l 0.067,0.0197 0.0346,0.0332 0.0826,0.118 0.0947,0.0947 0.0724,0.0724 0.0863,0.0604 0.1073,0.0751 v 0 0 l 0.2141,0.0999 v 0 0 l 0.0431,0.0115 0.1852,0.0497 0.1883,0.0164 0.0471,0.0042 v 0 0 l 0.0392,-0.0035 0.1962,-0.0171 0.2283,-0.0612 0.2141,-0.0999 0.1936,-0.1355 0.1671,-0.1671 0.1355,-0.1936 0.0999,-0.2141 0.0612,-0.2283 0.0206,-0.2354 -0.0206,-0.2354 -0.0545,-0.2031 -0.007,-0.0252 v 0 0 l -0.0999,-0.2141 -0.0137,-0.0196 -0.1218,-0.174 -0.1671,-0.1671 v 0 l -0.1856,-0.1299 -0.0436,-0.0546 -0.007,-0.0695 0.0315,-0.0624 0.0193,-0.0167 0.0222,-0.0155 0.1634,-0.1144 0.1671,-0.1671 0.1355,-0.1936 0.0999,-0.2141 0.0612,-0.2283 0.0206,-0.2354 -0.0206,-0.2354 -0.0612,-0.2283 -0.0999,-0.2141 -0.0223,-0.032 -0.1132,-0.1616 -0.1671,-0.1671 v 0 l -0.1856,-0.1299 -0.0436,-0.0546 -0.007,-0.0695 0.0315,-0.0624 0.0193,-0.0167 0.0728,-0.0509 0.1128,-0.079 0.1671,-0.1671 0.1355,-0.1936 0.0999,-0.2141 0.0612,-0.2283 0.0206,-0.2354 -0.0206,-0.2354 -0.0612,-0.2283 -0.0999,-0.2141 -0.0112,-0.0161 -0.1243,-0.1775 -0.1671,-0.1671 v 0 l -0.1856,-0.1299 -0.0436,-0.0546 -0.007,-0.0695 0.0315,-0.0624 0.0193,-0.0167 0.0728,-0.0509 0.1128,-0.079 0.1671,-0.1671 0.1355,-0.1936 0.0999,-0.2141 0.0612,-0.2283 0.0206,-0.2354 -0.0206,-0.2354 -0.0612,-0.2283 -0.0999,-0.2141 -0.0824,-0.1178 -0.0531,-0.0758 -0.1671,-0.1671 v 0 l -0.1856,-0.1299 -0.0436,-0.0546 -0.007,-0.0695 0.0315,-0.0624 0.0193,-0.0167 0.0728,-0.0509 0.1128,-0.079 0.1671,-0.1671 0.1355,-0.1936 0.0999,-0.2141 0.0612,-0.2283 0.0206,-0.2354 -0.0206,-0.2354 -0.0612,-0.2283 -0.0999,-0.2141 -0.0313,-0.0448 -0.1042,-0.1488 -0.1671,-0.1671 v 0 l -0.1856,-0.1299 -0.0436,-0.0546 -0.007,-0.0695 0.0315,-0.0624 0.0193,-0.0167 0.0732,-0.0512 0.1124,-0.0787 0.1671,-0.1671 0.1355,-0.1936 0.0999,-0.2141 0.0612,-0.2283 0.0206,-0.2354 -0.0206,-0.2354 -0.0612,-0.2283 -0.0999,-0.2141 -0.084,-0.12 -0.0515,-0.0736 -0.1671,-0.1671 v 0 l -0.1856,-0.1299 -0.0436,-0.0546 -0.007,-0.0695 0.0315,-0.0624 0.0193,-0.0167 0.0449,-0.0314 0.1407,-0.0985 0.1671,-0.1671 0.1355,-0.1936 0.0999,-0.2141 0.0612,-0.2283 0.0206,-0.2354 -0.0206,-0.2354 -0.0612,-0.2283 -0.0999,-0.2141 -0.038,-0.0544 -0.0975,-0.1392 -0.1671,-0.1671 v 0 l -0.1856,-0.1299 -0.0436,-0.0546 -0.007,-0.0695 0.0315,-0.0624 0.0193,-0.0167 0.0728,-0.0509 0.1128,-0.079 0.1671,-0.1671 0.1355,-0.1936 0.0999,-0.2141 0.0612,-0.2283 0.0206,-0.2354 -0.0206,-0.2354 -0.0612,-0.2283 -0.0999,-0.2141 -0.0223,-0.032 -0.1132,-0.1616 -0.1671,-0.1671 v 0 l -0.1856,-0.1299 -0.0436,-0.0546 -0.007,-0.0695 0.0315,-0.0624 0.0193,-0.0167 0.0728,-0.0509 0.1128,-0.079 0.1671,-0.1671 0.1355,-0.1936 0.0999,-0.2141 0.0612,-0.2283 0.0206,-0.2354 -0.0206,-0.2354 -0.0514,-0.1919 -0.01,-0.0364 v 0 0 l -0.0999,-0.2141 -0.002,-0.0033 -0.1332,-0.1903 -0.0406,-0.0406 -0.0813,-0.0813 -0.0335,-0.0613 0.005,-0.0697 0.0418,-0.056 0.031,-0.0169 0.1314,-0.049 0.1152,-0.0863 0.0863,-0.1152 0.0503,-0.1348 0.006,-0.0596 v -1.7958 l -0.006,-0.0596 -0.043,-0.1154 -0.007,-0.0194 v 0 l -0.0863,-0.1152 v 0 l -0.1152,-0.0863 v 0 l -0.1348,-0.0503 v 0 l -0.0596,-0.0064 v 0 0 0 h -1.7958 v 0 l -0.0596,0.0064 -0.1348,0.0503 v 0 l -0.1152,0.0863 v 0 l -0.0863,0.1152 v 0 l -0.0503,0.1348 -0.006,0.0524 -8e-4,0.0072 v 0 0.0734 l -0.0197,0.067 -0.0528,0.0458 -0.0515,0.0112 h -1.0706 l -0.008,-2e-4 -0.06,-0.0037 v 0 l -0.0592,0.0109 -0.007,0.0011 -0.0597,0.0073 v 0 l -0.009,0.0036 -0.0217,0.006 -0.01,0.0018 -0.0549,0.0247 -0.007,0.0029 -0.0562,0.0213 v 0 l -0.008,0.0057 -0.0195,0.0111 -0.009,0.0041 v 0 l -0.0473,0.0371 -0.006,0.0044 -0.0495,0.0342 -0.0399,0.045 -0.005,0.0055 -1.1448,1.1448 -0.006,0.0051 -0.045,0.0399 -0.0342,0.0495 -0.004,0.006 -0.0371,0.0473 v 0 l -0.004,0.0093 -0.0111,0.0195 -0.006,0.0084 v 0 l -0.0213,0.0562 -0.003,0.0069 -0.0247,0.0549 -0.002,0.0099 -0.006,0.0216 -0.004,0.0095 v 0 l -0.007,0.0597 -0.001,0.0074 -0.0109,0.0592 v 0 l 0.004,0.06 2e-4,0.0075 v 2.8836 l -0.0197,0.067 -0.0166,0.0207 -1.587,1.587 -0.0614,0.0335 -0.0263,0.0028 h -0.7609 l -0.1265,0.0154 -0.004,0.001 -0.0297,0.0036 h -0.5284 l -0.1228,0.0149 -0.0892,0.0338 -0.0583,0.0222 -0.0697,0.0053 -0.0615,-0.0331 -0.0338,-0.0612 -0.003,-0.027 v -3.1829 l 0.0197,-0.067 0.0166,-0.0207 0.7112,-0.7112 0.0613,-0.0334 0.0585,0.0014 0.0168,0.0045 0.1764,0.0154 0.059,0.0052 v 0 0 l 0.059,-0.0052 0.1764,-0.0154 0.2283,-0.0612 0.2141,-0.0999 0.1936,-0.1355 0.1671,-0.1671 0.1355,-0.1936 0.0999,-0.2141 0.0612,-0.2283 0.0206,-0.2354 -0.0206,-0.2354 -0.0612,-0.2283 -0.0999,-0.2141 -0.005,-0.0076 -0.1302,-0.186 -0.1671,-0.1671 v 0 l -0.0233,-0.0163 -0.0156,-0.0109 -0.1547,-0.1083 v 0 l -0.0288,-0.0135 -0.1853,-0.0864 v 0 0 l -0.2283,-0.0612 v 0 L 185.07,71.6443 v 0 l -0.2354,0.0206 v 0 l -0.2283,0.0612 v 0 l -0.2141,0.0999 v 0 l -0.1936,0.1355 -0.1671,0.1671 -0.1299,0.1856 -0.0546,0.0436 -0.0695,0.0072 -0.0624,-0.0315 -0.0167,-0.0193 -0.1299,-0.1856 -0.1671,-0.1671 v 0 l -0.0233,-0.0163 -0.0156,-0.0109 -0.1547,-0.1083 v 0 l -0.0288,-0.0135 -0.1853,-0.0864 v 0 0 l -0.2283,-0.0612 v 0 L 182.53,71.6443 v 0 l -0.2354,0.0206 v 0 l -0.2283,0.0612 v 0 l -0.2141,0.0999 v 0 l -0.1936,0.1355 -0.1671,0.1671 -0.1302,0.186 -0.0546,0.0436 -0.0695,0.0072 -0.0624,-0.0315 -0.0167,-0.0193 -0.13,-0.1857 v 0 l -0.167,-0.167 -0.1935,-0.1355 -0.2141,-0.0998 v 0 L 180.24,71.6694 v 0.8951 L 180.1323,72.5153 180.0258,72.5 h -0.0716 l -0.1065,0.0153 -0.1077,0.0492 v -0.8951 0 l -0.2135,0.0572 v 0 l -0.2141,0.0998 v 0 l -0.1935,0.1355 -0.122,0.122 -0.0614,0.0335 -0.0697,-0.005 -0.0559,-0.0418 -0.0169,-0.031 -0.0136,-0.0364 -0.0216,-0.058 -0.014,-0.0375 v 0 l -0.0863,-0.1152 v 0 l -0.1152,-0.0863 v 0 l -0.1348,-0.0503 v 0 l -0.0596,-0.0064 v 0 0 0 h -1.7958 v 0 l -0.0596,0.0064 -0.1348,0.0503 v 0 l -0.1152,0.0863 v 0 l -0.0863,0.1152 v 0 l -0.0503,0.1348 -0.006,0.0596 v 0 1.7958 0 l 0.006,0.0596 0.0503,0.1348 v 0 l 0.0863,0.1152 v 0 l 0.1152,0.0863 v 0 l 0.0153,0.0057 0.1195,0.0446 0.0596,0.0064 h 0.1173 l 0.067,0.0197 0.0458,0.0528 3e-4,6e-4 0.0185,0.0412 0.003,0.0069 0.0213,0.0562 v 0 l 0.006,0.0084 0.0111,0.0195 0.004,0.0093 v 0 l 0.0371,0.0473 0.005,0.006 0.0341,0.0495 v 0 l 0.045,0.0399 0.005,0.0051 0.7648,0.7648 0.005,0.0055 0.0399,0.045 0.0495,0.0342 0.006,0.0044 0.0473,0.0371 v 0 0 l 0.009,0.0041 0.0195,0.0111 0.008,0.0057 0.0562,0.0214 0.007,0.0028 0.0214,0.0096 0.0335,0.0151 v 0 0 l 0.01,0.0018 0.0217,0.006 0.003,0.0012 0.006,0.0024 0.0576,0.007 0.002,3e-4 0.007,0.0011 0.0592,0.0109 0.06,-0.0037 0.007,-2e-4 h 0.2459 l 0.0671,0.0197 0.0457,0.0528 0.01,0.0691 -0.029,0.0636 -0.0287,0.0243 -0.004,0.0027 -0.124,0.124 -0.0921,0.1492 v 0 l -0.0551,0.1664 v 0 L 178.3,76.475 v 0.275 h 1.126 l 0.067,0.0197 0.0458,0.0528 0.0112,0.0515 v 0.252 l -0.0197,0.067 -0.0528,0.0458 -0.0515,0.0112 H 178.3 v 0.275 l 0.0105,0.1027 0.0545,0.1646 0.002,0.0698 -0.0357,0.0601 -0.0625,0.0312 -0.0695,-0.0076 -0.04,-0.0268 -2.4229,-2.4228 -0.0335,-0.0614 -0.003,-0.0263 v -0.2824 l 2e-4,-0.0075 0.004,-0.06 -0.0109,-0.0592 -10e-4,-0.0074 -3e-4,-0.0021 -0.007,-0.0576 -0.004,-0.0095 -0.006,-0.0216 -0.002,-0.01 v 0 l -0.0247,-0.0548 -0.003,-0.0069 -0.0214,-0.0563 -0.006,-0.0083 -0.0111,-0.0196 -0.004,-0.0092 v 0 l -0.0182,-0.0232 -0.0189,-0.0241 -0.004,-0.0061 -0.0342,-0.0495 -0.045,-0.0399 -0.006,-0.0051 -1.3709,-1.3709 -0.0335,-0.0613 -0.003,-0.0264 v -1.6325 0 0 l -0.006,-0.0596 -0.028,-0.075 -0.0223,-0.0598 v 0 l -0.0863,-0.1152 v 0 l -0.1152,-0.0863 v 0 l -0.1348,-0.0503 v 0 l -0.0596,-0.0064 v 0 0 0 h -1.7958 v 0 l -0.0596,0.0064 -0.1348,0.0503 v 0 l -0.1152,0.0863 v 0 l -0.0863,0.1152 v 0 l -0.0503,0.1348 -0.006,0.0596 v 0 0 1.7958 0 l 0.006,0.0596 0.0503,0.1348 v 0 l 0.0863,0.1152 v 0 l 0.1152,0.0863 v 0 l 0.1314,0.049 0.0559,0.0419 0.0244,0.0654 -0.0148,0.0683 -0.0212,0.0283 -0.1219,0.1219 -0.1355,0.1936 v 0 l -0.0999,0.2141 v 0 l -0.0612,0.2283 v 0 l -0.0206,0.2354 v 0 l 0.0206,0.2354 v 0 l 0.0612,0.2283 v 0 0 l 0.0784,0.1681 0.0215,0.046 v 0 l 0.0751,0.1074 0.0474,0.0676 0.013,0.0186 v 0 l 0.1671,0.1671 v 0 l 0.1856,0.1299 0.0436,0.0546 0.007,0.0695 -0.0315,0.0624 -0.0193,0.0167 -0.1856,0.1299 -0.1671,0.1671 -0.1355,0.1936 v 0 l -0.0999,0.2141 v 0 l -0.0612,0.2283 v 0 l -0.0206,0.2354 v 0 l 0.0206,0.2354 v 0 l 0.0612,0.2283 v 0 0 l 0.0803,0.1722 0.0196,0.0419 v 0 l 0.022,0.0315 0.1005,0.1435 0.013,0.0186 v 0 l 0.1671,0.1671 v 0 l 0.1856,0.1299 0.0436,0.0546 0.007,0.0695 -0.0315,0.0624 -0.0193,0.0167 -0.1856,0.1299 -0.1671,0.1671 -0.1355,0.1936 v 0 l -0.0999,0.2141 v 0 l -0.0612,0.2283 v 0 l -0.0206,0.2354 v 0 l 0.0206,0.2354 v 0 l 0.0612,0.2283 v 0 0 l 0.0816,0.175 0.0183,0.0391 v 0 l 0.0628,0.0898 0.0597,0.0852 0.013,0.0186 v 0 l 0.1671,0.1671 v 0 l 0.186,0.1302 0.0436,0.0546 0.007,0.0695 -0.0315,0.0624 -0.0193,0.0167 -0.1857,0.13 v 0 l -0.167,0.167 v 0 l -0.1355,0.1935 v 0 l -0.0998,0.2141 v 0 l -0.0572,0.2135 v 0 h 0.8969 l -0.0258,0.0402 -0.0405,0.1379 v 0.1438 l 0.0405,0.1379 0.0258,0.0402 h -0.8969 l 0.0572,0.2135 v 0 l 0.0998,0.2141 0.1355,0.1935 0.167,0.167 0.1857,0.13 0.0436,0.0546 0.007,0.0695 -0.0315,0.0623 -0.0193,0.0168 -0.186,0.1302 -0.1671,0.1671 -0.1355,0.1936 v 0 l -0.0999,0.2141 v 0 l -0.0612,0.2283 v 0 l -0.0206,0.2354 v 0 l 0.0206,0.2354 v 0 l 0.0612,0.2283 v 0 0 l 0.0999,0.2141 v 0 l 0.1083,0.1547 0.0142,0.0203 0.013,0.0186 v 0 l 0.1671,0.1671 v 0 l 0.1856,0.1299 0.0436,0.0546 0.007,0.0695 -0.0315,0.0624 -0.0193,0.0167 -0.1856,0.1299 -0.1671,0.1671 -0.1355,0.1936 v 0 l -0.0999,0.2141 v 0 l -0.0612,0.2283 v 0 l -0.0206,0.2354 v 0 l 0.0206,0.2354 v 0 l 0.0612,0.2283 v 0 0 l 0.0412,0.0883 0.0587,0.1258 v 0 l 0.0889,0.127 0.0336,0.048 0.013,0.0186 v 0 l 0.1671,0.1671 v 0 l 0.1856,0.1299 0.0436,0.0546 0.007,0.0695 -0.0315,0.0624 -0.0193,0.0167 -0.1856,0.1299 -0.1671,0.1671 -0.1355,0.1936 v 0 l -0.0999,0.2141 v 0 l -0.0612,0.2283 v 0 l -0.0206,0.2354 v 0 l 0.0206,0.2354 v 0 l 0.0612,0.2283 v 0 0 l 0.0478,0.1025 0.0521,0.1116 v 0 l 0.0707,0.1011 0.0544,0.0776 0.0104,0.0149 v 0 l 0.1671,0.1671 v 0 l 0.1856,0.1299 0.0436,0.0546 0.007,0.0695 -0.0315,0.0624 -0.0193,0.0167 -0.1856,0.1299 -0.1671,0.1671 -0.1355,0.1936 v 0 l -0.0936,0.2006 -0.006,0.0122 -6e-4,0.0013 v 0 l -0.0612,0.2283 v 0 l -0.0206,0.2354 v 0 l 0.0206,0.2354 v 0 l 0.0612,0.2283 v 0 0 l 0.0556,0.1192 0.0443,0.0949 v 0 l 0.0707,0.1011 0.0628,0.0896 0.002,0.0029 v 0 l 0.1671,0.1671 v 0 l 0.1856,0.1299 0.0436,0.0546 0.007,0.0695 -0.0315,0.0624 -0.0193,0.0167 -0.1856,0.1299 -0.1671,0.1671 -0.1355,0.1936 v 0 l -0.0999,0.2141 v 0 l -0.0612,0.2283 v 0 l -0.0206,0.2354 v 0 h -0.6138 V 69.6245 l 0.0197,-0.067 0.0528,-0.0458 0.0515,-0.0112 h 23.001 z"
           id="path378" />
      </g>
    </g>
  </g>
  <g
     style="fill:#000000;fill-opacity:1;stroke:#000000;stroke-width:0;stroke-linecap:round;stroke-linejoin:round;stroke-opacity:1"
     id="g388"
     transform="translate(-78.12899,-51.524561)">
    <circle
       cx="172.72"
       cy="95.254997"
       r="0.5"
       id="circle386" />
  </g>
  <g
     style="fill:#000000;fill-opacity:1;stroke:#000000;stroke-width:0.0212;stroke-linecap:round;stroke-linejoin:round;stroke-opacity:1"
     id="g390" />
  <g
     style="fill:#000000;fill-opacity:1;stroke:#000000;stroke-width:0;stroke-linecap:round;stroke-linejoin:round;stroke-opacity:1"
     id="g394"
     transform="translate(-78.12899,-51.524561)">
    <circle
       cx="172.72"
       cy="92.714996"
       r="0.5"
       id="circle392" />
  </g>
  <g
     style="fill:#000000;fill-opacity:1;stroke:#000000;stroke-width:0.0212;stroke-linecap:round;stroke-linejoin:round;stroke-opacity:1"
     id="g396" />
  <g
     style="fill:#000000;fill-opacity:1;stroke:#000000;stroke-width:0;stroke-linecap:round;stroke-linejoin:round;stroke-opacity:1"
     id="g400"
     transform="translate(-78.12899,-51.524561)">
    <circle
       cx="172.72"
       cy="90.175003"
       r="0.5"
       id="circle398" />
  </g>
  <g
     style="fill:#000000;fill-opacity:1;stroke:#000000;stroke-width:0.0212;stroke-linecap:round;stroke-linejoin:round;stroke-opacity:1"
     id="g402" />
  <g
     style="fill:#000000;fill-opacity:1;stroke:#000000;stroke-width:0;stroke-linecap:round;stroke-linejoin:round;stroke-opacity:1"
     id="g406"
     transform="translate(-78.12899,-51.524561)">
    <circle
       cx="172.72"
       cy="87.635002"
       r="0.5"
       id="circle404" />
  </g>
  <g
     style="fill:#000000;fill-opacity:1;stroke:#000000;stroke-width:0.0212;stroke-linecap:round;stroke-linejoin:round;stroke-opacity:1"
     id="g408" />
  <g
     style="fill:#000000;fill-opacity:1;stroke:#000000;stroke-width:0;stroke-linecap:round;stroke-linejoin:round;stroke-opacity:1"
     id="g412"
     transform="translate(-78.12899,-51.524561)">
    <circle
       cx="172.72"
       cy="85.095001"
       r="0.5"
       id="circle410" />
  </g>
  <g
     style="fill:#000000;fill-opacity:1;stroke:#000000;stroke-width:0.0212;stroke-linecap:round;stroke-linejoin:round;stroke-opacity:1"
     id="g414" />
  <g
     style="fill:#000000;fill-opacity:1;stroke:#000000;stroke-width:0;stroke-linecap:round;stroke-linejoin:round;stroke-opacity:1"
     id="g418"
     transform="translate(-78.12899,-51.524561)">
    <circle
       cx="172.72"
       cy="82.555"
       r="0.5"
       id="circle416" />
  </g>
  <g
     style="fill:#000000;fill-opacity:1;stroke:#000000;stroke-width:0.0212;stroke-linecap:round;stroke-linejoin:round;stroke-opacity:1"
     id="g420" />
  <g
     style="fill:#000000;fill-opacity:1;stroke:#000000;stroke-width:0;stroke-linecap:round;stroke-linejoin:round;stroke-opacity:1"
     id="g424"
     transform="translate(-78.12899,-51.524561)">
    <circle
       cx="172.72"
       cy="80.014999"
       r="0.5"
       id="circle422" />
  </g>
  <g
     style="fill:#000000;fill-opacity:1;stroke:#000000;stroke-width:0.0212;stroke-linecap:round;stroke-linejoin:round;stroke-opacity:1"
     id="g426" />
  <g
     style="fill:#000000;fill-opacity:1;stroke:#000000;stroke-width:0;stroke-linecap:round;stroke-linejoin:round;stroke-opacity:1"
     id="g430"
     transform="translate(-78.12899,-51.524561)">
    <circle
       cx="172.72"
       cy="77.474998"
       r="0.5"
       id="circle428" />
  </g>
  <g
     style="fill:#000000;fill-opacity:1;stroke:#000000;stroke-width:0.0212;stroke-linecap:round;stroke-linejoin:round;stroke-opacity:1"
     id="g432" />
  <g
     style="fill:#000000;fill-opacity:1;stroke:#000000;stroke-width:0;stroke-linecap:round;stroke-linejoin:round;stroke-opacity:1"
     id="g436"
     transform="translate(-78.12899,-51.524561)">
    <circle
       cx="172.72"
       cy="74.934998"
       r="0.5"
       id="circle434" />
  </g>
  <g
     style="fill:#000000;fill-opacity:1;stroke:#000000;stroke-width:0.0212;stroke-linecap:round;stroke-linejoin:round;stroke-opacity:1"
     id="g438" />
  <g
     style="fill:#000000;fill-opacity:1;stroke:#000000;stroke-width:0;stroke-linecap:round;stroke-linejoin:round;stroke-opacity:1"
     id="g442"
     transform="translate(-78.12899,-51.524561)">
    <circle
       cx="172.72"
       cy="72.394997"
       r="0.5"
       id="circle440" />
  </g>
  <g
     style="fill:#000000;fill-opacity:1;stroke:#000000;stroke-width:0.0212;stroke-linecap:round;stroke-linejoin:round;stroke-opacity:1"
     id="g444" />
  <g
     style="fill:#000000;fill-opacity:1;stroke:#000000;stroke-width:0;stroke-linecap:round;stroke-linejoin:round;stroke-opacity:1"
     id="g448"
     transform="translate(-78.12899,-51.524561)">
    <circle
       cx="192"
       cy="95.43"
       r="0.5"
       id="circle446" />
  </g>
  <g
     style="fill:#000000;fill-opacity:1;stroke:#000000;stroke-width:0.0212;stroke-linecap:round;stroke-linejoin:round;stroke-opacity:1"
     id="g450" />
  <g
     style="fill:#000000;fill-opacity:1;stroke:#000000;stroke-width:0;stroke-linecap:round;stroke-linejoin:round;stroke-opacity:1"
     id="g454"
     transform="translate(-78.12899,-51.524561)">
    <circle
       cx="192"
       cy="92.889999"
       r="0.5"
       id="circle452" />
  </g>
  <g
     style="fill:#000000;fill-opacity:1;stroke:#000000;stroke-width:0.0212;stroke-linecap:round;stroke-linejoin:round;stroke-opacity:1"
     id="g456" />
  <g
     style="fill:#000000;fill-opacity:1;stroke:#000000;stroke-width:0;stroke-linecap:round;stroke-linejoin:round;stroke-opacity:1"
     id="g460"
     transform="translate(-78.12899,-51.524561)">
    <circle
       cx="192"
       cy="90.349998"
       r="0.5"
       id="circle458" />
  </g>
  <g
     style="fill:#000000;fill-opacity:1;stroke:#000000;stroke-width:0.0212;stroke-linecap:round;stroke-linejoin:round;stroke-opacity:1"
     id="g462" />
  <g
     style="fill:#000000;fill-opacity:1;stroke:#000000;stroke-width:0;stroke-linecap:round;stroke-linejoin:round;stroke-opacity:1"
     id="g466"
     transform="translate(-78.12899,-51.524561)">
    <circle
       cx="192"
       cy="87.809998"
       r="0.5"
       id="circle464" />
  </g>
  <g
     style="fill:#000000;fill-opacity:1;stroke:#000000;stroke-width:0.0212;stroke-linecap:round;stroke-linejoin:round;stroke-opacity:1"
     id="g468" />
  <g
     style="fill:#000000;fill-opacity:1;stroke:#000000;stroke-width:0;stroke-linecap:round;stroke-linejoin:round;stroke-opacity:1"
     id="g472"
     transform="translate(-78.12899,-51.524561)">
    <circle
       cx="192"
       cy="85.269997"
       r="0.5"
       id="circle470" />
  </g>
  <g
     style="fill:#000000;fill-opacity:1;stroke:#000000;stroke-width:0.0212;stroke-linecap:round;stroke-linejoin:round;stroke-opacity:1"
     id="g474" />
  <g
     style="fill:#000000;fill-opacity:1;stroke:#000000;stroke-width:0;stroke-linecap:round;stroke-linejoin:round;stroke-opacity:1"
     id="g478"
     transform="translate(-78.12899,-51.524561)">
    <circle
       cx="192"
       cy="82.730003"
       r="0.5"
       id="circle476" />
  </g>
  <g
     style="fill:#000000;fill-opacity:1;stroke:#000000;stroke-width:0.0212;stroke-linecap:round;stroke-linejoin:round;stroke-opacity:1"
     id="g480" />
  <g
     style="fill:#000000;fill-opacity:1;stroke:#000000;stroke-width:0;stroke-linecap:round;stroke-linejoin:round;stroke-opacity:1"
     id="g484"
     transform="translate(-78.12899,-51.524561)">
    <circle
       cx="192"
       cy="80.190002"
       r="0.5"
       id="circle482" />
  </g>
  <g
     style="fill:#000000;fill-opacity:1;stroke:#000000;stroke-width:0.0212;stroke-linecap:round;stroke-linejoin:round;stroke-opacity:1"
     id="g486" />
  <g
     style="fill:#000000;fill-opacity:1;stroke:#000000;stroke-width:0;stroke-linecap:round;stroke-linejoin:round;stroke-opacity:1"
     id="g490"
     transform="translate(-78.12899,-51.524561)">
    <circle
       cx="192"
       cy="77.650002"
       r="0.5"
       id="circle488" />
  </g>
  <g
     style="fill:#000000;fill-opacity:1;stroke:#000000;stroke-width:0.0212;stroke-linecap:round;stroke-linejoin:round;stroke-opacity:1"
     id="g492" />
  <g
     style="fill:#000000;fill-opacity:1;stroke:#000000;stroke-width:0;stroke-linecap:round;stroke-linejoin:round;stroke-opacity:1"
     id="g496"
     transform="translate(-78.12899,-51.524561)">
    <circle
       cx="192"
       cy="75.110001"
       r="0.5"
       id="circle494" />
  </g>
  <g
     style="fill:#000000;fill-opacity:1;stroke:#000000;stroke-width:0.0212;stroke-linecap:round;stroke-linejoin:round;stroke-opacity:1"
     id="g498" />
  <g
     style="fill:#000000;fill-opacity:1;stroke:#000000;stroke-width:0;stroke-linecap:round;stroke-linejoin:round;stroke-opacity:1"
     id="g502"
     transform="translate(-78.12899,-51.524561)">
    <circle
       cx="192"
       cy="72.57"
       r="0.5"
       id="circle500" />
  </g>
  <g
     style="fill:#000000;fill-opacity:1;stroke:#000000;stroke-width:0.0212;stroke-linecap:round;stroke-linejoin:round;stroke-opacity:1"
     id="g504" />
  <g
     style="fill:#000000;fill-opacity:1;stroke:#000000;stroke-width:0;stroke-linecap:round;stroke-linejoin:round;stroke-opacity:1"
     id="g508"
     transform="translate(-78.12899,-51.524561)">
    <circle
       cx="185.07001"
       cy="73"
       r="0.5"
       id="circle506" />
  </g>
  <g
     style="fill:#000000;fill-opacity:1;stroke:#000000;stroke-width:0.0212;stroke-linecap:round;stroke-linejoin:round;stroke-opacity:1"
     id="g510" />
  <g
     style="fill:#000000;fill-opacity:1;stroke:#000000;stroke-width:0;stroke-linecap:round;stroke-linejoin:round;stroke-opacity:1"
     id="g514"
     transform="translate(-78.12899,-51.524561)">
    <circle
       cx="182.53"
       cy="73"
       r="0.5"
       id="circle512" />
  </g>
  <g
     style="fill:#000000;fill-opacity:1;stroke:#000000;stroke-width:0.0212;stroke-linecap:round;stroke-linejoin:round;stroke-opacity:1"
     id="g516" />
  <g
     style="fill:#000000;fill-opacity:1;stroke:#000000;stroke-width:0;stroke-linecap:round;stroke-linejoin:round;stroke-opacity:1"
     id="g520"
     transform="translate(-78.12899,-51.524561)">
    <circle
       cx="179.99001"
       cy="73"
       r="0.5"
       id="circle518" />
  </g>
  <g
     style="fill:#000000;fill-opacity:1;stroke:#000000;stroke-width:0.0212;stroke-linecap:round;stroke-linejoin:round;stroke-opacity:1"
     id="g522" />
  <g
     style="fill:#000000;fill-opacity:1;stroke:#000000;stroke-width:0;stroke-linecap:round;stroke-linejoin:round;stroke-opacity:1"
     id="g526"
     transform="translate(-78.12899,-51.524561)">
    <circle
       cx="177.45"
       cy="73"
       r="0.5"
       id="circle524" />
  </g>
  <g
     style="fill:#000000;fill-opacity:1;stroke:#000000;stroke-width:0.0212;stroke-linecap:round;stroke-linejoin:round;stroke-opacity:1"
     id="g528" />
  <g
     style="fill:#ffffff;fill-opacity:1;stroke:#ffffff;stroke-width:0.0212;stroke-linecap:round;stroke-linejoin:round;stroke-opacity:1"
     id="g530" />
  <g
     style="fill:#ffffff;fill-opacity:0;stroke:#ffffff;stroke-width:0.05;stroke-linecap:round;stroke-linejoin:round;stroke-opacity:1"
     id="g558"
     transform="translate(-78.12899,-51.524561)">
    <path
       style="fill:none;fill-opacity:0;stroke:#ffffff;stroke-width:0.05;stroke-linecap:round;stroke-linejoin:round;stroke-opacity:1"
       d="M 170.25,69 H 194.5 V 98.5 H 170.25 Z"
       id="path532" />
    <g
       id="g534" />
    <g
       id="g536" />
    <g
       id="g538" />
    <g
       id="g540" />
    <g
       id="g542" />
    <g
       id="g544" />
    <g
       id="g546" />
    <g
       id="g548" />
    <g
       id="g550" />
    <g
       id="g552" />
    <g
       id="g554" />
    <g
       id="g556" />
  </g>
  <metadata
     id="metadata566">
    <rdf:RDF>
      <cc:Work
         rdf:about="">
        <dc:title>SVG Image created as STM32-F_Cu.svg date 2024/09/16 16:15:59 </dc:title>
      </cc:Work>
    </rdf:RDF>
  </metadata>
</svg>
