<?xml version="1.0" encoding="UTF-8" standalone="no"?>
<svg
   version="1.1"
   width="210.0072mm"
   height="297.0022mm"
   viewBox="0 0 210.0072 297.00219"
   id="svg990"
   sodipodi:docname="stmC80488-F_Cu.svg"
   inkscape:version="1.1.2 (0a00cf5339, 2022-02-04)"
   xmlns:inkscape="http://www.inkscape.org/namespaces/inkscape"
   xmlns:sodipodi="http://sodipodi.sourceforge.net/DTD/sodipodi-0.dtd"
   xmlns="http://www.w3.org/2000/svg"
   xmlns:svg="http://www.w3.org/2000/svg"
   xmlns:rdf="http://www.w3.org/1999/02/22-rdf-syntax-ns#"
   xmlns:cc="http://creativecommons.org/ns#"
   xmlns:dc="http://purl.org/dc/elements/1.1/">
  <defs
     id="defs994" />
  <sodipodi:namedview
     id="namedview992"
     pagecolor="#ffffff"
     bordercolor="#666666"
     borderopacity="1.0"
     inkscape:pageshadow="2"
     inkscape:pageopacity="0.0"
     inkscape:pagecheckerboard="0"
     inkscape:document-units="mm"
     showgrid="false"
     inkscape:zoom="1.0330995"
     inkscape:cx="561.41737"
     inkscape:cy="397.34798"
     inkscape:window-width="1850"
     inkscape:window-height="1009"
     inkscape:window-x="70"
     inkscape:window-y="34"
     inkscape:window-maximized="1"
     inkscape:current-layer="svg990" />
  <title
     id="title2">SVG Image created as stmC80488-F_Cu.svg date 2024/09/19 15:00:16 </title>
  <desc
     id="desc4">Image generated by PCBNEW </desc>
  <g
     style="fill:#000000;fill-opacity:1;stroke:#000000;stroke-linecap:round;stroke-linejoin:round;stroke-opacity:1"
     id="g6" />
  <g
     style="fill:#000000;fill-opacity:1;stroke:#000000;stroke-width:0.0212;stroke-linecap:round;stroke-linejoin:round;stroke-opacity:1"
     id="g12">
    <rect
       x="107"
       y="63.400002"
       width="58.799999"
       height="55.400002"
       rx="0.000000"
       id="rect8" />
    <path
       style="fill:#ffffff;fill-opacity:1;fill-rule:evenodd;stroke:none"
       d="m 121.27,73.65 h -1.7 v -1.7 h 1.7 z"
       id="path10" />
  </g>
  <g
     style="fill:#ffffff;fill-opacity:1;stroke:none"
     id="g248">
    <circle
       cx="122.96"
       cy="72.800003"
       r="0.85000002"
       id="circle14" />
    <circle
       cx="125.5"
       cy="72.800003"
       r="0.85000002"
       id="circle16" />
    <circle
       cx="128.03999"
       cy="72.800003"
       r="0.85000002"
       id="circle18" />
    <circle
       cx="130.58"
       cy="72.800003"
       r="0.85000002"
       id="circle20" />
    <circle
       cx="133.12"
       cy="72.800003"
       r="0.85000002"
       id="circle22" />
    <circle
       cx="135.66"
       cy="72.800003"
       r="0.85000002"
       id="circle24" />
    <circle
       cx="138.2"
       cy="72.800003"
       r="0.85000002"
       id="circle26" />
    <circle
       cx="140.74001"
       cy="72.800003"
       r="0.85000002"
       id="circle28" />
    <circle
       cx="143.28"
       cy="72.800003"
       r="0.85000002"
       id="circle30" />
    <circle
       cx="145.82001"
       cy="72.800003"
       r="0.85000002"
       id="circle32" />
    <circle
       cx="148.36"
       cy="72.800003"
       r="0.85000002"
       id="circle34" />
    <path
       style="fill:#ffffff;fill-opacity:1;fill-rule:evenodd;stroke:none"
       d="m 125.225,79.45 v -1.7 h 1.7 v 1.7 z"
       id="path36" />
    <path
       style="fill:#ffffff;fill-opacity:1;fill-rule:evenodd;stroke:none"
       d="M 124.325,94.25 124.2293,94.231 124.1482,94.1768 124.094,94.0957 124.075,94 v -0.5 l 0.019,-0.0957 0.0542,-0.0811 0.0811,-0.0542 0.0957,-0.019 h 0.95 l 0.0957,0.019 0.0811,0.0542 0.0542,0.0811 0.019,0.0957 V 94 l -0.019,0.0957 -0.0542,0.0811 -0.0811,0.0542 -0.0957,0.019 z"
       id="path38" />
    <path
       style="fill:#ffffff;fill-opacity:1;fill-rule:evenodd;stroke:none"
       d="m 124.325,92.35 -0.0957,-0.019 -0.0811,-0.0542 -0.0542,-0.0811 -0.019,-0.0957 v -0.5 l 0.019,-0.0957 0.0542,-0.0811 0.0811,-0.0542 0.0957,-0.019 h 0.95 l 0.0957,0.019 0.0811,0.0542 0.0542,0.0811 0.019,0.0957 v 0.5 l -0.019,0.0957 -0.0542,0.0811 -0.0811,0.0542 -0.0957,0.019 z"
       id="path40" />
    <path
       style="fill:#ffffff;fill-opacity:1;fill-rule:evenodd;stroke:none"
       d="m 121.85,93.65 h 1.5 v 1.9 h -1.5 z"
       id="path42" />
    <path
       style="fill:#ffffff;fill-opacity:1;fill-rule:evenodd;stroke:none"
       d="m 121.85,101.65 h 1.5 v 1.9 h -1.5 z"
       id="path44" />
    <path
       style="fill:#ffffff;fill-opacity:1;fill-rule:evenodd;stroke:none"
       d="M 126.325,84.25 126.2293,84.231 126.1482,84.1768 126.094,84.0957 126.075,84 v -0.5 l 0.019,-0.0957 0.0542,-0.0811 0.0811,-0.0542 0.0957,-0.019 h 0.95 l 0.0957,0.019 0.0811,0.0542 0.0542,0.0811 0.019,0.0957 V 84 l -0.019,0.0957 -0.0542,0.0811 -0.0811,0.0542 -0.0957,0.019 z"
       id="path46" />
    <path
       style="fill:#ffffff;fill-opacity:1;fill-rule:evenodd;stroke:none"
       d="m 126.325,82.35 -0.0957,-0.019 -0.0811,-0.0542 -0.0542,-0.0811 -0.019,-0.0957 v -0.5 l 0.019,-0.0957 0.0542,-0.0811 0.0811,-0.0542 0.0957,-0.019 h 0.95 l 0.0957,0.019 0.0811,0.0542 0.0542,0.0811 0.019,0.0957 v 0.5 l -0.019,0.0957 -0.0542,0.0811 -0.0811,0.0542 -0.0957,0.019 z"
       id="path48" />
    <path
       style="fill:#ffffff;fill-opacity:1;fill-rule:evenodd;stroke:none"
       d="m 140.8,96.6 0.0957,0.019 0.0811,0.0542 0.0542,0.0811 0.019,0.0957 v 0.5 l -0.019,0.0957 -0.0542,0.0811 -0.0811,0.0542 L 140.8,97.6 h -0.95 L 139.7543,97.581 139.6732,97.5268 139.619,97.4457 139.6,97.35 v -0.5 l 0.019,-0.0957 0.0542,-0.0811 0.0811,-0.0542 0.0957,-0.019 z"
       id="path50" />
    <path
       style="fill:#ffffff;fill-opacity:1;fill-rule:evenodd;stroke:none"
       d="m 140.8,98.5 0.0957,0.019 0.0811,0.0542 0.0542,0.0811 0.019,0.0957 v 0.5 l -0.019,0.0957 -0.0542,0.0811 -0.0811,0.0542 L 140.8,99.5 h -0.95 L 139.7543,99.481 139.6732,99.4268 139.619,99.3457 139.6,99.25 v -0.5 l 0.019,-0.0957 0.0542,-0.0811 0.0811,-0.0542 0.0957,-0.019 z"
       id="path52" />
    <path
       style="fill:#ffffff;fill-opacity:1;fill-rule:evenodd;stroke:none"
       d="m 121.3625,76.7062 0.0152,-0.0765 0.0434,-0.0649 0.0649,-0.0433 0.0765,-0.0153 h 0.4 l 0.0765,0.0153 0.0649,0.0433 0.0434,0.0649 0.0152,0.0765 v 0.55 l -0.0152,0.0766 -0.0434,0.0649 -0.0649,0.0433 -0.0765,0.0152 h -0.4 l -0.0765,-0.0152 -0.0649,-0.0433 -0.0434,-0.0649 -0.0152,-0.0766 z"
       id="path54" />
    <path
       style="fill:#ffffff;fill-opacity:1;fill-rule:evenodd;stroke:none"
       d="m 123.0125,76.7062 0.0152,-0.0765 0.0434,-0.0649 0.0649,-0.0433 0.0765,-0.0153 h 0.4 l 0.0765,0.0153 0.0649,0.0433 0.0434,0.0649 0.0152,0.0765 v 0.55 l -0.0152,0.0766 -0.0434,0.0649 -0.0649,0.0433 -0.0765,0.0152 h -0.4 l -0.0765,-0.0152 -0.0649,-0.0433 -0.0434,-0.0649 -0.0152,-0.0766 z"
       id="path56" />
    <path
       style="fill:#ffffff;fill-opacity:1;fill-rule:evenodd;stroke:none"
       d="m 128.725,85.05 -0.0957,-0.019 -0.0811,-0.0542 -0.0542,-0.0811 -0.019,-0.0957 v -0.5 l 0.019,-0.0957 0.0542,-0.0811 0.0811,-0.0542 0.0957,-0.019 h 0.95 l 0.0957,0.019 0.0811,0.0542 0.0542,0.0811 0.019,0.0957 v 0.5 l -0.019,0.0957 -0.0542,0.0811 -0.0811,0.0542 -0.0957,0.019 z"
       id="path58" />
    <path
       style="fill:#ffffff;fill-opacity:1;fill-rule:evenodd;stroke:none"
       d="m 128.725,83.15 -0.0957,-0.019 -0.0811,-0.0542 -0.0542,-0.0811 -0.019,-0.0957 v -0.5 l 0.019,-0.0957 0.0542,-0.0811 0.0811,-0.0542 0.0957,-0.019 h 0.95 l 0.0957,0.019 0.0811,0.0542 0.0542,0.0811 0.019,0.0957 v 0.5 l -0.019,0.0957 -0.0542,0.0811 -0.0811,0.0542 -0.0957,0.019 z"
       id="path60" />
    <path
       style="fill:#ffffff;fill-opacity:1;fill-rule:evenodd;stroke:none"
       d="m 121.05,109.25 h -1.7 v -1.7 h 1.7 z"
       id="path62" />
    <circle
       cx="122.74"
       cy="108.4"
       r="0.85000002"
       id="circle64" />
    <circle
       cx="125.28"
       cy="108.4"
       r="0.85000002"
       id="circle66" />
    <circle
       cx="127.82"
       cy="108.4"
       r="0.85000002"
       id="circle68" />
    <circle
       cx="130.36"
       cy="108.4"
       r="0.85000002"
       id="circle70" />
    <circle
       cx="132.89999"
       cy="108.4"
       r="0.85000002"
       id="circle72" />
    <circle
       cx="135.44"
       cy="108.4"
       r="0.85000002"
       id="circle74" />
    <circle
       cx="137.98"
       cy="108.4"
       r="0.85000002"
       id="circle76" />
    <circle
       cx="140.52"
       cy="108.4"
       r="0.85000002"
       id="circle78" />
    <circle
       cx="143.06"
       cy="108.4"
       r="0.85000002"
       id="circle80" />
    <circle
       cx="145.60001"
       cy="108.4"
       r="0.85000002"
       id="circle82" />
    <circle
       cx="148.14"
       cy="108.4"
       r="0.85000002"
       id="circle84" />
    <path
       style="fill:#ffffff;fill-opacity:1;fill-rule:evenodd;stroke:none"
       d="m 117.65,103.55 v 1.7 h -1.7 v -1.7 z"
       id="path86" />
    <circle
       cx="116.8"
       cy="101.86"
       r="0.85000002"
       id="circle88" />
    <circle
       cx="116.8"
       cy="99.32"
       r="0.85000002"
       id="circle90" />
    <circle
       cx="116.8"
       cy="96.779999"
       r="0.85000002"
       id="circle92" />
    <circle
       cx="116.8"
       cy="94.239998"
       r="0.85000002"
       id="circle94" />
    <circle
       cx="116.8"
       cy="91.699997"
       r="0.85000002"
       id="circle96" />
    <circle
       cx="116.8"
       cy="89.160004"
       r="0.85000002"
       id="circle98" />
    <circle
       cx="116.8"
       cy="86.620003"
       r="0.85000002"
       id="circle100" />
    <circle
       cx="116.8"
       cy="84.080002"
       r="0.85000002"
       id="circle102" />
    <circle
       cx="116.8"
       cy="81.540001"
       r="0.85000002"
       id="circle104" />
    <circle
       cx="116.8"
       cy="79"
       r="0.85000002"
       id="circle106" />
    <circle
       cx="116.8"
       cy="76.459999"
       r="0.85000002"
       id="circle108" />
    <path
       style="fill:#ffffff;fill-opacity:1;fill-rule:evenodd;stroke:none"
       d="m 123.8125,79.2375 -0.0167,0.0837 -0.0474,0.071 -0.0709,0.0474 -0.0837,0.0166 h -0.4376 l -0.0837,-0.0166 -0.0709,-0.0474 -0.0474,-0.071 -0.0167,-0.0837 V 78.725 l 0.0167,-0.0837 0.0474,-0.071 0.0709,-0.0474 0.0837,-0.0167 h 0.4376 l 0.0837,0.0167 0.0709,0.0474 0.0474,0.071 0.0167,0.0837 z"
       id="path110" />
    <path
       style="fill:#ffffff;fill-opacity:1;fill-rule:evenodd;stroke:none"
       d="m 122.2375,79.2375 -0.0167,0.0837 -0.0474,0.071 -0.0709,0.0474 -0.0838,0.0166 h -0.4375 l -0.0837,-0.0166 -0.0709,-0.0474 -0.0474,-0.071 -0.0167,-0.0837 V 78.725 l 0.0167,-0.0837 0.0474,-0.071 0.0709,-0.0474 0.0837,-0.0167 h 0.4375 l 0.0838,0.0167 0.0709,0.0474 0.0474,0.071 0.0167,0.0837 z"
       id="path112" />
    <path
       style="fill:#ffffff;fill-opacity:1;fill-rule:evenodd;stroke:none"
       d="m 157.65,84.75 v 1.7 h -1.7 v -1.7 z"
       id="path114" />
    <circle
       cx="156.8"
       cy="83.059998"
       r="0.85000002"
       id="circle116" />
    <circle
       cx="156.8"
       cy="80.519997"
       r="0.85000002"
       id="circle118" />
    <circle
       cx="156.8"
       cy="77.980003"
       r="0.85000002"
       id="circle120" />
    <path
       style="fill:#ffffff;fill-opacity:1;fill-rule:evenodd;stroke:none"
       d="m 120.275,92.975 0.0765,0.0152 0.0649,0.0434 0.0434,0.0649 0.0152,0.0765 v 0.4 l -0.0152,0.0765 -0.0434,0.0649 -0.0649,0.0434 -0.0765,0.0152 h -0.55 l -0.0765,-0.0152 -0.0649,-0.0434 -0.0434,-0.0649 -0.0152,-0.0765 v -0.4 l 0.0152,-0.0765 0.0434,-0.0649 0.0649,-0.0434 0.0765,-0.0152 z"
       id="path122" />
    <path
       style="fill:#ffffff;fill-opacity:1;fill-rule:evenodd;stroke:none"
       d="m 120.275,94.625 0.0765,0.0152 0.0649,0.0434 0.0434,0.0649 0.0152,0.0765 v 0.4 l -0.0152,0.0765 -0.0434,0.0649 -0.0649,0.0434 -0.0765,0.0152 h -0.55 l -0.0765,-0.0152 -0.0649,-0.0434 -0.0434,-0.0649 -0.0152,-0.0765 v -0.4 l 0.0152,-0.0765 0.0434,-0.0649 0.0649,-0.0434 0.0765,-0.0152 z"
       id="path124" />
    <path
       style="fill:#ffffff;fill-opacity:1;fill-rule:evenodd;stroke:none"
       d="m 129.3,87.4 0.006,-0.0287 0.0163,-0.0243 0.0243,-0.0163 0.0287,-0.0057 h 1.325 l 0.0287,0.0057 0.0243,0.0163 0.0163,0.0243 0.006,0.0287 v 0.15 l -0.006,0.0287 -0.0163,0.0243 -0.0243,0.0163 -0.0287,0.0057 h -1.325 L 129.3463,87.6193 129.322,87.603 129.3057,87.5787 129.3,87.55 Z"
       id="path126" />
    <path
       style="fill:#ffffff;fill-opacity:1;fill-rule:evenodd;stroke:none"
       d="m 129.3,87.9 0.006,-0.0287 0.0163,-0.0243 0.0243,-0.0163 0.0287,-0.0057 h 1.325 l 0.0287,0.0057 0.0243,0.0163 0.0163,0.0243 0.006,0.0287 v 0.15 l -0.006,0.0287 -0.0163,0.0243 -0.0243,0.0163 -0.0287,0.0057 h -1.325 L 129.3463,88.1193 129.322,88.103 129.3057,88.0787 129.3,88.05 Z"
       id="path128" />
    <path
       style="fill:#ffffff;fill-opacity:1;fill-rule:evenodd;stroke:none"
       d="m 129.3,88.4 0.006,-0.0287 0.0163,-0.0243 0.0243,-0.0163 0.0287,-0.0057 h 1.325 l 0.0287,0.0057 0.0243,0.0163 0.0163,0.0243 0.006,0.0287 v 0.15 l -0.006,0.0287 -0.0163,0.0243 -0.0243,0.0163 -0.0287,0.0057 h -1.325 L 129.3463,88.6193 129.322,88.603 129.3057,88.5787 129.3,88.55 Z"
       id="path130" />
    <path
       style="fill:#ffffff;fill-opacity:1;fill-rule:evenodd;stroke:none"
       d="m 129.3,88.9 0.006,-0.0287 0.0163,-0.0243 0.0243,-0.0163 0.0287,-0.0057 h 1.325 l 0.0287,0.0057 0.0243,0.0163 0.0163,0.0243 0.006,0.0287 v 0.15 l -0.006,0.0287 -0.0163,0.0243 -0.0243,0.0163 -0.0287,0.0057 h -1.325 L 129.3463,89.1193 129.322,89.103 129.3057,89.0787 129.3,89.05 Z"
       id="path132" />
    <path
       style="fill:#ffffff;fill-opacity:1;fill-rule:evenodd;stroke:none"
       d="m 129.3,89.4 0.006,-0.0287 0.0163,-0.0243 0.0243,-0.0163 0.0287,-0.0057 h 1.325 l 0.0287,0.0057 0.0243,0.0163 0.0163,0.0243 0.006,0.0287 v 0.15 l -0.006,0.0287 -0.0163,0.0243 -0.0243,0.0163 -0.0287,0.0057 h -1.325 L 129.3463,89.6193 129.322,89.603 129.3057,89.5787 129.3,89.55 Z"
       id="path134" />
    <path
       style="fill:#ffffff;fill-opacity:1;fill-rule:evenodd;stroke:none"
       d="m 129.3,89.9 0.006,-0.0287 0.0163,-0.0243 0.0243,-0.0163 0.0287,-0.0057 h 1.325 l 0.0287,0.0057 0.0243,0.0163 0.0163,0.0243 0.006,0.0287 v 0.15 l -0.006,0.0287 -0.0163,0.0243 -0.0243,0.0163 -0.0287,0.0057 h -1.325 L 129.3463,90.1193 129.322,90.103 129.3057,90.0787 129.3,90.05 Z"
       id="path136" />
    <path
       style="fill:#ffffff;fill-opacity:1;fill-rule:evenodd;stroke:none"
       d="m 129.3,90.4 0.006,-0.0287 0.0163,-0.0243 0.0243,-0.0163 0.0287,-0.0057 h 1.325 l 0.0287,0.0057 0.0243,0.0163 0.0163,0.0243 0.006,0.0287 v 0.15 l -0.006,0.0287 -0.0163,0.0243 -0.0243,0.0163 -0.0287,0.0057 h -1.325 L 129.3463,90.6193 129.322,90.603 129.3057,90.5787 129.3,90.55 Z"
       id="path138" />
    <path
       style="fill:#ffffff;fill-opacity:1;fill-rule:evenodd;stroke:none"
       d="m 129.3,90.9 0.006,-0.0287 0.0163,-0.0243 0.0243,-0.0163 0.0287,-0.0057 h 1.325 l 0.0287,0.0057 0.0243,0.0163 0.0163,0.0243 0.006,0.0287 v 0.15 l -0.006,0.0287 -0.0163,0.0243 -0.0243,0.0163 -0.0287,0.0057 h -1.325 L 129.3463,91.1193 129.322,91.103 129.3057,91.0787 129.3,91.05 Z"
       id="path140" />
    <path
       style="fill:#ffffff;fill-opacity:1;fill-rule:evenodd;stroke:none"
       d="m 129.3,91.4 0.006,-0.0287 0.0163,-0.0243 0.0243,-0.0163 0.0287,-0.0057 h 1.325 l 0.0287,0.0057 0.0243,0.0163 0.0163,0.0243 0.006,0.0287 v 0.15 l -0.006,0.0287 -0.0163,0.0243 -0.0243,0.0163 -0.0287,0.0057 h -1.325 L 129.3463,91.6193 129.322,91.603 129.3057,91.5787 129.3,91.55 Z"
       id="path142" />
    <path
       style="fill:#ffffff;fill-opacity:1;fill-rule:evenodd;stroke:none"
       d="m 129.3,91.9 0.006,-0.0287 0.0163,-0.0243 0.0243,-0.0163 0.0287,-0.0057 h 1.325 l 0.0287,0.0057 0.0243,0.0163 0.0163,0.0243 0.006,0.0287 v 0.15 l -0.006,0.0287 -0.0163,0.0243 -0.0243,0.0163 -0.0287,0.0057 h -1.325 L 129.3463,92.1193 129.322,92.103 129.3057,92.0787 129.3,92.05 Z"
       id="path144" />
    <path
       style="fill:#ffffff;fill-opacity:1;fill-rule:evenodd;stroke:none"
       d="m 129.3,92.4 0.006,-0.0287 0.0163,-0.0243 0.0243,-0.0163 0.0287,-0.0057 h 1.325 l 0.0287,0.0057 0.0243,0.0163 0.0163,0.0243 0.006,0.0287 v 0.15 l -0.006,0.0287 -0.0163,0.0243 -0.0243,0.0163 -0.0287,0.0057 h -1.325 L 129.3463,92.6193 129.322,92.603 129.3057,92.5787 129.3,92.55 Z"
       id="path146" />
    <path
       style="fill:#ffffff;fill-opacity:1;fill-rule:evenodd;stroke:none"
       d="m 129.3,92.9 0.006,-0.0287 0.0163,-0.0243 0.0243,-0.0163 0.0287,-0.0057 h 1.325 l 0.0287,0.0057 0.0243,0.0163 0.0163,0.0243 0.006,0.0287 v 0.15 l -0.006,0.0287 -0.0163,0.0243 -0.0243,0.0163 -0.0287,0.0057 h -1.325 L 129.3463,93.1193 129.322,93.103 129.3057,93.0787 129.3,93.05 Z"
       id="path148" />
    <path
       style="fill:#ffffff;fill-opacity:1;fill-rule:evenodd;stroke:none"
       d="m 131.3,93.725 0.006,-0.0287 0.0163,-0.0243 0.0243,-0.0163 0.0287,-0.0057 h 0.15 l 0.0287,0.0057 0.0243,0.0163 0.0163,0.0243 0.006,0.0287 v 1.325 l -0.006,0.0287 -0.0163,0.0243 -0.0243,0.0163 -0.0287,0.0057 h -0.15 L 131.3463,95.1193 131.322,95.103 131.3057,95.0787 131.3,95.05 Z"
       id="path150" />
    <path
       style="fill:#ffffff;fill-opacity:1;fill-rule:evenodd;stroke:none"
       d="m 131.8,93.725 0.006,-0.0287 0.0163,-0.0243 0.0243,-0.0163 0.0287,-0.0057 h 0.15 l 0.0287,0.0057 0.0243,0.0163 0.0163,0.0243 0.006,0.0287 v 1.325 l -0.006,0.0287 -0.0163,0.0243 -0.0243,0.0163 -0.0287,0.0057 h -0.15 L 131.8463,95.1193 131.822,95.103 131.8057,95.0787 131.8,95.05 Z"
       id="path152" />
    <path
       style="fill:#ffffff;fill-opacity:1;fill-rule:evenodd;stroke:none"
       d="m 132.3,93.725 0.006,-0.0287 0.0163,-0.0243 0.0243,-0.0163 0.0287,-0.0057 h 0.15 l 0.0287,0.0057 0.0243,0.0163 0.0163,0.0243 0.006,0.0287 v 1.325 l -0.006,0.0287 -0.0163,0.0243 -0.0243,0.0163 -0.0287,0.0057 h -0.15 L 132.3463,95.1193 132.322,95.103 132.3057,95.0787 132.3,95.05 Z"
       id="path154" />
    <path
       style="fill:#ffffff;fill-opacity:1;fill-rule:evenodd;stroke:none"
       d="m 132.8,93.725 0.006,-0.0287 0.0163,-0.0243 0.0243,-0.0163 0.0287,-0.0057 h 0.15 l 0.0287,0.0057 0.0243,0.0163 0.0163,0.0243 0.006,0.0287 v 1.325 l -0.006,0.0287 -0.0163,0.0243 -0.0243,0.0163 -0.0287,0.0057 h -0.15 L 132.8463,95.1193 132.822,95.103 132.8057,95.0787 132.8,95.05 Z"
       id="path156" />
    <path
       style="fill:#ffffff;fill-opacity:1;fill-rule:evenodd;stroke:none"
       d="m 133.3,93.725 0.006,-0.0287 0.0163,-0.0243 0.0243,-0.0163 0.0287,-0.0057 h 0.15 l 0.0287,0.0057 0.0243,0.0163 0.0163,0.0243 0.006,0.0287 v 1.325 l -0.006,0.0287 -0.0163,0.0243 -0.0243,0.0163 -0.0287,0.0057 h -0.15 L 133.3463,95.1193 133.322,95.103 133.3057,95.0787 133.3,95.05 Z"
       id="path158" />
    <path
       style="fill:#ffffff;fill-opacity:1;fill-rule:evenodd;stroke:none"
       d="m 133.8,93.725 0.006,-0.0287 0.0163,-0.0243 0.0243,-0.0163 0.0287,-0.0057 h 0.15 l 0.0287,0.0057 0.0243,0.0163 0.0163,0.0243 0.006,0.0287 v 1.325 l -0.006,0.0287 -0.0163,0.0243 -0.0243,0.0163 -0.0287,0.0057 h -0.15 L 133.8463,95.1193 133.822,95.103 133.8057,95.0787 133.8,95.05 Z"
       id="path160" />
    <path
       style="fill:#ffffff;fill-opacity:1;fill-rule:evenodd;stroke:none"
       d="m 134.3,93.725 0.006,-0.0287 0.0163,-0.0243 0.0243,-0.0163 0.0287,-0.0057 h 0.15 l 0.0287,0.0057 0.0243,0.0163 0.0163,0.0243 0.006,0.0287 v 1.325 l -0.006,0.0287 -0.0163,0.0243 -0.0243,0.0163 -0.0287,0.0057 h -0.15 L 134.3463,95.1193 134.322,95.103 134.3057,95.0787 134.3,95.05 Z"
       id="path162" />
    <path
       style="fill:#ffffff;fill-opacity:1;fill-rule:evenodd;stroke:none"
       d="m 134.8,93.725 0.006,-0.0287 0.0163,-0.0243 0.0243,-0.0163 0.0287,-0.0057 h 0.15 l 0.0287,0.0057 0.0243,0.0163 0.0163,0.0243 0.006,0.0287 v 1.325 l -0.006,0.0287 -0.0163,0.0243 -0.0243,0.0163 -0.0287,0.0057 h -0.15 L 134.8463,95.1193 134.822,95.103 134.8057,95.0787 134.8,95.05 Z"
       id="path164" />
    <path
       style="fill:#ffffff;fill-opacity:1;fill-rule:evenodd;stroke:none"
       d="m 135.3,93.725 0.006,-0.0287 0.0163,-0.0243 0.0243,-0.0163 0.0287,-0.0057 h 0.15 l 0.0287,0.0057 0.0243,0.0163 0.0163,0.0243 0.006,0.0287 v 1.325 l -0.006,0.0287 -0.0163,0.0243 -0.0243,0.0163 -0.0287,0.0057 h -0.15 L 135.3463,95.1193 135.322,95.103 135.3057,95.0787 135.3,95.05 Z"
       id="path166" />
    <path
       style="fill:#ffffff;fill-opacity:1;fill-rule:evenodd;stroke:none"
       d="m 135.8,93.725 0.006,-0.0287 0.0163,-0.0243 0.0243,-0.0163 0.0287,-0.0057 h 0.15 l 0.0287,0.0057 0.0243,0.0163 0.0163,0.0243 0.006,0.0287 v 1.325 l -0.006,0.0287 -0.0163,0.0243 -0.0243,0.0163 -0.0287,0.0057 h -0.15 L 135.8463,95.1193 135.822,95.103 135.8057,95.0787 135.8,95.05 Z"
       id="path168" />
    <path
       style="fill:#ffffff;fill-opacity:1;fill-rule:evenodd;stroke:none"
       d="m 136.3,93.725 0.006,-0.0287 0.0163,-0.0243 0.0243,-0.0163 0.0287,-0.0057 h 0.15 l 0.0287,0.0057 0.0243,0.0163 0.0163,0.0243 0.006,0.0287 v 1.325 l -0.006,0.0287 -0.0163,0.0243 -0.0243,0.0163 -0.0287,0.0057 h -0.15 L 136.3463,95.1193 136.322,95.103 136.3057,95.0787 136.3,95.05 Z"
       id="path170" />
    <path
       style="fill:#ffffff;fill-opacity:1;fill-rule:evenodd;stroke:none"
       d="m 136.8,93.725 0.006,-0.0287 0.0163,-0.0243 0.0243,-0.0163 0.0287,-0.0057 h 0.15 l 0.0287,0.0057 0.0243,0.0163 0.0163,0.0243 0.006,0.0287 v 1.325 l -0.006,0.0287 -0.0163,0.0243 -0.0243,0.0163 -0.0287,0.0057 h -0.15 L 136.8463,95.1193 136.822,95.103 136.8057,95.0787 136.8,95.05 Z"
       id="path172" />
    <path
       style="fill:#ffffff;fill-opacity:1;fill-rule:evenodd;stroke:none"
       d="m 137.625,92.9 0.006,-0.0287 0.0163,-0.0243 0.0243,-0.0163 0.0287,-0.0057 h 1.325 l 0.0287,0.0057 0.0243,0.0163 0.0163,0.0243 0.006,0.0287 v 0.15 l -0.006,0.0287 -0.0163,0.0243 -0.0243,0.0163 -0.0287,0.0057 H 137.7 l -0.0287,-0.0057 -0.0243,-0.0163 -0.0163,-0.0243 -0.006,-0.0287 z"
       id="path174" />
    <path
       style="fill:#ffffff;fill-opacity:1;fill-rule:evenodd;stroke:none"
       d="m 137.625,92.4 0.006,-0.0287 0.0163,-0.0243 0.0243,-0.0163 0.0287,-0.0057 h 1.325 l 0.0287,0.0057 0.0243,0.0163 0.0163,0.0243 0.006,0.0287 v 0.15 l -0.006,0.0287 -0.0163,0.0243 -0.0243,0.0163 -0.0287,0.0057 H 137.7 l -0.0287,-0.0057 -0.0243,-0.0163 -0.0163,-0.0243 -0.006,-0.0287 z"
       id="path176" />
    <path
       style="fill:#ffffff;fill-opacity:1;fill-rule:evenodd;stroke:none"
       d="m 137.625,91.9 0.006,-0.0287 0.0163,-0.0243 0.0243,-0.0163 0.0287,-0.0057 h 1.325 l 0.0287,0.0057 0.0243,0.0163 0.0163,0.0243 0.006,0.0287 v 0.15 l -0.006,0.0287 -0.0163,0.0243 -0.0243,0.0163 -0.0287,0.0057 H 137.7 l -0.0287,-0.0057 -0.0243,-0.0163 -0.0163,-0.0243 -0.006,-0.0287 z"
       id="path178" />
    <path
       style="fill:#ffffff;fill-opacity:1;fill-rule:evenodd;stroke:none"
       d="m 137.625,91.4 0.006,-0.0287 0.0163,-0.0243 0.0243,-0.0163 0.0287,-0.0057 h 1.325 l 0.0287,0.0057 0.0243,0.0163 0.0163,0.0243 0.006,0.0287 v 0.15 l -0.006,0.0287 -0.0163,0.0243 -0.0243,0.0163 -0.0287,0.0057 H 137.7 l -0.0287,-0.0057 -0.0243,-0.0163 -0.0163,-0.0243 -0.006,-0.0287 z"
       id="path180" />
    <path
       style="fill:#ffffff;fill-opacity:1;fill-rule:evenodd;stroke:none"
       d="m 137.625,90.9 0.006,-0.0287 0.0163,-0.0243 0.0243,-0.0163 0.0287,-0.0057 h 1.325 l 0.0287,0.0057 0.0243,0.0163 0.0163,0.0243 0.006,0.0287 v 0.15 l -0.006,0.0287 -0.0163,0.0243 -0.0243,0.0163 -0.0287,0.0057 H 137.7 l -0.0287,-0.0057 -0.0243,-0.0163 -0.0163,-0.0243 -0.006,-0.0287 z"
       id="path182" />
    <path
       style="fill:#ffffff;fill-opacity:1;fill-rule:evenodd;stroke:none"
       d="m 137.625,90.4 0.006,-0.0287 0.0163,-0.0243 0.0243,-0.0163 0.0287,-0.0057 h 1.325 l 0.0287,0.0057 0.0243,0.0163 0.0163,0.0243 0.006,0.0287 v 0.15 l -0.006,0.0287 -0.0163,0.0243 -0.0243,0.0163 -0.0287,0.0057 H 137.7 l -0.0287,-0.0057 -0.0243,-0.0163 -0.0163,-0.0243 -0.006,-0.0287 z"
       id="path184" />
    <path
       style="fill:#ffffff;fill-opacity:1;fill-rule:evenodd;stroke:none"
       d="m 137.625,89.9 0.006,-0.0287 0.0163,-0.0243 0.0243,-0.0163 0.0287,-0.0057 h 1.325 l 0.0287,0.0057 0.0243,0.0163 0.0163,0.0243 0.006,0.0287 v 0.15 l -0.006,0.0287 -0.0163,0.0243 -0.0243,0.0163 -0.0287,0.0057 H 137.7 l -0.0287,-0.0057 -0.0243,-0.0163 -0.0163,-0.0243 -0.006,-0.0287 z"
       id="path186" />
    <path
       style="fill:#ffffff;fill-opacity:1;fill-rule:evenodd;stroke:none"
       d="m 137.625,89.4 0.006,-0.0287 0.0163,-0.0243 0.0243,-0.0163 0.0287,-0.0057 h 1.325 l 0.0287,0.0057 0.0243,0.0163 0.0163,0.0243 0.006,0.0287 v 0.15 l -0.006,0.0287 -0.0163,0.0243 -0.0243,0.0163 -0.0287,0.0057 H 137.7 l -0.0287,-0.0057 -0.0243,-0.0163 -0.0163,-0.0243 -0.006,-0.0287 z"
       id="path188" />
    <path
       style="fill:#ffffff;fill-opacity:1;fill-rule:evenodd;stroke:none"
       d="m 137.625,88.9 0.006,-0.0287 0.0163,-0.0243 0.0243,-0.0163 0.0287,-0.0057 h 1.325 l 0.0287,0.0057 0.0243,0.0163 0.0163,0.0243 0.006,0.0287 v 0.15 l -0.006,0.0287 -0.0163,0.0243 -0.0243,0.0163 -0.0287,0.0057 H 137.7 l -0.0287,-0.0057 -0.0243,-0.0163 -0.0163,-0.0243 -0.006,-0.0287 z"
       id="path190" />
    <path
       style="fill:#ffffff;fill-opacity:1;fill-rule:evenodd;stroke:none"
       d="m 137.625,88.4 0.006,-0.0287 0.0163,-0.0243 0.0243,-0.0163 0.0287,-0.0057 h 1.325 l 0.0287,0.0057 0.0243,0.0163 0.0163,0.0243 0.006,0.0287 v 0.15 l -0.006,0.0287 -0.0163,0.0243 -0.0243,0.0163 -0.0287,0.0057 H 137.7 l -0.0287,-0.0057 -0.0243,-0.0163 -0.0163,-0.0243 -0.006,-0.0287 z"
       id="path192" />
    <path
       style="fill:#ffffff;fill-opacity:1;fill-rule:evenodd;stroke:none"
       d="m 137.625,87.9 0.006,-0.0287 0.0163,-0.0243 0.0243,-0.0163 0.0287,-0.0057 h 1.325 l 0.0287,0.0057 0.0243,0.0163 0.0163,0.0243 0.006,0.0287 v 0.15 l -0.006,0.0287 -0.0163,0.0243 -0.0243,0.0163 -0.0287,0.0057 H 137.7 l -0.0287,-0.0057 -0.0243,-0.0163 -0.0163,-0.0243 -0.006,-0.0287 z"
       id="path194" />
    <path
       style="fill:#ffffff;fill-opacity:1;fill-rule:evenodd;stroke:none"
       d="m 137.625,87.4 0.006,-0.0287 0.0163,-0.0243 0.0243,-0.0163 0.0287,-0.0057 h 1.325 l 0.0287,0.0057 0.0243,0.0163 0.0163,0.0243 0.006,0.0287 v 0.15 l -0.006,0.0287 -0.0163,0.0243 -0.0243,0.0163 -0.0287,0.0057 H 137.7 l -0.0287,-0.0057 -0.0243,-0.0163 -0.0163,-0.0243 -0.006,-0.0287 z"
       id="path196" />
    <path
       style="fill:#ffffff;fill-opacity:1;fill-rule:evenodd;stroke:none"
       d="m 136.8,85.4 0.006,-0.0287 0.0163,-0.0243 0.0243,-0.0163 0.0287,-0.0057 h 0.15 l 0.0287,0.0057 0.0243,0.0163 0.0163,0.0243 0.006,0.0287 v 1.325 l -0.006,0.0287 -0.0163,0.0243 -0.0243,0.0163 -0.0287,0.0057 h -0.15 L 136.8463,86.7943 136.822,86.778 136.8057,86.7537 136.8,86.725 Z"
       id="path198" />
    <path
       style="fill:#ffffff;fill-opacity:1;fill-rule:evenodd;stroke:none"
       d="m 136.3,85.4 0.006,-0.0287 0.0163,-0.0243 0.0243,-0.0163 0.0287,-0.0057 h 0.15 l 0.0287,0.0057 0.0243,0.0163 0.0163,0.0243 0.006,0.0287 v 1.325 l -0.006,0.0287 -0.0163,0.0243 -0.0243,0.0163 -0.0287,0.0057 h -0.15 L 136.3463,86.7943 136.322,86.778 136.3057,86.7537 136.3,86.725 Z"
       id="path200" />
    <path
       style="fill:#ffffff;fill-opacity:1;fill-rule:evenodd;stroke:none"
       d="m 135.8,85.4 0.006,-0.0287 0.0163,-0.0243 0.0243,-0.0163 0.0287,-0.0057 h 0.15 l 0.0287,0.0057 0.0243,0.0163 0.0163,0.0243 0.006,0.0287 v 1.325 l -0.006,0.0287 -0.0163,0.0243 -0.0243,0.0163 -0.0287,0.0057 h -0.15 L 135.8463,86.7943 135.822,86.778 135.8057,86.7537 135.8,86.725 Z"
       id="path202" />
    <path
       style="fill:#ffffff;fill-opacity:1;fill-rule:evenodd;stroke:none"
       d="m 135.3,85.4 0.006,-0.0287 0.0163,-0.0243 0.0243,-0.0163 0.0287,-0.0057 h 0.15 l 0.0287,0.0057 0.0243,0.0163 0.0163,0.0243 0.006,0.0287 v 1.325 l -0.006,0.0287 -0.0163,0.0243 -0.0243,0.0163 -0.0287,0.0057 h -0.15 L 135.3463,86.7943 135.322,86.778 135.3057,86.7537 135.3,86.725 Z"
       id="path204" />
    <path
       style="fill:#ffffff;fill-opacity:1;fill-rule:evenodd;stroke:none"
       d="m 134.8,85.4 0.006,-0.0287 0.0163,-0.0243 0.0243,-0.0163 0.0287,-0.0057 h 0.15 l 0.0287,0.0057 0.0243,0.0163 0.0163,0.0243 0.006,0.0287 v 1.325 l -0.006,0.0287 -0.0163,0.0243 -0.0243,0.0163 -0.0287,0.0057 h -0.15 L 134.8463,86.7943 134.822,86.778 134.8057,86.7537 134.8,86.725 Z"
       id="path206" />
    <path
       style="fill:#ffffff;fill-opacity:1;fill-rule:evenodd;stroke:none"
       d="m 134.3,85.4 0.006,-0.0287 0.0163,-0.0243 0.0243,-0.0163 0.0287,-0.0057 h 0.15 l 0.0287,0.0057 0.0243,0.0163 0.0163,0.0243 0.006,0.0287 v 1.325 l -0.006,0.0287 -0.0163,0.0243 -0.0243,0.0163 -0.0287,0.0057 h -0.15 L 134.3463,86.7943 134.322,86.778 134.3057,86.7537 134.3,86.725 Z"
       id="path208" />
    <path
       style="fill:#ffffff;fill-opacity:1;fill-rule:evenodd;stroke:none"
       d="m 133.8,85.4 0.006,-0.0287 0.0163,-0.0243 0.0243,-0.0163 0.0287,-0.0057 h 0.15 l 0.0287,0.0057 0.0243,0.0163 0.0163,0.0243 0.006,0.0287 v 1.325 l -0.006,0.0287 -0.0163,0.0243 -0.0243,0.0163 -0.0287,0.0057 h -0.15 L 133.8463,86.7943 133.822,86.778 133.8057,86.7537 133.8,86.725 Z"
       id="path210" />
    <path
       style="fill:#ffffff;fill-opacity:1;fill-rule:evenodd;stroke:none"
       d="m 133.3,85.4 0.006,-0.0287 0.0163,-0.0243 0.0243,-0.0163 0.0287,-0.0057 h 0.15 l 0.0287,0.0057 0.0243,0.0163 0.0163,0.0243 0.006,0.0287 v 1.325 l -0.006,0.0287 -0.0163,0.0243 -0.0243,0.0163 -0.0287,0.0057 h -0.15 L 133.3463,86.7943 133.322,86.778 133.3057,86.7537 133.3,86.725 Z"
       id="path212" />
    <path
       style="fill:#ffffff;fill-opacity:1;fill-rule:evenodd;stroke:none"
       d="m 132.8,85.4 0.006,-0.0287 0.0163,-0.0243 0.0243,-0.0163 0.0287,-0.0057 h 0.15 l 0.0287,0.0057 0.0243,0.0163 0.0163,0.0243 0.006,0.0287 v 1.325 l -0.006,0.0287 -0.0163,0.0243 -0.0243,0.0163 -0.0287,0.0057 h -0.15 L 132.8463,86.7943 132.822,86.778 132.8057,86.7537 132.8,86.725 Z"
       id="path214" />
    <path
       style="fill:#ffffff;fill-opacity:1;fill-rule:evenodd;stroke:none"
       d="m 132.3,85.4 0.006,-0.0287 0.0163,-0.0243 0.0243,-0.0163 0.0287,-0.0057 h 0.15 l 0.0287,0.0057 0.0243,0.0163 0.0163,0.0243 0.006,0.0287 v 1.325 l -0.006,0.0287 -0.0163,0.0243 -0.0243,0.0163 -0.0287,0.0057 h -0.15 L 132.3463,86.7943 132.322,86.778 132.3057,86.7537 132.3,86.725 Z"
       id="path216" />
    <path
       style="fill:#ffffff;fill-opacity:1;fill-rule:evenodd;stroke:none"
       d="m 131.8,85.4 0.006,-0.0287 0.0163,-0.0243 0.0243,-0.0163 0.0287,-0.0057 h 0.15 l 0.0287,0.0057 0.0243,0.0163 0.0163,0.0243 0.006,0.0287 v 1.325 l -0.006,0.0287 -0.0163,0.0243 -0.0243,0.0163 -0.0287,0.0057 h -0.15 L 131.8463,86.7943 131.822,86.778 131.8057,86.7537 131.8,86.725 Z"
       id="path218" />
    <path
       style="fill:#ffffff;fill-opacity:1;fill-rule:evenodd;stroke:none"
       d="m 131.3,85.4 0.006,-0.0287 0.0163,-0.0243 0.0243,-0.0163 0.0287,-0.0057 h 0.15 l 0.0287,0.0057 0.0243,0.0163 0.0163,0.0243 0.006,0.0287 v 1.325 l -0.006,0.0287 -0.0163,0.0243 -0.0243,0.0163 -0.0287,0.0057 h -0.15 L 131.3463,86.7943 131.322,86.778 131.3057,86.7537 131.3,86.725 Z"
       id="path220" />
    <path
       style="fill:#ffffff;fill-opacity:1;fill-rule:evenodd;stroke:none"
       d="m 153.45,103.75 v 1.7 h -1.7 v -1.7 z"
       id="path222" />
    <circle
       cx="152.60001"
       cy="102.06"
       r="0.85000002"
       id="circle224" />
    <circle
       cx="152.60001"
       cy="99.519997"
       r="0.85000002"
       id="circle226" />
    <circle
       cx="152.60001"
       cy="96.980003"
       r="0.85000002"
       id="circle228" />
    <circle
       cx="152.60001"
       cy="94.440002"
       r="0.85000002"
       id="circle230" />
    <circle
       cx="152.60001"
       cy="91.900002"
       r="0.85000002"
       id="circle232" />
    <circle
       cx="152.60001"
       cy="89.360001"
       r="0.85000002"
       id="circle234" />
    <circle
       cx="152.60001"
       cy="86.82"
       r="0.85000002"
       id="circle236" />
    <circle
       cx="152.60001"
       cy="84.279999"
       r="0.85000002"
       id="circle238" />
    <circle
       cx="152.60001"
       cy="81.739998"
       r="0.85000002"
       id="circle240" />
    <circle
       cx="152.60001"
       cy="79.199997"
       r="0.85000002"
       id="circle242" />
    <circle
       cx="152.60001"
       cy="76.660004"
       r="0.85000002"
       id="circle244" />
    <circle
       cx="120.27"
       cy="79.93"
       r="0.75"
       id="circle246" />
  </g>
  <g
     style="fill:#ffffff;fill-opacity:1;stroke:none"
     id="g252">
    <circle
       cx="146.0125"
       cy="80.862503"
       r="0.75"
       id="circle250" />
  </g>
  <g
     style="fill:#ffffff;fill-opacity:1;stroke:none"
     id="g256">
    <circle
       cx="146.10001"
       cy="102.875"
       r="0.75"
       id="circle254" />
  </g>
  <g
     style="fill:#ffffff;fill-opacity:1;stroke:none"
     id="g260">
    <circle
       cx="119.8"
       cy="97"
       r="0.75"
       id="circle258" />
  </g>
  <g
     style="fill:none;stroke:#ffffff;stroke-width:0.3;stroke-linecap:round;stroke-linejoin:round;stroke-opacity:1"
     id="g290">
    <path
       d="M 118.555,95.025 116.8,96.78"
       id="path262" />
    <path
       d="M 124.8,94.9373 V 93.75"
       id="path264" />
    <path
       d="m 127.6125,83.75 0.8,0.8"
       id="path266" />
    <path
       d="m 140.3,97.1 h 0.025"
       id="path268" />
    <path
       d="m 120,95.025 h -1.445"
       id="path270" />
    <path
       d="m 152.4,108.4 h -4.26"
       id="path272" />
    <path
       d="m 126.8,84.4 3.05,3.05"
       id="path274" />
    <path
       d="M 125.65,93.75 H 124.8"
       id="path276" />
    <path
       d="M 123.3373,96.4 124.8,94.9373"
       id="path278" />
    <path
       d="m 146.1,102.875 0.4125,0.4125"
       id="path280" />
    <path
       d="m 140.325,97.1 5.775,5.775"
       id="path282" />
    <path
       d="m 145.275,81.6 0.7375,-0.7375"
       id="path284" />
    <path
       d="m 139.4,87.475 5.8875,-5.8875"
       id="path286" />
    <path
       d="M 137.5625,94.3625 140.3,97.1"
       id="path288" />
  </g>
  <g
     style="fill:none;stroke:#ffffff;stroke-width:0.2;stroke-linecap:round;stroke-linejoin:round;stroke-opacity:1"
     id="g294">
    <path
       d="m 120.42,72.8 v 0.04"
       id="path292" />
  </g>
  <g
     style="fill:none;stroke:#ffffff;stroke-width:0.3;stroke-linecap:round;stroke-linejoin:round;stroke-opacity:1"
     id="g370">
    <path
       d="M 120,95.025 V 96.8"
       id="path296" />
    <path
       d="m 132.975,91.45 h 1.9031"
       id="path298" />
    <path
       d="m 145.3,81.575 h -0.025"
       id="path300" />
    <path
       d="M 150.215,76.66 H 152.6"
       id="path302" />
    <path
       d="m 120,95.025 1.375,1.375"
       id="path304" />
    <path
       d="M 131.45,86.0375 V 85.45"
       id="path306" />
    <path
       d="M 130.0375,91.45 H 127.95"
       id="path308" />
    <path
       d="M 156.8,88.175 V 104"
       id="path310" />
    <path
       d="m 136.95,94.3625 h 0.6125"
       id="path312" />
    <path
       d="m 130.0375,91.45 h 2.9375"
       id="path314" />
    <path
       d="M 120,96.8 119.8,97"
       id="path316" />
    <path
       d="m 121.375,96.4 h 1.9623"
       id="path318" />
    <path
       d="m 131.45,85.45 -0.9,-0.9"
       id="path320" />
    <path
       d="m 134.8781,91.45 2.0719,2.0719"
       id="path322" />
    <path
       d="M 146.0125,80.8625 150.215,76.66"
       id="path324" />
    <path
       d="M 116.8,76.46 V 74.3"
       id="path326" />
    <path
       d="M 145.2875,81.5875 145.3,81.575"
       id="path328" />
    <path
       d="m 116.8,74.3 1.5,-1.5"
       id="path330" />
    <path
       d="M 130.55,84.55 H 129.2"
       id="path332" />
    <path
       d="m 116.8,76.46 3.47,3.47"
       id="path334" />
    <path
       d="M 148.14,104.915 V 108.4"
       id="path336" />
    <path
       d="M 138.3625,87.475 H 139.4"
       id="path338" />
    <path
       d="m 124.09,83.75 h 2.71"
       id="path340" />
    <path
       d="m 126.8,83.75 h 0.8125"
       id="path342" />
    <path
       d="M 126.8,83.75 V 84.4"
       id="path344" />
    <path
       d="M 145.275,81.575 V 81.6"
       id="path346" />
    <path
       d="m 146.5125,103.2875 1.6275,1.6275"
       id="path348" />
    <path
       d="m 118.3,72.8 h 2.12"
       id="path350" />
    <path
       d="m 156.8,104 -4.4,4.4"
       id="path352" />
    <path
       d="m 156.8,85.6 v 2.575"
       id="path354" />
    <path
       d="m 136.95,93.5219 v 0.8406"
       id="path356" />
    <path
       d="m 129.85,87.45 h 0.1875"
       id="path358" />
    <path
       d="M 128.4125,84.55 H 129.2"
       id="path360" />
    <path
       d="m 120.27,79.93 3.82,3.82"
       id="path362" />
    <path
       d="m 127.95,91.45 -2.3,2.3"
       id="path364" />
    <path
       d="m 136.45,95.9 3.1,3.1"
       id="path366" />
    <path
       d="m 130.0375,90.95 h 0.8406"
       id="path368" />
  </g>
  <g
     style="fill:none;stroke:#ffffff;stroke-width:0.2;stroke-linecap:round;stroke-linejoin:round;stroke-opacity:1"
     id="g376">
    <path
       d="m 140.5,87.975 0.35,-0.35"
       id="path372" />
    <path
       d="m 136.925,88.4 -0.25,0.25"
       id="path374" />
  </g>
  <g
     style="fill:none;stroke:#ffffff;stroke-width:0.3;stroke-linecap:round;stroke-linejoin:round;stroke-opacity:1"
     id="g380">
    <path
       d="M 129.925,82.65 H 129.2"
       id="path378" />
  </g>
  <g
     style="fill:none;stroke:#ffffff;stroke-width:0.2;stroke-linecap:round;stroke-linejoin:round;stroke-opacity:1"
     id="g384">
    <path
       d="m 138.3625,87.975 h -0.7699"
       id="path382" />
  </g>
  <g
     style="fill:none;stroke:#ffffff;stroke-width:0.3;stroke-linecap:round;stroke-linejoin:round;stroke-opacity:1"
     id="g388">
    <path
       d="M 130.0375,90.95 H 125.7"
       id="path386" />
  </g>
  <g
     style="fill:none;stroke:#ffffff;stroke-width:0.2;stroke-linecap:round;stroke-linejoin:round;stroke-opacity:1"
     id="g392">
    <path
       d="m 137.5926,87.975 -0.425,0.425"
       id="path390" />
  </g>
  <g
     style="fill:none;stroke:#ffffff;stroke-width:0.3;stroke-linecap:round;stroke-linejoin:round;stroke-opacity:1"
     id="g398">
    <path
       d="m 125.7,90.95 -0.9,0.9"
       id="path394" />
    <path
       d="M 131.95,86.0375 V 84.675"
       id="path396" />
  </g>
  <g
     style="fill:none;stroke:#ffffff;stroke-width:0.2;stroke-linecap:round;stroke-linejoin:round;stroke-opacity:1"
     id="g402">
    <path
       d="M 138.3625,87.975 H 140.5"
       id="path400" />
  </g>
  <g
     style="fill:none;stroke:#ffffff;stroke-width:0.3;stroke-linecap:round;stroke-linejoin:round;stroke-opacity:1"
     id="g410">
    <path
       d="M 136.45,94.3625 V 95.9"
       id="path404" />
    <path
       d="M 130.8781,90.95 131.95,89.8781"
       id="path406" />
    <path
       d="M 131.95,89.8781 V 86.0375"
       id="path408" />
  </g>
  <g
     style="fill:none;stroke:#ffffff;stroke-width:0.2;stroke-linecap:round;stroke-linejoin:round;stroke-opacity:1"
     id="g414">
    <path
       d="M 137.1676,88.4 H 136.925"
       id="path412" />
  </g>
  <g
     style="fill:none;stroke:#ffffff;stroke-width:0.3;stroke-linecap:round;stroke-linejoin:round;stroke-opacity:1"
     id="g760">
    <path
       d="M 131.95,84.675 129.925,82.65"
       id="path416" />
    <path
       d="m 139.55,99 h 0.775"
       id="path418" />
    <path
       d="m 123,72.8 h -0.04"
       id="path420" />
    <path
       d="M 121.8,78.9813 V 77.0187"
       id="path422" />
    <path
       d="m 121.8,77.0187 -0.0375,-0.0374"
       id="path424" />
    <path
       d="M 148.36,74.065 V 72.8"
       id="path426" />
    <path
       d="m 152.975,72.8 3.825,3.825"
       id="path428" />
    <path
       d="M 136.95,86.0375 V 85.475"
       id="path430" />
    <path
       d="m 136.95,85.475 11.41,-11.41"
       id="path432" />
    <path
       d="m 148.36,72.8 h 4.615"
       id="path434" />
    <path
       d="M 156.8,76.625 V 77.98"
       id="path436" />
    <path
       d="m 141.65,91.45 5.33,5.33"
       id="path438" />
    <path
       d="m 146.98,96.78 h 5.42"
       id="path440" />
    <path
       d="M 138.3625,91.45 H 141.65"
       id="path442" />
    <path
       d="m 152.4,96.78 0.2,0.2"
       id="path444" />
    <path
       d="M 135.95,86.0375 V 83.65"
       id="path446" />
    <path
       d="m 135.95,83.65 7.33,-7.33"
       id="path448" />
    <path
       d="M 143.28,76.32 V 72.8"
       id="path450" />
    <path
       d="M 132.95,86.0375 V 82.025"
       id="path452" />
    <path
       d="M 129.75,74.51 128.04,72.8"
       id="path454" />
    <path
       d="M 129.75,78.825 V 74.51"
       id="path456" />
    <path
       d="m 132.95,82.025 -3.2,-3.2"
       id="path458" />
    <path
       d="M 138.95,92.95 150.6,104.6"
       id="path460" />
    <path
       d="m 150.6,104.6 h 2"
       id="path462" />
    <path
       d="M 138.3625,92.95 H 138.95"
       id="path464" />
    <path
       d="m 139.85,92.45 9.61,9.61"
       id="path466" />
    <path
       d="M 138.3625,92.45 H 139.85"
       id="path468" />
    <path
       d="m 149.46,102.06 h 3.14"
       id="path470" />
    <path
       d="M 132.45,86.0375 V 82.525"
       id="path472" />
    <path
       d="M 128.875,78.95 V 76.675"
       id="path474" />
    <path
       d="M 132.45,82.525 128.875,78.95"
       id="path476" />
    <path
       d="M 128.875,76.675 125.5,73.3"
       id="path478" />
    <path
       d="M 125.5,73.3 V 72.8"
       id="path480" />
    <path
       d="M 133.95,73.63 133.12,72.8"
       id="path482" />
    <path
       d="M 133.95,86.0375 V 73.63"
       id="path484" />
    <path
       d="m 134.45,99.2 0.99,0.99"
       id="path486" />
    <path
       d="m 135.44,100.19 v 8.21"
       id="path488" />
    <path
       d="M 134.45,94.3625 V 99.2"
       id="path490" />
    <path
       d="M 133.95,94.3625 V 107.475"
       id="path492" />
    <path
       d="M 133.025,108.4 H 132.9"
       id="path494" />
    <path
       d="m 133.95,107.475 -0.925,0.925"
       id="path496" />
    <path
       d="M 135.95,94.3625 V 97.6"
       id="path498" />
    <path
       d="m 143.06,104.71 v 3.69"
       id="path500" />
    <path
       d="m 135.95,97.6 7.11,7.11"
       id="path502" />
    <path
       d="m 140.75,91.95 7.37,7.37"
       id="path504" />
    <path
       d="m 152.4,99.32 0.2,0.2"
       id="path506" />
    <path
       d="M 138.3625,91.95 H 140.75"
       id="path508" />
    <path
       d="m 148.12,99.32 h 4.28"
       id="path510" />
    <path
       d="M 140.74,77.66 V 72.8"
       id="path512" />
    <path
       d="m 135.45,82.95 5.29,-5.29"
       id="path514" />
    <path
       d="M 135.45,86.0375 V 82.95"
       id="path516" />
    <path
       d="m 134.95,94.7828 v 0.4203"
       id="path518" />
    <path
       d="M 134.95,95.2031 V 98.575"
       id="path520" />
    <path
       d="m 134.95,98.575 3.23,3.23"
       id="path522" />
    <path
       d="M 138.18,101.805 V 108.2"
       id="path524" />
    <path
       d="m 134.95,94.3625 v 0.4203"
       id="path526" />
    <path
       d="m 138.18,108.2 -0.2,0.2"
       id="path528" />
    <path
       d="M 135.66,80.365 V 72.8"
       id="path530" />
    <path
       d="M 134.45,86.0375 V 81.575"
       id="path532" />
    <path
       d="m 134.45,81.575 1.21,-1.21"
       id="path534" />
    <path
       d="M 134.95,86.0375 V 82.25"
       id="path536" />
    <path
       d="M 138.2,79 V 72.8"
       id="path538" />
    <path
       d="M 134.95,82.25 138.2,79"
       id="path540" />
    <path
       d="m 135.45,98.05 5.07,5.07"
       id="path542" />
    <path
       d="m 135.45,94.3625 v 0.8406"
       id="path544" />
    <path
       d="m 140.52,103.12 v 5.28"
       id="path546" />
    <path
       d="M 135.45,95.2031 V 98.05"
       id="path548" />
    <path
       d="m 143.45,89.95 0.79,-0.79"
       id="path550" />
    <path
       d="m 152.4,89.16 0.2,0.2"
       id="path552" />
    <path
       d="m 144.24,89.16 h 8.16"
       id="path554" />
    <path
       d="M 138.3625,89.95 H 143.45"
       id="path556" />
    <path
       d="M 138.3625,88.95 H 142.25"
       id="path558" />
    <path
       d="m 142.25,88.95 4.67,-4.67"
       id="path560" />
    <path
       d="m 146.92,84.28 h 5.68"
       id="path562" />
    <path
       d="m 143.325,90.45 1.25,1.25"
       id="path564" />
    <path
       d="M 144.575,91.7 H 152.4"
       id="path566" />
    <path
       d="m 152.4,91.7 0.2,0.2"
       id="path568" />
    <path
       d="m 138.3625,90.45 h 4.9625"
       id="path570" />
    <path
       d="M 131.45,94.3625 V 97.05"
       id="path572" />
    <path
       d="M 131.45,97.05 120.2,108.3"
       id="path574" />
    <path
       d="m 120.2,108.3 v 0.1"
       id="path576" />
    <path
       d="M 127.6,92.775 V 93.2"
       id="path578" />
    <path
       d="M 128.425,91.95 127.6,92.775"
       id="path580" />
    <path
       d="M 121.48,99.32 H 116.8"
       id="path582" />
    <path
       d="m 127.6,93.2 -6.12,6.12"
       id="path584" />
    <path
       d="M 130.0375,91.95 H 128.425"
       id="path586" />
    <path
       d="m 133.45,99.025 -3.09,3.09"
       id="path588" />
    <path
       d="M 133.45,94.3625 V 99.025"
       id="path590" />
    <path
       d="M 130.36,102.115 V 108.4"
       id="path592" />
    <path
       d="m 122.74,106.81 v 1.59"
       id="path594" />
    <path
       d="m 131.95,97.6 -9.21,9.21"
       id="path596" />
    <path
       d="M 131.95,94.3625 V 97.6"
       id="path598" />
    <path
       d="M 128.85,94.15 118.6,104.4"
       id="path600" />
    <path
       d="m 128.85,93.15 v 1"
       id="path602" />
    <path
       d="m 129.05,92.95 -0.2,0.2"
       id="path604" />
    <path
       d="m 118.6,104.4 h -1.8"
       id="path606" />
    <path
       d="M 130.0375,92.95 H 129.05"
       id="path608" />
    <path
       d="m 142.95,89.45 2.83,-2.83"
       id="path610" />
    <path
       d="m 145.78,86.62 h 6.62"
       id="path612" />
    <path
       d="M 138.3625,89.45 H 142.95"
       id="path614" />
    <path
       d="m 152.4,86.62 0.2,0.2"
       id="path616" />
    <path
       d="M 145.82,75.18 V 72.8"
       id="path618" />
    <path
       d="M 136.45,86.0375 V 84.55"
       id="path620" />
    <path
       d="m 136.45,84.55 9.37,-9.37"
       id="path622" />
    <path
       d="m 116.8,101.86 h 3.34"
       id="path624" />
    <path
       d="m 120.14,101.86 8.085,-8.085"
       id="path626" />
    <path
       d="M 128.225,93.0679 128.8429,92.45"
       id="path628" />
    <path
       d="m 128.8429,92.45 h 1.1946"
       id="path630" />
    <path
       d="M 128.225,93.775 V 93.0679"
       id="path632" />
    <path
       d="m 142.575,90.95 3.29,3.29"
       id="path634" />
    <path
       d="m 152.4,94.24 0.2,0.2"
       id="path636" />
    <path
       d="M 145.865,94.24 H 152.4"
       id="path638" />
    <path
       d="m 138.3625,90.95 h 4.2125"
       id="path640" />
    <path
       d="m 127.82,103.73 v 4.67"
       id="path642" />
    <path
       d="m 132.95,94.3625 v 0.8406"
       id="path644" />
    <path
       d="m 132.95,98.6 -5.13,5.13"
       id="path646" />
    <path
       d="M 132.95,95.2031 V 98.6"
       id="path648" />
    <path
       d="M 125.28,105.295 V 108.4"
       id="path650" />
    <path
       d="m 132.45,98.125 -7.17,7.17"
       id="path652" />
    <path
       d="M 132.45,94.3625 V 98.125"
       id="path654" />
    <path
       d="M 127.7071,88 H 120.72"
       id="path656" />
    <path
       d="m 130.0375,88.95 h -1.3804"
       id="path658" />
    <path
       d="M 128.6571,88.95 127.7071,88"
       id="path660" />
    <path
       d="M 120.72,88 116.8,84.08"
       id="path662" />
    <path
       d="m 129.175,87.95 -1.75,-1.75"
       id="path664" />
    <path
       d="m 117.4,79 h -0.6"
       id="path666" />
    <path
       d="M 127.425,86.2 H 124.6"
       id="path668" />
    <path
       d="M 130.0375,87.95 H 129.175"
       id="path670" />
    <path
       d="M 124.6,86.2 117.4,79"
       id="path672" />
    <path
       d="m 120,93.375 h 1.975"
       id="path674" />
    <path
       d="m 117.3,91.7 1.675,1.675"
       id="path676" />
    <path
       d="M 121.975,93.375 122.6,94"
       id="path678" />
    <path
       d="m 116.8,91.7 h 0.5"
       id="path680" />
    <path
       d="m 130.0375,90.45 h -2.057"
       id="path682" />
    <path
       d="m 118.1,90.4 -1.3,1.3"
       id="path684" />
    <path
       d="M 127.9305,90.4 H 118.1"
       id="path686" />
    <path
       d="M 118.975,93.375 H 120"
       id="path688" />
    <path
       d="m 122.6,94 v 0.6"
       id="path690" />
    <path
       d="m 127.9805,90.45 -0.05,-0.05"
       id="path692" />
    <path
       d="M 127.6142,87.2 H 122.46"
       id="path694" />
    <path
       d="m 130.0375,88.45 h -1.1733"
       id="path696" />
    <path
       d="m 128.8642,88.45 -1.25,-1.25"
       id="path698" />
    <path
       d="M 122.46,87.2 116.8,81.54"
       id="path700" />
    <path
       d="M 147.985,81.74 H 152.6"
       id="path702" />
    <path
       d="m 156.8,80.52 h -2.98"
       id="path704" />
    <path
       d="m 138.3625,88.45 h 2.9125"
       id="path706" />
    <path
       d="m 153.82,80.52 -1.22,1.22"
       id="path708" />
    <path
       d="m 141.275,88.45 6.71,-6.71"
       id="path710" />
    <path
       d="m 126.075,78.6 -1.6188,-1.6187"
       id="path712" />
    <path
       d="m 124.4562,76.9813 h -1.0437"
       id="path714" />
    <path
       d="m 116.8,86.62 h 1.02"
       id="path716" />
    <path
       d="m 128.45,89.45 h 1.5875"
       id="path718" />
    <path
       d="M 117.82,86.62 120,88.8"
       id="path720" />
    <path
       d="m 120,88.8 h 7.8"
       id="path722" />
    <path
       d="m 127.8,88.8 0.65,0.65"
       id="path724" />
    <path
       d="m 128.1876,89.95 -0.35,-0.35"
       id="path726" />
    <path
       d="m 130.0375,89.95 h -1.8499"
       id="path728" />
    <path
       d="M 117.24,89.6 116.8,89.16"
       id="path730" />
    <path
       d="M 127.8376,89.6 H 117.24"
       id="path732" />
    <path
       d="m 133.45,81.575 -2.87,-2.87"
       id="path734" />
    <path
       d="M 133.45,86.0375 V 81.575"
       id="path736" />
    <path
       d="M 130.58,78.705 V 72.8"
       id="path738" />
    <path
       style="fill:#ffffff;fill-opacity:1;fill-rule:evenodd;stroke:none"
       d="m 137.6679,95.3878 1.3953,1.3953 0.0335,0.0613 0.003,0.0264 v 0.5292 0 l 0.0105,0.1028 v 0 l 0.0462,0.1394 0.009,0.0271 0.0921,0.1494 0.124,0.124 0.003,0.002 1e-4,1e-4 0.002,0.0019 6e-4,5e-4 -1e-4,1e-4 0.0445,0.0494 0.0112,0.069 -0.0278,0.064 -0.0301,0.0261 -0.003,0.0019 v 0 l -0.124,0.124 -0.0921,0.1492 v 0 l -0.0551,0.1664 v 0 L 139.1,98.7 v 0.05 h 1.351 l 0.067,0.0197 0.0458,0.0528 0.0112,0.0515 V 100 h 0.275 v 0 l 0.1027,-0.0105 0.1664,-0.0551 v 0 l 0.1492,-0.0921 0.124,-0.124 0.0921,-0.1492 v 0 l 0.0337,-0.1019 0.0398,-0.0575 0.0645,-0.0268 0.0688,0.0123 0.0323,0.0233 3.1104,3.1104 0.0335,0.0613 -0.001,0.0585 -0.002,0.008 v 0 l -0.0191,0.218 v 0 l 0.002,0.0235 0.017,0.1945 v 0 0 l 0.0566,0.2113 v 0 0 l 0.0397,0.0851 0.0528,0.1132 0.004,0.005 0.122,0.1742 0.1547,0.1547 0.1793,0.1255 0.1983,0.0925 0.2113,0.0566 0.1829,0.016 0.0351,0.003 v 0 0 l 0.0545,-0.005 0.1635,-0.0143 0.008,-0.002 0.0699,0.002 0.0499,0.0305 1.0071,1.007 0.0335,0.0613 0.003,0.0264 v 1.9065 l -0.0197,0.067 -0.0332,0.0346 -0.168,0.1176 -0.1671,0.1671 -0.1302,0.186 -0.0546,0.0436 -0.0695,0.007 -0.0624,-0.0315 -0.0167,-0.0193 -0.13,-0.1857 v 0 l -0.167,-0.167 -0.1935,-0.1355 -0.2141,-0.0998 v 0 l -0.2135,-0.0572 v 0.8976 l -0.057,-0.0329 -0.1272,-0.0341 h -0.1316 l -0.1272,0.0341 -0.057,0.0329 v -0.8976 0 l -0.2135,0.0572 v 0 l -0.2141,0.0998 v 0 l -0.1935,0.1355 v 0 l -0.167,0.167 v 0 l -0.13,0.1857 -0.0546,0.0436 -0.0695,0.007 -0.0623,-0.0315 -0.0168,-0.0193 -0.1302,-0.186 -0.1671,-0.1671 v 0 l -0.168,-0.1176 v 0 l -0.0436,-0.0546 -0.009,-0.047 v -2.4964 l -0.025,-0.1256 v 0 0 l -0.0347,-0.0838 -0.0143,-0.0346 -0.0712,-0.1066 v 0 l -4.1529,-4.1528 -0.0335,-0.0614 0.005,-0.0696 0.0419,-0.056 0.0654,-0.0244 0.0479,0.006 0.1582,0.0524 v 0 L 139.8,100 h 0.275 v 0 -0.75 H 139.1 v 0.05 l 0.0105,0.1027 0.0524,0.1582 0.002,0.0698 -0.0357,0.0601 -0.0625,0.0312 -0.0695,-0.0076 -0.0401,-0.0268 -2.3207,-2.3207 -0.0335,-0.0614 -0.003,-0.0263 v -1.5435 l 0.0197,-0.067 0.0528,-0.0458 0.0677,-0.0101 0.0735,0.0097 0.0204,0.0026 0.003,4e-4 v 0 h 0.2254 v 0 l 0.1125,-0.0148 0.14,-0.058 0.1203,-0.0922 0.0463,-0.0605 0.0564,-0.0412 0.0698,-0.0041 z"
       id="path740" />
    <path
       style="fill:#ffffff;fill-opacity:1;fill-rule:evenodd;stroke:none"
       d="m 155.6093,81.1902 0.0346,0.0332 0.1176,0.168 v 0 l 0.1671,0.1671 0.186,0.1302 0.0436,0.0546 0.007,0.0695 -0.0315,0.0624 -0.0193,0.0167 -0.1857,0.13 v 0 l -0.167,0.167 v 0 l -0.1355,0.1935 v 0 l -0.0998,0.2141 v 0 l -0.0572,0.2135 v 0 h 0.8976 l -0.0329,0.057 -0.0341,0.1272 v 0.1316 l 0.0341,0.1272 0.0329,0.057 h -0.8976 l 0.0572,0.2135 v 0 l 0.0998,0.2141 0.1355,0.1935 0.122,0.122 0.0335,0.0614 -0.005,0.0696 -0.0418,0.056 -0.031,0.0169 -0.1319,0.0492 v 0 l -0.1152,0.0863 v 0 l -0.0863,0.1152 v 0 l -0.0503,0.1348 -0.005,0.0505 -0.001,0.0091 v 0 1.7958 0 l 0.006,0.0596 0.0503,0.1348 v 0 l 0.0863,0.1152 v 0 l 0.1152,0.0863 v 0 l 0.0449,0.0168 0.0899,0.0335 0.0596,0.0064 h 0.1234 l 0.067,0.0197 0.0458,0.0528 0.0112,0.0515 v 16.6047 l -0.0197,0.067 -0.0166,0.0207 -1.9912,1.9911 -0.0613,0.0335 -0.0697,-0.005 -0.0559,-0.0418 -0.0244,-0.0655 0.008,-0.0522 0.0259,-0.0695 0.006,-0.0596 v -1.7958 l -0.006,-0.0596 -0.0503,-0.1348 v 0 0 l -0.0863,-0.1152 v 0 l -0.1152,-0.0863 v 0 l -0.1314,-0.049 -0.0559,-0.0419 -0.0244,-0.0654 0.0148,-0.0683 0.0212,-0.0283 0.1219,-0.1219 0.1355,-0.1936 0.0999,-0.2141 0.0612,-0.2283 0.0206,-0.2354 -0.0206,-0.2354 -0.0578,-0.2157 -0.003,-0.0126 v 0 0 l -0.0999,-0.2141 -0.006,-0.009 -0.1292,-0.1846 -0.1671,-0.1671 v 0 l -0.1856,-0.1299 -0.0436,-0.0546 -0.007,-0.0695 0.0315,-0.0624 0.0193,-0.0167 0.0735,-0.0514 0.1121,-0.0785 0.1671,-0.1671 0.1355,-0.1936 0.0999,-0.2141 0.0612,-0.2283 0.0206,-0.2354 -0.0206,-0.2354 -0.0612,-0.2283 -0.0999,-0.2141 -0.0645,-0.0922 -0.071,-0.1014 -0.1671,-0.1671 v 0 l -0.1856,-0.1299 -0.0436,-0.0546 -0.007,-0.0695 0.0315,-0.0624 0.0193,-0.0167 0.1406,-0.0984 0.045,-0.0315 0.1671,-0.1671 0.1355,-0.1936 0.0999,-0.2141 0.0612,-0.2283 0.0206,-0.2354 -0.0206,-0.2354 -0.0612,-0.2283 -0.0999,-0.2141 -0.0959,-0.137 -0.0396,-0.0566 -0.1671,-0.1671 v 0 l -0.1856,-0.1299 -0.0436,-0.0546 -0.007,-0.0695 0.0315,-0.0624 0.0193,-0.0167 0.0796,-0.0557 0.106,-0.0742 0.1671,-0.1671 0.1355,-0.1936 0.0999,-0.2141 0.0612,-0.2283 0.0206,-0.2354 -0.0206,-0.2354 -0.0612,-0.2283 -0.0999,-0.2141 -0.0176,-0.0252 -0.1179,-0.1684 -0.1671,-0.1671 v 0 l -0.1856,-0.1299 -0.0436,-0.0546 -0.007,-0.0695 0.0315,-0.0624 0.0193,-0.0167 0.135,-0.0945 0.0506,-0.0354 0.1671,-0.1671 0.1355,-0.1936 0.0999,-0.2141 0.0612,-0.2283 0.0206,-0.2354 -0.0206,-0.2354 -0.0612,-0.2283 -0.0999,-0.2141 -0.0694,-0.0992 -0.0661,-0.0944 -0.1671,-0.1671 v 0 l -0.1856,-0.1299 -0.0436,-0.0546 -0.007,-0.0695 0.0315,-0.0624 0.0193,-0.0167 0.1406,-0.0984 0.045,-0.0315 0.1671,-0.1671 0.1355,-0.1936 0.0999,-0.2141 0.0612,-0.2283 0.0206,-0.2354 -0.0206,-0.2354 -0.0612,-0.2283 -0.0999,-0.2141 -0.0661,-0.0945 -0.0694,-0.0991 -0.1671,-0.1671 v 0 l -0.1856,-0.1299 -0.0436,-0.0546 -0.007,-0.0695 0.0315,-0.0624 0.0193,-0.0167 0.0222,-0.0155 0.1634,-0.1144 0.1671,-0.1671 0.1355,-0.1936 0.0999,-0.2141 0.0612,-0.2283 0.0206,-0.2354 -0.001,-0.0125 -0.009,-0.107 -0.0101,-0.1159 -0.0612,-0.2283 -0.0999,-0.2141 -0.1347,-0.1924 -8e-4,-0.0012 -0.1671,-0.1671 v 0 l -0.1856,-0.1299 -0.0436,-0.0546 -0.007,-0.0695 0.0315,-0.0624 0.0193,-0.0167 0.0704,-0.0493 0.1152,-0.0806 0.1671,-0.1671 0.1355,-0.1936 0.0999,-0.2141 0.0612,-0.2283 0.0206,-0.2354 -0.0206,-0.2354 -0.0612,-0.2283 -0.0999,-0.2141 -0.0125,-0.0179 -0.123,-0.1757 -0.1671,-0.1671 v 0 l -0.1856,-0.1299 -0.0436,-0.0546 -0.007,-0.0695 0.0315,-0.0624 0.0193,-0.0167 0.1085,-0.0759 0.0771,-0.054 0.1671,-0.1671 0.1355,-0.1936 0.0999,-0.2141 0.0612,-0.2283 0.0206,-0.2354 -0.0206,-0.2354 -0.0195,-0.0726 0.002,-0.0698 0.0304,-0.05 0.1054,-0.1054 0.0613,-0.0335 0.0264,-0.0028 h 1.4015 z"
       id="path742" />
    <path
       style="fill:#ffffff;fill-opacity:1;fill-rule:evenodd;stroke:none"
       d="m 118.2359,93.5559 0.3244,0.3244 v 0 l 0.089,0.0594 v 0 l 0.0176,0.0118 v 0 0 l 0.1184,0.049 v 0 0 l 0.1256,0.025 v 0 h 0.2226 l 0.067,0.0197 0.0207,0.0166 0.0505,0.0505 0.0334,0.0613 -0.005,0.0697 -0.0285,0.0444 -0.0505,0.0505 -0.0614,0.0335 -0.0263,0.0028 h -0.6426 l -0.1256,0.025 v 0 l -0.0785,0.0325 v 0 l -0.0399,0.0165 v 0 l -0.0308,0.0206 -0.0667,0.0209 h -0.002 -0.9142 l 0.0329,-0.057 0.0341,-0.1272 V 94.1742 L 117.2659,94.047 117.233,93.99 h 0.8976 v 0 l -0.0572,-0.2135 v 0 l -0.0375,-0.0805 -0.0105,-0.0691 0.0285,-0.0638 0.0585,-0.0382 0.0698,-6e-4 z"
       id="path744" />
    <path
       style="fill:#ffffff;fill-opacity:1;fill-rule:evenodd;stroke:none"
       d="m 123.6276,91.0702 0.0458,0.0528 0.01,0.0691 -0.0172,0.0475 -0.0255,0.0413 v 0 l -0.0551,0.1664 v 0 L 123.575,91.55 v 0.05 h 2.45 v -0.05 0 l -0.0105,-0.1027 -0.0551,-0.1664 v 0 l -0.0255,-0.0413 -0.0184,-0.0674 0.0209,-0.0667 0.0536,-0.0447 0.0494,-0.0103 h 1.0908 l 0.067,0.0197 0.0458,0.0528 0.01,0.0691 -0.029,0.0636 -0.006,0.0065 -0.9814,0.9813 -0.0613,0.0335 -0.0697,-0.005 -0.0559,-0.0419 -0.0244,-0.0654 -1e-4,-0.0116 h -10e-5 V 92.1 h -2.45 v 0.05 l 0.0105,0.1027 0.0551,0.1664 v 0 l 0.0921,0.1492 0.124,0.124 v 0 l 0.003,0.0019 0.002,0.0018 0.001,8e-4 -1e-4,2e-4 0.0442,0.0491 0.0112,0.069 -0.0278,0.0641 -0.0301,0.026 -0.003,0.0021 v 0 l -0.124,0.124 v 0 l -0.0604,0.098 -0.052,0.0467 -0.0689,0.0112 -0.028,-0.0068 -0.0655,-0.0245 v 0 l -0.0596,-0.0064 v 0 0 0 h -0.6771 l -0.067,-0.0197 -0.0207,-0.0166 -0.2434,-0.2435 v 0 0 l -0.1066,-0.0712 -0.0292,-0.0121 -0.0892,-0.0369 v 0 l -0.1256,-0.025 v 0 h -1.1726 l -0.067,-0.0197 -0.0207,-0.0166 -0.0686,-0.0687 -0.1456,-0.088 -0.1624,-0.0506 v 0 0 l -0.0494,-0.0045 -0.0212,-0.0019 h -0.6632 l -0.0193,0.0017 -0.0513,0.0047 -0.1624,0.0506 -0.152,0.0919 -0.001,-0.0017 -0.0552,0.022 -0.0686,-0.0134 -0.0307,-0.0224 -0.9464,-0.9464 -0.0335,-0.0614 -0.002,-0.0155 -0.0105,-0.12 -0.0195,-0.0726 0.002,-0.0698 0.0304,-0.05 0.1854,-0.1854 0.0614,-0.0335 0.0263,-0.0028 h 5.1398 z"
       id="path746" />
    <path
       style="fill:#ffffff;fill-opacity:1;fill-rule:evenodd;stroke:none"
       d="m 132.0081,87.1711 0.0174,0.0111 0.026,0.02 0.0412,0.0564 0.006,0.0355 0.001,0.001 0.0827,-0.0109 0.0338,0.0022 2e-4,-0.0018 0.008,0.0011 v 0 l 0.1125,0.0148 v 0 h 0.2254 v 0 l 0.1125,-0.0148 v 0 l 0.008,-0.0011 4e-4,0.0031 h 0.0326 l 4e-4,-0.0031 0.008,0.0011 v 0 l 0.1125,0.0148 v 0 h 0.2254 v 0 l 0.1125,-0.0148 v 0 l 0.008,-0.0011 4e-4,0.0031 h 0.0326 l 4e-4,-0.0031 0.008,0.0011 v 0 l 0.1125,0.0148 v 0 h 0.2254 v 0 l 0.1125,-0.0148 v 0 l 0.008,-0.0011 4e-4,0.0031 h 0.0326 l 4e-4,-0.0031 0.008,0.0011 v 0 l 0.1125,0.0148 v 0 h 0.2254 v 0 l 0.1125,-0.0148 v 0 l 0.008,-0.0011 4e-4,0.0031 h 0.0326 l 4e-4,-0.0031 0.008,0.0011 v 0 l 0.1125,0.0148 v 0 h 0.2254 v 0 l 0.1125,-0.0148 v 0 l 0.008,-0.0011 4e-4,0.0031 h 0.0326 l 4e-4,-0.0031 0.008,0.0011 v 0 l 0.1125,0.0148 v 0 h 0.2254 v 0 l 0.1125,-0.0148 v 0 l 0.008,-0.0011 4e-4,0.0031 h 0.0326 l 4e-4,-0.0031 0.008,0.0011 v 0 l 0.1125,0.0148 v 0 h 0.2254 v 0 l 0.1125,-0.0148 v 0 l 0.008,-0.0011 4e-4,0.0031 h 0.0326 l 4e-4,-0.0031 0.008,0.0011 v 0 l 0.1125,0.0148 v 0 h 0.2254 v 0 l 0.1125,-0.0148 v 0 l 0.008,-0.0011 4e-4,0.0031 h 0.0326 l 4e-4,-0.0031 0.008,0.0011 v 0 l 0.1125,0.0148 v 0 h 0.2254 v 0 l 0.1125,-0.0148 v 0 l 0.008,-0.0011 4e-4,0.0031 h 0.0326 l 4e-4,-0.0031 0.008,0.0011 v 0 l 0.1125,0.0148 v 0 h 0.1632 l 0.067,0.0197 0.0458,0.0528 0.0112,0.0515 v 0.1632 l 0.0159,0.1206 -0.002,2e-4 0.002,0.0338 -0.0109,0.0827 0.002,0.0022 0.0597,0.0175 0.0313,0.0288 0.0127,0.0165 0.007,0.0095 0.0252,0.0652 -0.0141,0.0684 -0.0111,0.0174 -0.02,0.026 -0.0564,0.0412 -0.0355,0.0062 -0.001,0.0011 0.0109,0.0827 -0.002,0.0338 0.002,2e-4 -0.0159,0.1206 v 0.2254 l 0.011,0.0836 0.003,0.025 0.002,0.012 -0.003,4e-4 v 0.0326 l 0.003,4e-4 -0.0159,0.1206 v 0.2254 l 0.0159,0.1206 -0.003,4e-4 v 0.0326 l 0.003,4e-4 -0.0159,0.1206 v 0.2254 l 0.0159,0.1206 -0.003,4e-4 v 0.0326 l 0.003,4e-4 -0.0159,0.1206 v 0.2254 l 0.0159,0.1206 -0.003,4e-4 v 0.0326 l 0.003,4e-4 -0.0159,0.1206 v 0.2254 l 0.0159,0.1206 -0.003,4e-4 v 0.0326 l 0.003,4e-4 -0.0159,0.1206 v 0.2254 l 0.0159,0.1206 -0.003,4e-4 v 0.0326 l 0.003,4e-4 -0.0159,0.1206 v 0.2254 l 0.0159,0.1206 -0.003,4e-4 v 0.0326 l 0.003,4e-4 -0.0159,0.1206 v 0.2254 l 0.0159,0.1206 -0.003,4e-4 v 0.0326 l 0.003,4e-4 -0.0159,0.1206 v 0.1148 l -0.0197,0.067 -0.0528,0.0458 -0.0691,0.0099 -0.0636,-0.029 -0.006,-0.006 -1.62,-1.6201 v 0 0 l -0.1066,-0.0712 -0.0271,-0.0112 -0.0912,-0.0378 v 0 l -0.1257,-0.025 v 0 h -1.9031 -1.6501 l -0.067,-0.0197 -0.0458,-0.0528 -0.0101,-0.0677 0.007,-0.0518 0.003,-0.0198 v -0.2254 l -0.0148,-0.1125 v 0 l -0.001,-0.0081 0.003,-4e-4 v -0.0326 l -0.003,-4e-4 0.004,-0.0335 0.0115,-0.0871 v -0.2254 l -0.0148,-0.1125 v 0 l -0.001,-0.0081 0.003,-4e-4 v -0.0326 l -0.003,-4e-4 0.001,-0.0081 0.0148,-0.1125 v -0.2254 l -0.0148,-0.1125 v 0 l -0.001,-0.0081 0.003,-4e-4 v -0.0326 l -0.003,-4e-4 0.011,-0.0837 0.005,-0.0369 v -0.2254 l -0.0148,-0.1125 v 0 l -0.001,-0.0081 0.003,-4e-4 v -0.0326 l -0.003,-4e-4 0.002,-0.012 0.0143,-0.1086 v -0.2254 l -0.0148,-0.1125 v 0 l -0.001,-0.0081 0.003,-4e-4 v -0.0326 l -0.003,-4e-4 0.009,-0.0713 0.006,-0.0493 v -0.2254 l -0.0148,-0.1125 v 0 l -0.001,-0.0081 0.003,-4e-4 v -0.0326 l -0.003,-4e-4 0.007,-0.0498 0.009,-0.0708 v -0.1632 l 0.0197,-0.067 0.0528,-0.0458 0.0515,-0.0112 h 0.1632 v 0 l 0.1125,-0.0148 v 0 l 0.008,-0.0011 2e-4,0.0018 0.0338,-0.0022 0.0827,0.0109 0.002,-0.0019 0.0175,-0.0597 0.0288,-0.0313 0.026,-0.02 0.0652,-0.0252 z"
       id="path748" />
    <path
       style="fill:#ffffff;fill-opacity:1;fill-rule:evenodd;stroke:none"
       d="m 146.5034,82.046 0.0578,0.0391 0.0275,0.0643 -0.0115,0.0689 -0.0239,0.0335 -5.5114,5.5114 -0.0614,0.0335 -0.0263,0.0028 h -0.6594 l -0.067,-0.0197 -0.0458,-0.0528 -0.01,-0.0691 0.029,-0.0636 0.006,-0.0065 1.25,-1.25 4.2093,-4.2092 0.0613,-0.0335 0.0585,0.0014 0.008,0.0022 0.1855,0.0162 0.0325,0.0029 v 0 0 l 0.0283,-0.0025 0.1897,-0.0166 0.203,-0.0544 z"
       id="path750" />
    <path
       style="fill:#ffffff;fill-opacity:1;fill-rule:evenodd;stroke:none"
       d="m 152.7212,73.4702 0.0207,0.0166 3.2398,3.2399 0.0335,0.0613 -0.005,0.0697 -0.0419,0.0559 -0.003,0.0023 -0.0366,0.0256 -0.1671,0.1671 -0.1355,0.1936 v 0 l -0.0999,0.2141 v 0 l -0.0612,0.2283 v 0 l -0.0206,0.2354 v 0 l 0.0206,0.2354 v 0 l 0.0612,0.2283 v 0 0 l 0.0629,0.1349 0.037,0.0792 v 0 l 0.1355,0.1936 v 0 l 0.1671,0.1671 v 0 l 0.1856,0.1299 0.0436,0.0546 0.007,0.0695 -0.0315,0.0624 -0.0193,0.0167 -0.1856,0.1299 -0.1671,0.1671 -0.0873,0.1246 -0.0223,0.0319 -0.008,0.0115 -0.0546,0.0436 -0.047,0.0093 h -1.5703 l -0.067,-0.0197 -0.0458,-0.0528 -0.01,-0.0691 0.0103,-0.0348 0.0138,-0.0296 v 0 l 0.0572,-0.2135 h -0.8976 l 0.0329,-0.057 0.0341,-0.1272 V 79.1342 L 153.0659,79.007 153.033,78.95 h 0.8976 v 0 l -0.0572,-0.2135 v 0 l -0.0998,-0.2141 v 0 l -0.1355,-0.1935 v 0 l -0.167,-0.167 -0.1857,-0.13 -0.0436,-0.0546 -0.007,-0.0695 0.0315,-0.0624 0.0193,-0.0167 0.005,-0.0036 0.1809,-0.1266 0.1671,-0.1671 0.1355,-0.1936 0.0999,-0.2141 0.0612,-0.2283 0.0206,-0.2354 -0.0206,-0.2354 -0.0612,-0.2283 -0.0999,-0.2141 -0.0179,-0.0256 -0.1176,-0.168 -0.1671,-0.1671 v 0 l -0.1936,-0.1355 v 0 0 l -0.2141,-0.0999 v 0 0 l -0.2283,-0.0612 v 0 L 152.6,75.3043 v 0 l -0.2354,0.0206 v 0 l -0.2283,0.0612 v 0 l -0.2141,0.0999 v 0 l -0.1936,0.1355 -0.1671,0.1671 -0.1176,0.168 -0.0546,0.0436 -0.047,0.0093 h -1.1914 l -0.1256,0.025 v 0 l -0.1184,0.049 -0.1066,0.0712 v 0 l -3.4417,3.4417 -0.0613,0.0335 -0.0585,-0.0014 -0.008,-0.0022 v 0 l -0.218,-0.0191 v 0 l -0.1453,0.0127 -0.0727,0.0064 v 0 l -0.2113,0.0566 v 0 l -0.1983,0.0925 v 0 l -0.1793,0.1255 -0.1547,0.1547 -0.1255,0.1793 v 0 l -0.0925,0.1983 v 0 l -0.0566,0.2113 v 0 l -0.0191,0.218 v 0 l 0.0191,0.218 9e-4,0.0053 -0.002,4e-4 -0.001,0.0598 -0.015,0.0312 -0.0323,0.0483 -0.0155,0.0188 -5.5438,5.5439 -0.0614,0.0335 -0.0263,0.0028 h -1.3547 l -0.067,-0.0197 -0.0458,-0.0528 -0.0112,-0.0515 v -0.9047 l 0.0197,-0.067 0.0166,-0.0207 11.2285,-11.2284 v 0 l 0.0712,-0.1066 0.049,-0.1184 0.01,-0.0482 0.0154,-0.0774 v -0.0714 l 0.0197,-0.067 0.0332,-0.0346 0.0786,-0.055 0.0894,-0.0626 0.1671,-0.1671 0.1176,-0.168 0.0546,-0.0436 0.047,-0.0093 h 3.0365 z"
       id="path752" />
    <path
       style="fill:#ffffff;fill-opacity:1;fill-rule:evenodd;stroke:none"
       d="m 123.21,74.1306 0.2135,-0.0572 v 0 l 0.2141,-0.0998 0.1935,-0.1355 0.167,-0.167 0.13,-0.1857 0.0546,-0.0436 0.0695,-0.0072 0.0623,0.0315 0.0168,0.0193 0.1302,0.186 0.1671,0.1671 0.0894,0.0626 0.1042,0.0729 v 0 0 l 0.2141,0.0999 0.2283,0.0612 0.12,0.0105 0.0651,0.0254 0.0118,0.0104 2.7267,2.7267 0.0335,0.0613 0.003,0.0264 v 2.0183 0 0 l 0.021,0.1056 v 0 l 0.004,0.02 0.0245,0.0592 0.0151,0.0365 0.009,0.0227 0.0625,0.0935 0.009,0.0131 v 0 l 3.3935,3.3934 0.0335,0.0614 0.003,0.0263 v 1.7344 l -0.0197,0.067 -0.0528,0.0458 -0.0691,0.0099 -0.0636,-0.029 -0.007,-0.006 -0.6231,-0.6232 -2e-4,-1e-4 -0.1064,-0.0711 -0.1025,-0.0424 -0.0159,-0.0066 v 0 l -0.1256,-0.025 v 0 h -0.2351 l -0.0671,-0.0197 -0.0385,-0.0392 -0.006,-0.0093 -0.124,-0.124 v 0 l -0.003,-0.0021 -0.002,-0.0019 -6e-4,-5e-4 1e-4,-1e-4 -0.0445,-0.0494 -0.0112,-0.069 0.0278,-0.064 0.0302,-0.0261 0.003,-0.0019 0.124,-0.124 0.0921,-0.1492 v 0 l 0.0551,-0.1664 v 0 L 130.425,82.95 v 0 -0.05 h -1.351 L 129.007,82.8803 128.9612,82.8275 128.95,82.776 V 82.4 h 0.5 0.975 v -0.05 0 l -0.0105,-0.1027 -0.0551,-0.1664 v 0 l -0.0921,-0.1492 -0.124,-0.124 -0.1492,-0.0921 v 0 l -0.1664,-0.0551 v 0 L 129.725,81.65 h -0.275 v 0.75 h -0.5 v -0.75 h -0.275 v 0 l -0.1027,0.0105 -0.1664,0.0551 v 0 l -0.1492,0.0921 -0.02,0.02 -0.0613,0.0334 -0.0697,-0.0049 -0.056,-0.0419 -0.0244,-0.0655 -3e-4,-0.0088 v -0.19 0 l -0.0105,-0.1027 -0.0551,-0.1664 v 0 l -0.0921,-0.1492 -0.124,-0.124 -0.1492,-0.0921 v 0 l -0.1664,-0.0551 v 0 L 127.325,80.85 h -0.275 v 1.126 l -0.0197,0.067 -0.0528,0.0458 -0.0515,0.0112 h -1.351 v 0.05 l 0.0105,0.1027 0.0551,0.1664 v 0 l 0.0921,0.1492 0.124,0.124 v 0 l 0.003,0.0019 0.002,0.0018 0.001,8e-4 -1e-4,2e-4 0.0442,0.0491 0.0112,0.069 -0.0278,0.0641 -0.0301,0.026 -0.003,0.0021 v 0 l -0.124,0.124 -0.006,0.0093 -0.052,0.0467 -0.0536,0.0122 h -1.2102 l -0.067,-0.0197 -0.0207,-0.0166 L 122.81,81.55 h 2.765 v 0.05 h 0.975 v -0.75 h -0.275 v 0 l -0.1027,0.0105 -0.1664,0.0551 v 0 l -0.1492,0.0921 -0.124,0.124 -0.0921,0.1492 v 0 l -0.0551,0.1664 v 0 L 125.575,81.55 h -2.765 l -1.2739,-1.2739 -0.0335,-0.0613 0.001,-0.0585 0.002,-0.0083 0.007,-0.0781 0.0255,-0.065 0.0566,-0.041 0.0415,-0.0072 h 0.4301 v 0 l 0.0985,-0.01 0.1596,-0.0529 0.1431,-0.0883 0.0323,-0.0323 0.0613,-0.0334 0.0697,0.0049 0.0443,0.0285 0.0319,0.0319 0.143,0.0882 v 0 l 0.1595,0.0529 0.0985,0.01 h 0.5166 0.0166 1e-4 l 0.0984,-0.01 0.1595,-0.0529 v 0 l 0.143,-0.0882 0.1188,-0.1188 0.0882,-0.143 v 0 l 0.0528,-0.1595 0.0101,-0.0984 v 0 -0.0541 h -0.6875 v 0.7249 h -0.5166 0.0166 v -1.101 l 0.0197,-0.067 0.0528,-0.0457 0.0515,-0.0112 h 1.0635 v -0.0542 0 l -0.0101,-0.0984 -0.0528,-0.1595 v 0 l -0.0882,-0.143 -0.1188,-0.1188 -0.1077,-0.0664 -0.0467,-0.052 -0.0112,-0.0689 0.0278,-0.0641 0.0311,-0.0267 0.1118,-0.0676 0.0718,-0.0718 0.0614,-0.0335 0.0697,0.005 0.0443,0.0285 0.3933,0.3932 0.0335,0.0613 0.003,0.0264 v 1.2771 0 l 0.006,0.0596 0.0503,0.1348 v 0 l 0.0863,0.1152 v 0 l 0.1152,0.0863 v 0 l 0.1348,0.0503 v 0 l 0.007,7e-4 0.0527,0.0057 h 1.7958 l 0.0596,-0.0064 0.1348,-0.0503 0.1152,-0.0863 0.0863,-0.1152 0.0503,-0.1348 0.006,-0.0596 v -1.7958 l -0.006,-0.0596 -0.003,-0.0085 -0.0471,-0.1263 v 0 l -0.0863,-0.1152 v 0 l -0.1152,-0.0863 v 0 l -0.1348,-0.0503 v 0 l -0.0596,-0.0064 v 0 0 0 h -1.2771 l -0.067,-0.0197 -0.0207,-0.0166 -0.7372,-0.7372 v 0 l -0.0239,-0.016 -0.0826,-0.0552 -0.1184,-0.0491 v 0 l -0.1257,-0.025 v 0 h -0.2463 l -0.0671,-0.0196 -0.0336,-0.0347 -7e-4,6e-4 -0.005,-0.0059 -0.1203,-0.1203 -0.1456,-0.088 -0.0907,-0.0283 -0.0717,-0.0223 v 0 0 l -0.0494,-0.0045 -0.0212,-0.002 h -0.5132 l -0.0193,0.0018 -0.0513,0.0047 -0.1624,0.0506 -0.1456,0.088 v 0 l -0.1021,0.1021 -0.0613,0.0335 -0.0697,-0.005 -0.0444,-0.0285 -0.1021,-0.1021 -0.1456,-0.088 -0.0907,-0.0283 -0.0717,-0.0223 v 0 0 l -0.0494,-0.0045 -0.0212,-0.002 h -0.5132 l -0.0193,0.0018 -0.0513,0.0047 -0.1624,0.0506 -0.1456,0.088 -0.1203,0.1203 -0.088,0.1455 -0.0506,0.1625 -0.005,0.0564 -0.001,0.0141 v 0.6633 l 0.002,0.0211 0.004,0.0494 v 0 0 l 0.0506,0.1625 0.088,0.1455 0.1062,0.1062 0.0335,0.0613 0.003,0.0264 v 0.2029 l -0.0197,0.0671 -0.0166,0.0206 -0.1,0.1 v 0 l -0.0882,0.1431 h -1e-4 l -0.0528,0.1596 v 0 l -0.007,0.0679 -0.0264,0.0647 -0.0572,0.0402 -0.0698,0.0028 -0.0123,-0.0038 h -1e-4 l -0.2113,-0.0566 -0.218,-0.0191 v 0 l -0.218,0.0191 v 0 0 0 0 l -0.008,0.0022 -0.0699,-0.0016 -0.0499,-0.0305 -1.7762,-1.7761 -0.0335,-0.0614 0.001,-0.0584 0.0123,-0.0457 0.007,-0.0269 0.0206,-0.2354 -0.003,-0.0354 -0.01,-0.1077 -0.008,-0.0923 -0.0612,-0.2283 -0.0999,-0.2141 -0.006,-0.0083 -0.1297,-0.1853 -0.1671,-0.1671 v 0 l -0.0965,-0.0676 -0.0715,-0.05 -0.0436,-0.0546 -0.009,-0.047 v -0.5815 l 0.0197,-0.067 0.0166,-0.0207 1.0463,-1.0463 0.0613,-0.0335 0.0264,-0.0028 h 0.3247 l 0.067,0.0197 0.0458,0.0528 0.0112,0.0515 v 0.1234 l 0.006,0.0596 0.0503,0.1348 v 0 l 0.0863,0.1152 v 0 l 0.1152,0.0863 v 0 l 0.1348,0.0503 v 0 l 0.007,7e-4 0.0527,0.0057 h 1.7958 l 0.0596,-0.0064 0.1348,-0.0503 0.1152,-0.0863 0.0863,-0.1152 0.0492,-0.1319 0.0419,-0.0559 0.0654,-0.0245 0.0683,0.0149 0.0283,0.0212 0.122,0.122 0.1935,0.1355 0.2141,0.0998 v 0 l 0.2135,0.0572 V 73.233 l 0.057,0.0329 0.1272,0.0341 h 0.1316 l 0.1272,-0.0341 0.057,-0.0329 z"
       id="path754" />
    <path
       style="fill:#ffffff;fill-opacity:1;fill-rule:evenodd;stroke:none"
       d="m 151.4093,77.3302 0.0346,0.0332 0.1176,0.168 v 0 l 0.1671,0.1671 v 0 l 0.045,0.0315 0.1167,0.0817 0.0243,0.017 0.0436,0.0546 0.007,0.0695 -0.0315,0.0624 -0.0193,0.0167 -0.1857,0.13 v 0 l -0.167,0.167 v 0 l -0.1355,0.1935 v 0 l -0.0998,0.2141 v 0 l -0.0572,0.2135 v 0 h 0.8976 l -0.0329,0.057 -0.0341,0.1272 v 0.1316 l 0.0341,0.1272 0.0329,0.057 h -0.8976 l 0.0572,0.2135 v 0 l 0.0998,0.2141 0.1355,0.1935 0.167,0.167 0.1857,0.13 0.0436,0.0546 0.007,0.0695 -0.0315,0.0623 -0.0193,0.0168 -0.186,0.1302 -0.1671,0.1671 -0.1176,0.168 -0.0546,0.0436 -0.047,0.0093 h -3.4214 l -0.1256,0.025 v 0 l -0.1184,0.049 -0.1066,0.0712 -0.1685,0.1686 -0.0614,0.0335 -0.0697,-0.005 -0.0559,-0.0419 -0.0244,-0.0654 0.004,-0.041 0.0544,-0.203 0.0166,-0.1897 0.002,-0.0283 v 0 l -0.009,-0.1071 -0.01,-0.1109 -0.002,-0.0083 0.002,-0.0699 0.0305,-0.0499 3.1695,-3.1696 0.0613,-0.0335 0.0264,-0.0028 h 0.8065 z"
       id="path756" />
    <path
       style="fill:#ffffff;fill-opacity:1;fill-rule:evenodd;stroke:none"
       d="m 158.8425,69.9202 0.0458,0.0528 0.0112,0.0515 v 40.951 l -0.0197,0.067 -0.0528,0.0458 -0.0515,0.0112 h -44.751 l -0.067,-0.0197 -0.0458,-0.0528 -0.0112,-0.0515 V 76.46 h 1.5438 v 0 l 0.0206,0.2354 v 0 l 0.0612,0.2283 v 0 0 l 0.0719,0.1542 0.028,0.0599 v 0 l 0.0782,0.1117 0.0397,0.0567 0.0176,0.0252 v 0 l 0.1671,0.1671 v 0 l 0.1856,0.1299 0.0436,0.0546 0.007,0.0695 -0.0315,0.0624 -0.0193,0.0167 -0.1856,0.1299 -0.1671,0.1671 -0.1355,0.1936 v 0 l -0.0999,0.2141 v 0 l -0.0612,0.2283 v 0 L 115.4443,79 v 0 l 0.0206,0.2354 v 0 l 0.0612,0.2283 v 0 0 l 0.0669,0.1435 0.033,0.0706 v 0 l 0.1355,0.1936 v 0 l 0.1671,0.1671 v 0 l 0.1856,0.1299 0.0436,0.0546 0.007,0.0695 -0.0315,0.0624 -0.0193,0.0167 -0.1856,0.1299 -0.1671,0.1671 -0.1355,0.1936 v 0 l -0.0999,0.2141 v 0 l -0.0612,0.2283 v 0 l -0.0206,0.2354 v 0 l 0.0206,0.2354 v 0 l 0.0612,0.2283 v 0 0 l 0.0682,0.1463 0.0317,0.0678 v 0 l 0.1355,0.1936 v 0 l 0.1671,0.1671 v 0 l 0.1856,0.1299 0.0436,0.0546 0.007,0.0695 -0.0315,0.0624 -0.0193,0.0167 -0.1856,0.1299 -0.1671,0.1671 -0.1355,0.1936 v 0 l -0.0999,0.2141 v 0 l -0.0612,0.2283 v 0 l -0.0206,0.2354 v 0 l 0.0206,0.2354 v 0 l 0.0612,0.2283 v 0 0 l 0.0579,0.1242 0.042,0.0899 v 0 l 0.1355,0.1936 v 0 l 0.1671,0.1671 v 0 l 0.1856,0.1299 0.0436,0.0546 0.007,0.0695 -0.0315,0.0624 -0.0193,0.0167 -0.1856,0.1299 -0.1671,0.1671 -0.1355,0.1936 v 0 l -0.0999,0.2141 v 0 l -0.0612,0.2283 v 0 l -0.0206,0.2354 v 0 l 0.0206,0.2354 v 0 l 0.0612,0.2283 v 0 0 l 0.0951,0.204 0.005,0.0101 v 0 l 0.1355,0.1936 v 0 l 0.1671,0.1671 v 0 l 0.1856,0.1299 0.0436,0.0546 0.007,0.0695 -0.0315,0.0624 -0.0193,0.0167 -0.1856,0.1299 -0.1671,0.1671 -0.1355,0.1936 v 0 l -0.0999,0.2141 v 0 l -0.0612,0.2283 v 0 l -0.0206,0.2354 v 0 l 0.0206,0.2354 v 0 l 0.0612,0.2283 v 0 0 l 0.0588,0.1261 0.0411,0.088 v 0 l 0.1355,0.1936 v 0 l 0.1671,0.1671 v 0 l 0.1856,0.1299 0.0436,0.0546 0.007,0.0695 -0.0315,0.0624 -0.0193,0.0167 -0.1856,0.1299 -0.1671,0.1671 -0.1355,0.1936 v 0 l -0.0999,0.2141 v 0 l -0.0612,0.2283 v 0 L 115.4443,91.7 v 0 l 0.0206,0.2354 v 0 l 0.0612,0.2283 v 0 0 l 0.0871,0.1868 0.0128,0.0273 v 0 l 0.1355,0.1936 v 0 l 0.1671,0.1671 v 0 l 0.186,0.1302 0.0436,0.0546 0.007,0.0695 -0.0315,0.0624 -0.0193,0.0167 -0.1857,0.13 v 0 l -0.167,0.167 v 0 l -0.1355,0.1935 v 0 l -0.0998,0.2141 v 0 l -0.0572,0.2135 v 0 h 0.8976 l -0.0329,0.057 -0.0341,0.1272 v 0.1316 l 0.0341,0.1272 0.0329,0.057 h -0.8976 l 0.0572,0.2135 v 0 l 0.0998,0.2141 0.1355,0.1935 0.167,0.167 0.1857,0.13 0.0436,0.0546 0.007,0.0695 -0.0315,0.0623 -0.0193,0.0168 -0.186,0.1302 -0.1671,0.1671 -0.1355,0.1936 v 0 l -0.0999,0.2141 v 0 l -0.0612,0.2283 v 0 l -0.0206,0.2354 v 0 l 0.0206,0.2354 v 0 l 0.0612,0.2283 v 0 0 l 0.0866,0.1856 0.0133,0.0285 v 0 l 0.1355,0.1936 v 0 l 0.1671,0.1671 v 0 l 0.1856,0.1299 0.0436,0.0546 0.007,0.0695 -0.0315,0.0624 -0.0193,0.0167 -0.1856,0.1299 -0.1671,0.1671 -0.1355,0.1936 v 0 l -0.0999,0.2141 v 0 l -0.0612,0.2283 v 0 l -0.0206,0.2354 v 0 l 0.0206,0.2354 v 0 l 0.0612,0.2283 v 0 0 l 0.0715,0.1534 0.0284,0.0607 v 0 l 0.0861,0.1231 0.0494,0.0705 v 0 l 0.1671,0.1671 v 0 l 0.1856,0.1299 0.0436,0.0546 0.007,0.0695 -0.0315,0.0624 -0.0193,0.0167 -0.1856,0.1299 -0.1671,0.1671 -0.1355,0.1936 v 0 l -0.0999,0.2141 v 0 l -0.0612,0.2283 v 0 l -0.0206,0.2354 v 0 l 0.0206,0.2354 v 0 l 0.0612,0.2283 v 0 0 l 0.076,0.1629 0.0239,0.0512 v 0 l 0.0834,0.1192 0.0521,0.0744 v 0 l 0.1219,0.1219 0.0335,0.0613 -0.005,0.0697 -0.0418,0.056 -0.031,0.0169 -0.1314,0.049 v 0 l -0.1152,0.0863 v 0 l -0.0863,0.1152 v 0 l -0.0503,0.1348 -0.006,0.0596 v 0 0 1.7958 0 l 0.006,0.0596 0.0503,0.1348 v 0 l 0.0863,0.1152 v 0 l 0.1152,0.0863 v 0 l 0.1348,0.0503 v 0 l 0.005,6e-4 0.0542,0.006 h 1.7958 l 0.0596,-0.006 0.1348,-0.0503 0.1152,-0.0863 0.0863,-0.1152 0.0503,-0.1348 0.006,-0.0596 v -0.1234 l 0.0197,-0.067 0.0528,-0.0458 0.0515,-0.0112 h 0.3896 l 0.0845,-0.0168 0.0411,-0.008 0.1184,-0.049 0.1066,-0.0712 2.1236,-2.1237 0.0613,-0.0335 0.0697,0.005 0.056,0.0419 0.0244,0.0655 3e-4,0.009 v 0.7285 l 0.006,0.0596 v 0 l 0.0502,0.1347 v 0 l 0.0862,0.1151 v 0 l 0.1151,0.0861 v 10e-5 l 0.1347,0.0502 v 0 l 0.0596,0.006 v 0 h 0.5478 v -1.576 l 0.0197,-0.067 0.0528,-0.0458 0.0515,-0.0112 h 1.376 v -0.7478 0 l -0.006,-0.0596 v 0 l -0.0502,-0.1347 h -1e-4 l -0.0861,-0.1151 v 0 l -0.1151,-0.0862 v 0 l -0.1347,-0.0502 v 0 l -0.0596,-0.006 h -0.3285 l -0.067,-0.0197 -0.0458,-0.0528 -0.01,-0.0691 0.029,-0.0636 0.006,-0.007 6.3737,-6.3736 v 0 l 0.0712,-0.1066 0.049,-0.1184 0.004,-0.0205 0.004,-0.0208 v 0 l 0.0168,-0.0843 v -0.4646 l 0.0197,-0.067 0.0528,-0.0458 0.0515,-0.0112 h 1.051 l 0.067,0.0197 0.0458,0.0528 0.0112,0.0515 v 2.9797 l -0.0197,0.067 -0.0166,0.0207 -6.7015,6.7015 -0.0613,0.0335 -0.0697,-0.005 -0.056,-0.0419 -0.0244,-0.0655 -3e-4,-0.009 V 102.85 h -1 v 1.2 h 0.3807 l 0.067,0.0197 0.0458,0.0528 0.01,0.0691 -0.029,0.0636 -0.006,0.007 -2.7515,2.7515 -0.0614,0.0335 -0.0263,0.003 h -1.1771 v 0 l -0.0596,0.006 -0.1348,0.0503 v 0 l -0.1152,0.0863 v 0 l -0.0863,0.1152 v 0 l -0.0503,0.1348 -0.006,0.0596 v 0 1.7958 0 l 0.006,0.0596 0.0503,0.1348 v 0 l 0.0863,0.1152 v 0 l 0.1152,0.0863 v 0 l 0.1348,0.0503 v 0 l 0.007,7e-4 0.0527,0.006 h 1.7958 l 0.0596,-0.006 0.1348,-0.0503 0.1152,-0.0863 0.0863,-0.1152 0.049,-0.1314 0.0419,-0.0559 0.0654,-0.0244 0.0683,0.0148 0.0283,0.0212 0.1219,0.1219 0.0968,0.0678 0.0968,0.0677 v 0 0 l 0.2141,0.0999 0.2283,0.0612 0.1764,0.0154 0.059,0.005 v 0 0 l 0.059,-0.005 0.1764,-0.0154 0.2283,-0.0612 0.2141,-0.0999 0.1936,-0.1355 0.1671,-0.1671 0.1299,-0.1856 0.0546,-0.0436 0.0695,-0.007 0.0624,0.0315 0.0167,0.0193 0.1297,0.1853 2e-4,3e-4 0.1671,0.1671 0.0968,0.0678 0.0968,0.0677 v 0 0 l 0.2141,0.0999 0.2283,0.0612 0.1764,0.0154 0.059,0.005 v 0 0 l 0.059,-0.005 0.1764,-0.0154 0.2283,-0.0612 0.2141,-0.0999 0.1936,-0.1355 0.1671,-0.1671 0.1299,-0.1856 0.0546,-0.0436 0.0695,-0.007 0.0624,0.0315 0.0167,0.0193 0.1297,0.1853 2e-4,3e-4 0.1671,0.1671 0.0968,0.0678 0.0968,0.0677 v 0 0 l 0.2141,0.0999 0.2283,0.0612 0.1764,0.0154 0.059,0.005 v 0 0 l 0.059,-0.005 0.1764,-0.0154 0.2283,-0.0612 0.2141,-0.0999 0.1936,-0.1355 0.1671,-0.1671 0.1299,-0.1856 0.0546,-0.0436 0.0695,-0.007 0.0624,0.0315 0.0167,0.0193 0.1297,0.1853 2e-4,3e-4 0.1671,0.1671 0.0968,0.0678 0.0968,0.0677 v 0 0 l 0.2141,0.0999 0.2283,0.0612 0.1764,0.0154 0.059,0.005 v 0 0 l 0.059,-0.005 0.1764,-0.0154 0.2283,-0.0612 0.2141,-0.0999 0.1936,-0.1355 0.1671,-0.1671 0.1299,-0.1856 0.0546,-0.0436 0.0695,-0.007 0.0624,0.0315 0.0167,0.0193 0.1297,0.1853 2e-4,3e-4 0.1671,0.1671 0.0968,0.0678 0.0968,0.0677 v 0 0 l 0.2141,0.0999 0.2283,0.0612 0.1764,0.0154 0.059,0.005 v 0 0 l 0.059,-0.005 0.1764,-0.0154 0.2283,-0.0612 0.2141,-0.0999 0.1936,-0.1355 0.1671,-0.1671 0.1299,-0.1856 0.0546,-0.0436 0.0695,-0.007 0.0624,0.0315 0.0167,0.0193 0.1297,0.1853 2e-4,3e-4 0.1671,0.1671 0.0968,0.0678 0.0968,0.0677 v 0 0 l 0.2141,0.0999 0.2283,0.0612 0.1764,0.0154 0.059,0.005 v 0 0 l 0.059,-0.005 0.1764,-0.0154 0.2283,-0.0612 0.2141,-0.0999 0.1936,-0.1355 0.1671,-0.1671 0.1299,-0.1856 0.0546,-0.0436 0.0695,-0.007 0.0624,0.0315 0.0167,0.0193 0.1297,0.1853 2e-4,3e-4 0.1671,0.1671 0.0968,0.0678 0.0968,0.0677 v 0 0 l 0.2141,0.0999 0.2283,0.0612 0.1764,0.0154 0.059,0.005 v 0 0 l 0.059,-0.005 0.1764,-0.0154 0.2283,-0.0612 0.2141,-0.0999 0.1936,-0.1355 0.1671,-0.1671 0.1299,-0.1856 0.0546,-0.0436 0.0695,-0.007 0.0624,0.0315 0.0167,0.0193 0.1297,0.1853 2e-4,3e-4 0.1671,0.1671 0.0968,0.0678 0.0968,0.0677 v 0 0 l 0.2141,0.0999 0.2283,0.0612 0.1764,0.0154 0.059,0.005 v 0 0 l 0.059,-0.005 0.1764,-0.0154 0.2283,-0.0612 0.2141,-0.0999 0.1936,-0.1355 0.1671,-0.1671 0.1299,-0.1856 0.0546,-0.0436 0.0695,-0.007 0.0624,0.0315 0.0167,0.0193 0.1297,0.1853 2e-4,3e-4 0.1671,0.1671 0.0968,0.0678 0.0968,0.0677 v 0 0 l 0.2141,0.0999 0.2283,0.0612 0.1764,0.0154 0.059,0.005 v 0 0 l 0.059,-0.005 0.1764,-0.0154 0.2283,-0.0612 0.2141,-0.0999 0.1936,-0.1355 0.1671,-0.1671 0.1302,-0.186 0.0546,-0.0436 0.0695,-0.007 0.0624,0.0315 0.0167,0.0193 0.13,0.1857 0.167,0.167 0.1935,0.1355 0.2141,0.0998 v 0 l 0.2135,0.0572 v -0.8976 l 0.057,0.0329 0.1272,0.0341 h 0.1316 l 0.1272,-0.0341 0.057,-0.0329 v 0.8976 l 0.2135,-0.0572 v 0 l 0.2141,-0.0998 0.1935,-0.1355 0.167,-0.167 0.13,-0.1857 0.0546,-0.0436 0.0695,-0.007 0.0623,0.0315 0.0168,0.0193 0.1302,0.186 0.1671,0.1671 0.0968,0.0678 0.0968,0.0677 v 0 0 l 0.2141,0.0999 0.2283,0.0612 0.1764,0.0154 0.059,0.005 v 0 0 l 0.059,-0.005 0.1764,-0.0154 0.2283,-0.0612 0.2141,-0.0999 0.1936,-0.1355 0.1671,-0.1671 0.1176,-0.168 0.0546,-0.0436 0.047,-0.009 h 3.0664 l 0.0845,-0.0168 0.0411,-0.008 0.1184,-0.049 0.0389,-0.026 v 0 l 0.0506,-0.0338 0.0171,-0.0114 4.4906,-4.4906 0.0526,-0.0788 0.0186,-0.0278 0.049,-0.1184 0.0134,-0.0672 0.0116,-0.0584 V 87.0745 l 0.0197,-0.067 0.0528,-0.0458 0.0515,-0.0112 h 0.1234 v 0 l 0.0596,-0.0064 0.1348,-0.0503 0.1152,-0.0863 0.0863,-0.1152 0.0503,-0.1348 0.006,-0.0596 v -1.7958 l -0.006,-0.0596 -0.0369,-0.0988 -0.0134,-0.036 v 0 l -0.0863,-0.1152 v 0 l -0.1152,-0.0863 v 0 l -0.1319,-0.0492 -0.0559,-0.0419 -0.0245,-0.0654 0.0149,-0.0683 0.0212,-0.0283 0.122,-0.122 0.1355,-0.1935 0.0998,-0.2141 v 0 l 0.0572,-0.2135 h -0.8976 l 0.0329,-0.057 0.0341,-0.1272 V 82.9942 L 157.2659,82.867 157.233,82.81 h 0.8976 v 0 l -0.0572,-0.2135 v 0 l -0.0998,-0.2141 v 0 l -0.1355,-0.1935 v 0 l -0.167,-0.167 -0.1857,-0.13 -0.0436,-0.0546 -0.007,-0.0695 0.0315,-0.0624 0.0193,-0.0167 0.186,-0.1302 0.1671,-0.1671 0.1355,-0.1936 0.0999,-0.2141 0.0612,-0.2283 0.0206,-0.2354 -0.0206,-0.2354 -0.0612,-0.2283 -0.0999,-0.2141 -0.0179,-0.0256 -0.1176,-0.168 -0.1671,-0.1671 v 0 l -0.1393,-0.0976 -0.0463,-0.0323 -0.0436,-0.0546 -0.007,-0.0695 0.0315,-0.0624 0.0193,-0.0167 0.1856,-0.1299 0.1671,-0.1671 0.1355,-0.1936 0.0999,-0.2141 0.0612,-0.2283 0.0206,-0.2354 -0.0206,-0.2354 -0.0465,-0.1733 -0.0147,-0.055 v 0 0 l -0.0999,-0.2141 -0.0324,-0.0463 -0.1031,-0.1473 -0.1671,-0.1671 v 0 l -0.0965,-0.0676 -0.0715,-0.05 -0.0436,-0.0546 -0.009,-0.047 v -0.1614 l -0.025,-0.1256 v 0 0 l -0.049,-0.1184 -0.0712,-0.1066 v 0 0 l -3.9156,-3.9156 v 0 l -0.1066,-0.0712 -0.1184,-0.049 v 0 l -0.1256,-0.025 v 0 h -3.4214 l -0.067,-0.0197 -0.0346,-0.0332 -0.003,-0.0041 -0.1148,-0.1639 v 0 l -0.1671,-0.1671 v 0 l -0.1936,-0.1355 v 0 0 l -0.2141,-0.0999 v 0 0 l -0.2283,-0.0612 v 0 L 148.36,71.4443 v 0 l -0.2354,0.0206 v 0 l -0.2283,0.0612 v 0 l -0.2141,0.0999 v 0 l -0.1936,0.1355 -0.1671,0.1671 -0.1299,0.1856 -0.0546,0.0436 -0.0695,0.0072 -0.0624,-0.0315 -0.0167,-0.0193 -0.1299,-0.1856 -0.1671,-0.1671 v 0 l -0.1936,-0.1355 v 0 0 l -0.2141,-0.0999 v 0 0 l -0.2283,-0.0612 v 0 L 145.82,71.4443 v 0 l -0.2354,0.0206 v 0 l -0.2283,0.0612 v 0 l -0.2141,0.0999 v 0 l -0.1936,0.1355 -0.1671,0.1671 -0.1299,0.1856 -0.0546,0.0436 -0.0695,0.0072 -0.0624,-0.0315 -0.0167,-0.0193 -0.1299,-0.1856 -0.1671,-0.1671 v 0 l -0.1936,-0.1355 v 0 0 l -0.2141,-0.0999 v 0 0 l -0.2283,-0.0612 v 0 L 143.28,71.4443 v 0 l -0.2354,0.0206 v 0 l -0.2283,0.0612 v 0 l -0.2141,0.0999 v 0 l -0.1936,0.1355 -0.1671,0.1671 -0.1299,0.1856 -0.0546,0.0436 -0.0695,0.0072 -0.0624,-0.0315 -0.0167,-0.0193 -0.1299,-0.1856 -0.1671,-0.1671 v 0 l -0.1936,-0.1355 v 0 0 l -0.2141,-0.0999 v 0 0 l -0.2283,-0.0612 v 0 L 140.74,71.4443 v 0 l -0.2354,0.0206 v 0 l -0.2283,0.0612 v 0 l -0.2141,0.0999 v 0 l -0.1936,0.1355 -0.1671,0.1671 -0.1299,0.1856 -0.0546,0.0436 -0.0695,0.0072 -0.0624,-0.0315 -0.0167,-0.0193 -0.1299,-0.1856 -0.1671,-0.1671 v 0 l -0.1936,-0.1355 v 0 0 l -0.2141,-0.0999 v 0 0 l -0.2283,-0.0612 v 0 L 138.2,71.4443 v 0 l -0.2354,0.0206 v 0 l -0.2283,0.0612 v 0 l -0.2141,0.0999 v 0 l -0.1936,0.1355 -0.1671,0.1671 -0.1299,0.1856 -0.0546,0.0436 -0.0695,0.0072 -0.0624,-0.0315 -0.0167,-0.0193 -0.1299,-0.1856 -0.1671,-0.1671 v 0 l -0.1936,-0.1355 v 0 0 l -0.2141,-0.0999 v 0 0 l -0.2283,-0.0612 v 0 L 135.66,71.4443 v 0 l -0.2354,0.0206 v 0 l -0.2283,0.0612 v 0 l -0.2141,0.0999 v 0 l -0.1936,0.1355 -0.1671,0.1671 -0.1299,0.1856 -0.0546,0.0436 -0.0695,0.0072 -0.0624,-0.0315 -0.0167,-0.0193 -0.1299,-0.1856 -0.1671,-0.1671 v 0 l -0.1936,-0.1355 v 0 0 l -0.2141,-0.0999 v 0 0 l -0.2283,-0.0612 v 0 L 133.12,71.4443 v 0 l -0.2354,0.0206 v 0 l -0.2283,0.0612 v 0 l -0.2141,0.0999 v 0 l -0.1936,0.1355 -0.1671,0.1671 -0.1299,0.1856 -0.0546,0.0436 -0.0695,0.0072 -0.0624,-0.0315 -0.0167,-0.0193 -0.1299,-0.1856 -0.1671,-0.1671 v 0 l -0.1936,-0.1355 v 0 0 l -0.2141,-0.0999 v 0 0 l -0.2283,-0.0612 v 0 L 130.58,71.4443 v 0 l -0.2354,0.0206 v 0 l -0.2283,0.0612 v 0 l -0.2141,0.0999 v 0 l -0.1936,0.1355 -0.1671,0.1671 -0.1299,0.1856 -0.0546,0.0436 -0.0695,0.0072 -0.0624,-0.0315 -0.0167,-0.0193 -0.1299,-0.1856 -0.1671,-0.1671 v 0 l -0.1936,-0.1355 v 0 0 l -0.2141,-0.0999 v 0 0 l -0.2283,-0.0612 v 0 L 128.04,71.4443 v 0 l -0.2354,0.0206 v 0 l -0.2283,0.0612 v 0 l -0.2141,0.0999 v 0 l -0.1936,0.1355 -0.1671,0.1671 -0.1299,0.1856 -0.0546,0.0436 -0.0695,0.0072 -0.0624,-0.0315 -0.0167,-0.0193 -0.1299,-0.1856 -0.1671,-0.1671 v 0 l -0.1936,-0.1355 v 0 0 l -0.2141,-0.0999 v 0 0 l -0.2283,-0.0612 v 0 L 125.5,71.4443 v 0 l -0.2354,0.0206 v 0 l -0.2283,0.0612 v 0 l -0.2141,0.0999 v 0 l -0.1936,0.1355 -0.1671,0.1671 -0.1302,0.186 -0.0546,0.0436 -0.0695,0.0072 -0.0624,-0.0315 -0.0167,-0.0193 -0.13,-0.1857 v 0 l -0.167,-0.167 -0.1935,-0.1355 -0.2141,-0.0998 v 0 L 123.21,71.4694 V 72.367 L 123.153,72.3341 123.0258,72.3 h -0.1316 l -0.1272,0.0341 -0.057,0.0329 v -0.8976 0 l -0.2135,0.0572 v 0 l -0.2141,0.0998 v 0 l -0.1935,0.1355 -0.122,0.122 -0.0614,0.0335 -0.0697,-0.005 -0.0559,-0.0418 -0.0169,-0.031 -0.0492,-0.1319 v 0 l -0.0863,-0.1152 v 0 l -0.1152,-0.0863 v 0 l -0.1348,-0.0503 v 0 l -0.0596,-0.0064 v 0 0 0 h -1.7958 v 0 l -0.0596,0.0064 -0.1348,0.0503 v 0 l -0.1152,0.0863 v 0 l -0.0863,0.1152 v 0 l -0.0503,0.1348 -0.006,0.0596 v 0 0.1234 l -0.0197,0.067 -0.0528,0.0458 -0.0515,0.0112 h -0.7096 l -0.1256,0.025 v 0 l -0.1184,0.049 -0.1066,0.0712 v 0 l -1.5906,1.5906 -0.0592,0.0887 v 0 l -0.012,0.0179 v 0 l -0.049,0.1184 v 0 l -0.025,0.1256 v 0.9664 l -0.0197,0.067 -0.0332,0.0346 -0.168,0.1176 -0.1671,0.1671 -0.1355,0.1936 v 0 l -0.0999,0.2141 v 0 l -0.0612,0.2283 v 0 l -0.0206,0.2354 h -1.5438 v -6.4355 l 0.0197,-0.067 0.0528,-0.0458 0.0515,-0.0112 h 44.751 z"
       id="path758" />
  </g>
  <g
     style="fill:#000000;fill-opacity:1;stroke:none"
     id="g764">
    <circle
       cx="120.27"
       cy="79.93"
       r="0.34999999"
       id="circle762" />
  </g>
  <g
     style="fill:#000000;fill-opacity:1;stroke:none"
     id="g768">
    <circle
       cx="146.0125"
       cy="80.862503"
       r="0.34999999"
       id="circle766" />
  </g>
  <g
     style="fill:#000000;fill-opacity:1;stroke:none"
     id="g772">
    <circle
       cx="146.10001"
       cy="102.875"
       r="0.34999999"
       id="circle770" />
  </g>
  <g
     style="fill:#000000;fill-opacity:1;stroke:none"
     id="g776">
    <circle
       cx="119.8"
       cy="97"
       r="0.34999999"
       id="circle774" />
  </g>
  <g
     style="fill:#000000;fill-opacity:1;stroke:none"
     id="g780">
    <circle
       cx="120.42"
       cy="72.800003"
       r="0.5"
       id="circle778" />
  </g>
  <g
     style="fill:#000000;fill-opacity:1;stroke:none"
     id="g784">
    <circle
       cx="122.96"
       cy="72.800003"
       r="0.5"
       id="circle782" />
  </g>
  <g
     style="fill:#000000;fill-opacity:1;stroke:none"
     id="g788">
    <circle
       cx="125.5"
       cy="72.800003"
       r="0.5"
       id="circle786" />
  </g>
  <g
     style="fill:#000000;fill-opacity:1;stroke:none"
     id="g792">
    <circle
       cx="128.03999"
       cy="72.800003"
       r="0.5"
       id="circle790" />
  </g>
  <g
     style="fill:#000000;fill-opacity:1;stroke:none"
     id="g796">
    <circle
       cx="130.58"
       cy="72.800003"
       r="0.5"
       id="circle794" />
  </g>
  <g
     style="fill:#000000;fill-opacity:1;stroke:none"
     id="g800">
    <circle
       cx="133.12"
       cy="72.800003"
       r="0.5"
       id="circle798" />
  </g>
  <g
     style="fill:#000000;fill-opacity:1;stroke:none"
     id="g804">
    <circle
       cx="135.66"
       cy="72.800003"
       r="0.5"
       id="circle802" />
  </g>
  <g
     style="fill:#000000;fill-opacity:1;stroke:none"
     id="g808">
    <circle
       cx="138.2"
       cy="72.800003"
       r="0.5"
       id="circle806" />
  </g>
  <g
     style="fill:#000000;fill-opacity:1;stroke:none"
     id="g812">
    <circle
       cx="140.74001"
       cy="72.800003"
       r="0.5"
       id="circle810" />
  </g>
  <g
     style="fill:#000000;fill-opacity:1;stroke:none"
     id="g816">
    <circle
       cx="143.28"
       cy="72.800003"
       r="0.5"
       id="circle814" />
  </g>
  <g
     style="fill:#000000;fill-opacity:1;stroke:none"
     id="g820">
    <circle
       cx="145.82001"
       cy="72.800003"
       r="0.5"
       id="circle818" />
  </g>
  <g
     style="fill:#000000;fill-opacity:1;stroke:none"
     id="g824">
    <circle
       cx="148.36"
       cy="72.800003"
       r="0.5"
       id="circle822" />
  </g>
  <g
     style="fill:#000000;fill-opacity:1;stroke:none"
     id="g828">
    <circle
       cx="126.075"
       cy="78.599998"
       r="0.5"
       id="circle826" />
  </g>
  <g
     style="fill:#000000;fill-opacity:1;stroke:none"
     id="g832">
    <circle
       cx="120.2"
       cy="108.4"
       r="0.5"
       id="circle830" />
  </g>
  <g
     style="fill:#000000;fill-opacity:1;stroke:none"
     id="g836">
    <circle
       cx="122.74"
       cy="108.4"
       r="0.5"
       id="circle834" />
  </g>
  <g
     style="fill:#000000;fill-opacity:1;stroke:none"
     id="g840">
    <circle
       cx="125.28"
       cy="108.4"
       r="0.5"
       id="circle838" />
  </g>
  <g
     style="fill:#000000;fill-opacity:1;stroke:none"
     id="g844">
    <circle
       cx="127.82"
       cy="108.4"
       r="0.5"
       id="circle842" />
  </g>
  <g
     style="fill:#000000;fill-opacity:1;stroke:none"
     id="g848">
    <circle
       cx="130.36"
       cy="108.4"
       r="0.5"
       id="circle846" />
  </g>
  <g
     style="fill:#000000;fill-opacity:1;stroke:none"
     id="g852">
    <circle
       cx="132.89999"
       cy="108.4"
       r="0.5"
       id="circle850" />
  </g>
  <g
     style="fill:#000000;fill-opacity:1;stroke:none"
     id="g856">
    <circle
       cx="135.44"
       cy="108.4"
       r="0.5"
       id="circle854" />
  </g>
  <g
     style="fill:#000000;fill-opacity:1;stroke:none"
     id="g860">
    <circle
       cx="137.98"
       cy="108.4"
       r="0.5"
       id="circle858" />
  </g>
  <g
     style="fill:#000000;fill-opacity:1;stroke:none"
     id="g864">
    <circle
       cx="140.52"
       cy="108.4"
       r="0.5"
       id="circle862" />
  </g>
  <g
     style="fill:#000000;fill-opacity:1;stroke:none"
     id="g868">
    <circle
       cx="143.06"
       cy="108.4"
       r="0.5"
       id="circle866" />
  </g>
  <g
     style="fill:#000000;fill-opacity:1;stroke:none"
     id="g872">
    <circle
       cx="145.60001"
       cy="108.4"
       r="0.5"
       id="circle870" />
  </g>
  <g
     style="fill:#000000;fill-opacity:1;stroke:none"
     id="g876">
    <circle
       cx="148.14"
       cy="108.4"
       r="0.5"
       id="circle874" />
  </g>
  <g
     style="fill:#000000;fill-opacity:1;stroke:none"
     id="g880">
    <circle
       cx="116.8"
       cy="104.4"
       r="0.5"
       id="circle878" />
  </g>
  <g
     style="fill:#000000;fill-opacity:1;stroke:none"
     id="g884">
    <circle
       cx="116.8"
       cy="101.86"
       r="0.5"
       id="circle882" />
  </g>
  <g
     style="fill:#000000;fill-opacity:1;stroke:none"
     id="g888">
    <circle
       cx="116.8"
       cy="99.32"
       r="0.5"
       id="circle886" />
  </g>
  <g
     style="fill:#000000;fill-opacity:1;stroke:none"
     id="g892">
    <circle
       cx="116.8"
       cy="96.779999"
       r="0.5"
       id="circle890" />
  </g>
  <g
     style="fill:#000000;fill-opacity:1;stroke:none"
     id="g896">
    <circle
       cx="116.8"
       cy="94.239998"
       r="0.5"
       id="circle894" />
  </g>
  <g
     style="fill:#000000;fill-opacity:1;stroke:none"
     id="g900">
    <circle
       cx="116.8"
       cy="91.699997"
       r="0.5"
       id="circle898" />
  </g>
  <g
     style="fill:#000000;fill-opacity:1;stroke:none"
     id="g904">
    <circle
       cx="116.8"
       cy="89.160004"
       r="0.5"
       id="circle902" />
  </g>
  <g
     style="fill:#000000;fill-opacity:1;stroke:none"
     id="g908">
    <circle
       cx="116.8"
       cy="86.620003"
       r="0.5"
       id="circle906" />
  </g>
  <g
     style="fill:#000000;fill-opacity:1;stroke:none"
     id="g912">
    <circle
       cx="116.8"
       cy="84.080002"
       r="0.5"
       id="circle910" />
  </g>
  <g
     style="fill:#000000;fill-opacity:1;stroke:none"
     id="g916">
    <circle
       cx="116.8"
       cy="81.540001"
       r="0.5"
       id="circle914" />
  </g>
  <g
     style="fill:#000000;fill-opacity:1;stroke:none"
     id="g920">
    <circle
       cx="116.8"
       cy="79"
       r="0.5"
       id="circle918" />
  </g>
  <g
     style="fill:#000000;fill-opacity:1;stroke:none"
     id="g924">
    <circle
       cx="116.8"
       cy="76.459999"
       r="0.5"
       id="circle922" />
  </g>
  <g
     style="fill:#000000;fill-opacity:1;stroke:none"
     id="g928">
    <circle
       cx="156.8"
       cy="85.599998"
       r="0.5"
       id="circle926" />
  </g>
  <g
     style="fill:#000000;fill-opacity:1;stroke:none"
     id="g932">
    <circle
       cx="156.8"
       cy="83.059998"
       r="0.5"
       id="circle930" />
  </g>
  <g
     style="fill:#000000;fill-opacity:1;stroke:none"
     id="g936">
    <circle
       cx="156.8"
       cy="80.519997"
       r="0.5"
       id="circle934" />
  </g>
  <g
     style="fill:#000000;fill-opacity:1;stroke:none"
     id="g940">
    <circle
       cx="156.8"
       cy="77.980003"
       r="0.5"
       id="circle938" />
  </g>
  <g
     style="fill:#000000;fill-opacity:1;stroke:none"
     id="g944">
    <circle
       cx="152.60001"
       cy="104.6"
       r="0.5"
       id="circle942" />
  </g>
  <g
     style="fill:#000000;fill-opacity:1;stroke:none"
     id="g948">
    <circle
       cx="152.60001"
       cy="102.06"
       r="0.5"
       id="circle946" />
  </g>
  <g
     style="fill:#000000;fill-opacity:1;stroke:none"
     id="g952">
    <circle
       cx="152.60001"
       cy="99.519997"
       r="0.5"
       id="circle950" />
  </g>
  <g
     style="fill:#000000;fill-opacity:1;stroke:none"
     id="g956">
    <circle
       cx="152.60001"
       cy="96.980003"
       r="0.5"
       id="circle954" />
  </g>
  <g
     style="fill:#000000;fill-opacity:1;stroke:none"
     id="g960">
    <circle
       cx="152.60001"
       cy="94.440002"
       r="0.5"
       id="circle958" />
  </g>
  <g
     style="fill:#000000;fill-opacity:1;stroke:none"
     id="g964">
    <circle
       cx="152.60001"
       cy="91.900002"
       r="0.5"
       id="circle962" />
  </g>
  <g
     style="fill:#000000;fill-opacity:1;stroke:none"
     id="g968">
    <circle
       cx="152.60001"
       cy="89.360001"
       r="0.5"
       id="circle966" />
  </g>
  <g
     style="fill:#000000;fill-opacity:1;stroke:none"
     id="g972">
    <circle
       cx="152.60001"
       cy="86.82"
       r="0.5"
       id="circle970" />
  </g>
  <g
     style="fill:#000000;fill-opacity:1;stroke:none"
     id="g976">
    <circle
       cx="152.60001"
       cy="84.279999"
       r="0.5"
       id="circle974" />
  </g>
  <g
     style="fill:#000000;fill-opacity:1;stroke:none"
     id="g980">
    <circle
       cx="152.60001"
       cy="81.739998"
       r="0.5"
       id="circle978" />
  </g>
  <g
     style="fill:#000000;fill-opacity:1;stroke:none"
     id="g984">
    <circle
       cx="152.60001"
       cy="79.199997"
       r="0.5"
       id="circle982" />
  </g>
  <g
     style="fill:#000000;fill-opacity:1;stroke:none"
     id="g988">
    <circle
       cx="152.60001"
       cy="76.660004"
       r="0.5"
       id="circle986" />
  </g>
  <metadata
     id="metadata996">
    <rdf:RDF>
      <cc:Work
         rdf:about="">
        <dc:title>SVG Image created as stmC80488-F_Cu.svg date 2024/09/19 15:00:16 </dc:title>
      </cc:Work>
    </rdf:RDF>
  </metadata>
</svg>
