<?xml version="1.0" standalone="no"?>
 <!DOCTYPE svg PUBLIC "-//W3C//DTD SVG 1.1//EN" 
 "http://www.w3.org/Graphics/SVG/1.1/DTD/svg11.dtd"> 
<svg
  xmlns:svg="http://www.w3.org/2000/svg"
  xmlns="http://www.w3.org/2000/svg"
  xmlns:xlink="http://www.w3.org/1999/xlink"
  version="1.1"
  width="297.0022mm" height="210.0072mm" viewBox="0.0000 0.0000 297.0022 210.0072">
<title>SVG Image created as stmC80488-F_Cu.svg date 2024/09/18 10:39:35 </title>
  <desc>Image generated by PCBNEW </desc>
<g style="fill:#000000; fill-opacity:1.0000;stroke:#000000; stroke-opacity:1.0000;
stroke-linecap:round; stroke-linejoin:round;"
 transform="translate(0 0) scale(1 1)">
</g>
<g style="fill:#000000; fill-opacity:1.0000; 
stroke:#000000; stroke-width:0.0212; stroke-opacity:1; 
stroke-linecap:round; stroke-linejoin:round;">
<rect x="107.000000" y="63.400000" width="58.800000" height="55.400000" rx="0.000000" />
<path style="fill:#FFFFFF; fill-opacity:1.0000; stroke:none;fill-rule:evenodd;"
d="M 129.3000,87.4000
129.3057,87.3713
129.3220,87.3470
129.3463,87.3307
129.3750,87.3250
130.7000,87.3250
130.7287,87.3307
130.7530,87.3470
130.7693,87.3713
130.7750,87.4000
130.7750,87.5500
130.7693,87.5787
130.7530,87.6030
130.7287,87.6193
130.7000,87.6250
129.3750,87.6250
129.3463,87.6193
129.3220,87.6030
129.3057,87.5787
129.3000,87.5500
Z" /> 
<path style="fill:#FFFFFF; fill-opacity:1.0000; stroke:none;fill-rule:evenodd;"
d="M 129.3000,87.9000
129.3057,87.8713
129.3220,87.8470
129.3463,87.8307
129.3750,87.8250
130.7000,87.8250
130.7287,87.8307
130.7530,87.8470
130.7693,87.8713
130.7750,87.9000
130.7750,88.0500
130.7693,88.0787
130.7530,88.1030
130.7287,88.1193
130.7000,88.1250
129.3750,88.1250
129.3463,88.1193
129.3220,88.1030
129.3057,88.0787
129.3000,88.0500
Z" /> 
<path style="fill:#FFFFFF; fill-opacity:1.0000; stroke:none;fill-rule:evenodd;"
d="M 129.3000,88.4000
129.3057,88.3713
129.3220,88.3470
129.3463,88.3307
129.3750,88.3250
130.7000,88.3250
130.7287,88.3307
130.7530,88.3470
130.7693,88.3713
130.7750,88.4000
130.7750,88.5500
130.7693,88.5787
130.7530,88.6030
130.7287,88.6193
130.7000,88.6250
129.3750,88.6250
129.3463,88.6193
129.3220,88.6030
129.3057,88.5787
129.3000,88.5500
Z" /> 
<path style="fill:#FFFFFF; fill-opacity:1.0000; stroke:none;fill-rule:evenodd;"
d="M 129.3000,88.9000
129.3057,88.8713
129.3220,88.8470
129.3463,88.8307
129.3750,88.8250
130.7000,88.8250
130.7287,88.8307
130.7530,88.8470
130.7693,88.8713
130.7750,88.9000
130.7750,89.0500
130.7693,89.0787
130.7530,89.1030
130.7287,89.1193
130.7000,89.1250
129.3750,89.1250
129.3463,89.1193
129.3220,89.1030
129.3057,89.0787
129.3000,89.0500
Z" /> 
<path style="fill:#FFFFFF; fill-opacity:1.0000; stroke:none;fill-rule:evenodd;"
d="M 129.3000,89.4000
129.3057,89.3713
129.3220,89.3470
129.3463,89.3307
129.3750,89.3250
130.7000,89.3250
130.7287,89.3307
130.7530,89.3470
130.7693,89.3713
130.7750,89.4000
130.7750,89.5500
130.7693,89.5787
130.7530,89.6030
130.7287,89.6193
130.7000,89.6250
129.3750,89.6250
129.3463,89.6193
129.3220,89.6030
129.3057,89.5787
129.3000,89.5500
Z" /> 
<path style="fill:#FFFFFF; fill-opacity:1.0000; stroke:none;fill-rule:evenodd;"
d="M 129.3000,89.9000
129.3057,89.8713
129.3220,89.8470
129.3463,89.8307
129.3750,89.8250
130.7000,89.8250
130.7287,89.8307
130.7530,89.8470
130.7693,89.8713
130.7750,89.9000
130.7750,90.0500
130.7693,90.0787
130.7530,90.1030
130.7287,90.1193
130.7000,90.1250
129.3750,90.1250
129.3463,90.1193
129.3220,90.1030
129.3057,90.0787
129.3000,90.0500
Z" /> 
<path style="fill:#FFFFFF; fill-opacity:1.0000; stroke:none;fill-rule:evenodd;"
d="M 129.3000,90.4000
129.3057,90.3713
129.3220,90.3470
129.3463,90.3307
129.3750,90.3250
130.7000,90.3250
130.7287,90.3307
130.7530,90.3470
130.7693,90.3713
130.7750,90.4000
130.7750,90.5500
130.7693,90.5787
130.7530,90.6030
130.7287,90.6193
130.7000,90.6250
129.3750,90.6250
129.3463,90.6193
129.3220,90.6030
129.3057,90.5787
129.3000,90.5500
Z" /> 
<path style="fill:#FFFFFF; fill-opacity:1.0000; stroke:none;fill-rule:evenodd;"
d="M 129.3000,90.9000
129.3057,90.8713
129.3220,90.8470
129.3463,90.8307
129.3750,90.8250
130.7000,90.8250
130.7287,90.8307
130.7530,90.8470
130.7693,90.8713
130.7750,90.9000
130.7750,91.0500
130.7693,91.0787
130.7530,91.1030
130.7287,91.1193
130.7000,91.1250
129.3750,91.1250
129.3463,91.1193
129.3220,91.1030
129.3057,91.0787
129.3000,91.0500
Z" /> 
<path style="fill:#FFFFFF; fill-opacity:1.0000; stroke:none;fill-rule:evenodd;"
d="M 129.3000,91.4000
129.3057,91.3713
129.3220,91.3470
129.3463,91.3307
129.3750,91.3250
130.7000,91.3250
130.7287,91.3307
130.7530,91.3470
130.7693,91.3713
130.7750,91.4000
130.7750,91.5500
130.7693,91.5787
130.7530,91.6030
130.7287,91.6193
130.7000,91.6250
129.3750,91.6250
129.3463,91.6193
129.3220,91.6030
129.3057,91.5787
129.3000,91.5500
Z" /> 
<path style="fill:#FFFFFF; fill-opacity:1.0000; stroke:none;fill-rule:evenodd;"
d="M 129.3000,91.9000
129.3057,91.8713
129.3220,91.8470
129.3463,91.8307
129.3750,91.8250
130.7000,91.8250
130.7287,91.8307
130.7530,91.8470
130.7693,91.8713
130.7750,91.9000
130.7750,92.0500
130.7693,92.0787
130.7530,92.1030
130.7287,92.1193
130.7000,92.1250
129.3750,92.1250
129.3463,92.1193
129.3220,92.1030
129.3057,92.0787
129.3000,92.0500
Z" /> 
<path style="fill:#FFFFFF; fill-opacity:1.0000; stroke:none;fill-rule:evenodd;"
d="M 129.3000,92.4000
129.3057,92.3713
129.3220,92.3470
129.3463,92.3307
129.3750,92.3250
130.7000,92.3250
130.7287,92.3307
130.7530,92.3470
130.7693,92.3713
130.7750,92.4000
130.7750,92.5500
130.7693,92.5787
130.7530,92.6030
130.7287,92.6193
130.7000,92.6250
129.3750,92.6250
129.3463,92.6193
129.3220,92.6030
129.3057,92.5787
129.3000,92.5500
Z" /> 
<path style="fill:#FFFFFF; fill-opacity:1.0000; stroke:none;fill-rule:evenodd;"
d="M 129.3000,92.9000
129.3057,92.8713
129.3220,92.8470
129.3463,92.8307
129.3750,92.8250
130.7000,92.8250
130.7287,92.8307
130.7530,92.8470
130.7693,92.8713
130.7750,92.9000
130.7750,93.0500
130.7693,93.0787
130.7530,93.1030
130.7287,93.1193
130.7000,93.1250
129.3750,93.1250
129.3463,93.1193
129.3220,93.1030
129.3057,93.0787
129.3000,93.0500
Z" /> 
<path style="fill:#FFFFFF; fill-opacity:1.0000; stroke:none;fill-rule:evenodd;"
d="M 131.3000,93.7250
131.3057,93.6963
131.3220,93.6720
131.3463,93.6557
131.3750,93.6500
131.5250,93.6500
131.5537,93.6557
131.5780,93.6720
131.5943,93.6963
131.6000,93.7250
131.6000,95.0500
131.5943,95.0787
131.5780,95.1030
131.5537,95.1193
131.5250,95.1250
131.3750,95.1250
131.3463,95.1193
131.3220,95.1030
131.3057,95.0787
131.3000,95.0500
Z" /> 
<path style="fill:#FFFFFF; fill-opacity:1.0000; stroke:none;fill-rule:evenodd;"
d="M 131.8000,93.7250
131.8057,93.6963
131.8220,93.6720
131.8463,93.6557
131.8750,93.6500
132.0250,93.6500
132.0537,93.6557
132.0780,93.6720
132.0943,93.6963
132.1000,93.7250
132.1000,95.0500
132.0943,95.0787
132.0780,95.1030
132.0537,95.1193
132.0250,95.1250
131.8750,95.1250
131.8463,95.1193
131.8220,95.1030
131.8057,95.0787
131.8000,95.0500
Z" /> 
<path style="fill:#FFFFFF; fill-opacity:1.0000; stroke:none;fill-rule:evenodd;"
d="M 132.3000,93.7250
132.3057,93.6963
132.3220,93.6720
132.3463,93.6557
132.3750,93.6500
132.5250,93.6500
132.5537,93.6557
132.5780,93.6720
132.5943,93.6963
132.6000,93.7250
132.6000,95.0500
132.5943,95.0787
132.5780,95.1030
132.5537,95.1193
132.5250,95.1250
132.3750,95.1250
132.3463,95.1193
132.3220,95.1030
132.3057,95.0787
132.3000,95.0500
Z" /> 
<path style="fill:#FFFFFF; fill-opacity:1.0000; stroke:none;fill-rule:evenodd;"
d="M 132.8000,93.7250
132.8057,93.6963
132.8220,93.6720
132.8463,93.6557
132.8750,93.6500
133.0250,93.6500
133.0537,93.6557
133.0780,93.6720
133.0943,93.6963
133.1000,93.7250
133.1000,95.0500
133.0943,95.0787
133.0780,95.1030
133.0537,95.1193
133.0250,95.1250
132.8750,95.1250
132.8463,95.1193
132.8220,95.1030
132.8057,95.0787
132.8000,95.0500
Z" /> 
<path style="fill:#FFFFFF; fill-opacity:1.0000; stroke:none;fill-rule:evenodd;"
d="M 133.3000,93.7250
133.3057,93.6963
133.3220,93.6720
133.3463,93.6557
133.3750,93.6500
133.5250,93.6500
133.5537,93.6557
133.5780,93.6720
133.5943,93.6963
133.6000,93.7250
133.6000,95.0500
133.5943,95.0787
133.5780,95.1030
133.5537,95.1193
133.5250,95.1250
133.3750,95.1250
133.3463,95.1193
133.3220,95.1030
133.3057,95.0787
133.3000,95.0500
Z" /> 
<path style="fill:#FFFFFF; fill-opacity:1.0000; stroke:none;fill-rule:evenodd;"
d="M 133.8000,93.7250
133.8057,93.6963
133.8220,93.6720
133.8463,93.6557
133.8750,93.6500
134.0250,93.6500
134.0537,93.6557
134.0780,93.6720
134.0943,93.6963
134.1000,93.7250
134.1000,95.0500
134.0943,95.0787
134.0780,95.1030
134.0537,95.1193
134.0250,95.1250
133.8750,95.1250
133.8463,95.1193
133.8220,95.1030
133.8057,95.0787
133.8000,95.0500
Z" /> 
<path style="fill:#FFFFFF; fill-opacity:1.0000; stroke:none;fill-rule:evenodd;"
d="M 134.3000,93.7250
134.3057,93.6963
134.3220,93.6720
134.3463,93.6557
134.3750,93.6500
134.5250,93.6500
134.5537,93.6557
134.5780,93.6720
134.5943,93.6963
134.6000,93.7250
134.6000,95.0500
134.5943,95.0787
134.5780,95.1030
134.5537,95.1193
134.5250,95.1250
134.3750,95.1250
134.3463,95.1193
134.3220,95.1030
134.3057,95.0787
134.3000,95.0500
Z" /> 
<path style="fill:#FFFFFF; fill-opacity:1.0000; stroke:none;fill-rule:evenodd;"
d="M 134.8000,93.7250
134.8057,93.6963
134.8220,93.6720
134.8463,93.6557
134.8750,93.6500
135.0250,93.6500
135.0537,93.6557
135.0780,93.6720
135.0943,93.6963
135.1000,93.7250
135.1000,95.0500
135.0943,95.0787
135.0780,95.1030
135.0537,95.1193
135.0250,95.1250
134.8750,95.1250
134.8463,95.1193
134.8220,95.1030
134.8057,95.0787
134.8000,95.0500
Z" /> 
<path style="fill:#FFFFFF; fill-opacity:1.0000; stroke:none;fill-rule:evenodd;"
d="M 135.3000,93.7250
135.3057,93.6963
135.3220,93.6720
135.3463,93.6557
135.3750,93.6500
135.5250,93.6500
135.5537,93.6557
135.5780,93.6720
135.5943,93.6963
135.6000,93.7250
135.6000,95.0500
135.5943,95.0787
135.5780,95.1030
135.5537,95.1193
135.5250,95.1250
135.3750,95.1250
135.3463,95.1193
135.3220,95.1030
135.3057,95.0787
135.3000,95.0500
Z" /> 
<path style="fill:#FFFFFF; fill-opacity:1.0000; stroke:none;fill-rule:evenodd;"
d="M 135.8000,93.7250
135.8057,93.6963
135.8220,93.6720
135.8463,93.6557
135.8750,93.6500
136.0250,93.6500
136.0537,93.6557
136.0780,93.6720
136.0943,93.6963
136.1000,93.7250
136.1000,95.0500
136.0943,95.0787
136.0780,95.1030
136.0537,95.1193
136.0250,95.1250
135.8750,95.1250
135.8463,95.1193
135.8220,95.1030
135.8057,95.0787
135.8000,95.0500
Z" /> 
<path style="fill:#FFFFFF; fill-opacity:1.0000; stroke:none;fill-rule:evenodd;"
d="M 136.3000,93.7250
136.3057,93.6963
136.3220,93.6720
136.3463,93.6557
136.3750,93.6500
136.5250,93.6500
136.5537,93.6557
136.5780,93.6720
136.5943,93.6963
136.6000,93.7250
136.6000,95.0500
136.5943,95.0787
136.5780,95.1030
136.5537,95.1193
136.5250,95.1250
136.3750,95.1250
136.3463,95.1193
136.3220,95.1030
136.3057,95.0787
136.3000,95.0500
Z" /> 
<path style="fill:#FFFFFF; fill-opacity:1.0000; stroke:none;fill-rule:evenodd;"
d="M 136.8000,93.7250
136.8057,93.6963
136.8220,93.6720
136.8463,93.6557
136.8750,93.6500
137.0250,93.6500
137.0537,93.6557
137.0780,93.6720
137.0943,93.6963
137.1000,93.7250
137.1000,95.0500
137.0943,95.0787
137.0780,95.1030
137.0537,95.1193
137.0250,95.1250
136.8750,95.1250
136.8463,95.1193
136.8220,95.1030
136.8057,95.0787
136.8000,95.0500
Z" /> 
<path style="fill:#FFFFFF; fill-opacity:1.0000; stroke:none;fill-rule:evenodd;"
d="M 137.6250,92.9000
137.6307,92.8713
137.6470,92.8470
137.6713,92.8307
137.7000,92.8250
139.0250,92.8250
139.0537,92.8307
139.0780,92.8470
139.0943,92.8713
139.1000,92.9000
139.1000,93.0500
139.0943,93.0787
139.0780,93.1030
139.0537,93.1193
139.0250,93.1250
137.7000,93.1250
137.6713,93.1193
137.6470,93.1030
137.6307,93.0787
137.6250,93.0500
Z" /> 
<path style="fill:#FFFFFF; fill-opacity:1.0000; stroke:none;fill-rule:evenodd;"
d="M 137.6250,92.4000
137.6307,92.3713
137.6470,92.3470
137.6713,92.3307
137.7000,92.3250
139.0250,92.3250
139.0537,92.3307
139.0780,92.3470
139.0943,92.3713
139.1000,92.4000
139.1000,92.5500
139.0943,92.5787
139.0780,92.6030
139.0537,92.6193
139.0250,92.6250
137.7000,92.6250
137.6713,92.6193
137.6470,92.6030
137.6307,92.5787
137.6250,92.5500
Z" /> 
<path style="fill:#FFFFFF; fill-opacity:1.0000; stroke:none;fill-rule:evenodd;"
d="M 137.6250,91.9000
137.6307,91.8713
137.6470,91.8470
137.6713,91.8307
137.7000,91.8250
139.0250,91.8250
139.0537,91.8307
139.0780,91.8470
139.0943,91.8713
139.1000,91.9000
139.1000,92.0500
139.0943,92.0787
139.0780,92.1030
139.0537,92.1193
139.0250,92.1250
137.7000,92.1250
137.6713,92.1193
137.6470,92.1030
137.6307,92.0787
137.6250,92.0500
Z" /> 
<path style="fill:#FFFFFF; fill-opacity:1.0000; stroke:none;fill-rule:evenodd;"
d="M 137.6250,91.4000
137.6307,91.3713
137.6470,91.3470
137.6713,91.3307
137.7000,91.3250
139.0250,91.3250
139.0537,91.3307
139.0780,91.3470
139.0943,91.3713
139.1000,91.4000
139.1000,91.5500
139.0943,91.5787
139.0780,91.6030
139.0537,91.6193
139.0250,91.6250
137.7000,91.6250
137.6713,91.6193
137.6470,91.6030
137.6307,91.5787
137.6250,91.5500
Z" /> 
<path style="fill:#FFFFFF; fill-opacity:1.0000; stroke:none;fill-rule:evenodd;"
d="M 137.6250,90.9000
137.6307,90.8713
137.6470,90.8470
137.6713,90.8307
137.7000,90.8250
139.0250,90.8250
139.0537,90.8307
139.0780,90.8470
139.0943,90.8713
139.1000,90.9000
139.1000,91.0500
139.0943,91.0787
139.0780,91.1030
139.0537,91.1193
139.0250,91.1250
137.7000,91.1250
137.6713,91.1193
137.6470,91.1030
137.6307,91.0787
137.6250,91.0500
Z" /> 
<path style="fill:#FFFFFF; fill-opacity:1.0000; stroke:none;fill-rule:evenodd;"
d="M 137.6250,90.4000
137.6307,90.3713
137.6470,90.3470
137.6713,90.3307
137.7000,90.3250
139.0250,90.3250
139.0537,90.3307
139.0780,90.3470
139.0943,90.3713
139.1000,90.4000
139.1000,90.5500
139.0943,90.5787
139.0780,90.6030
139.0537,90.6193
139.0250,90.6250
137.7000,90.6250
137.6713,90.6193
137.6470,90.6030
137.6307,90.5787
137.6250,90.5500
Z" /> 
<path style="fill:#FFFFFF; fill-opacity:1.0000; stroke:none;fill-rule:evenodd;"
d="M 137.6250,89.9000
137.6307,89.8713
137.6470,89.8470
137.6713,89.8307
137.7000,89.8250
139.0250,89.8250
139.0537,89.8307
139.0780,89.8470
139.0943,89.8713
139.1000,89.9000
139.1000,90.0500
139.0943,90.0787
139.0780,90.1030
139.0537,90.1193
139.0250,90.1250
137.7000,90.1250
137.6713,90.1193
137.6470,90.1030
137.6307,90.0787
137.6250,90.0500
Z" /> 
<path style="fill:#FFFFFF; fill-opacity:1.0000; stroke:none;fill-rule:evenodd;"
d="M 137.6250,89.4000
137.6307,89.3713
137.6470,89.3470
137.6713,89.3307
137.7000,89.3250
139.0250,89.3250
139.0537,89.3307
139.0780,89.3470
139.0943,89.3713
139.1000,89.4000
139.1000,89.5500
139.0943,89.5787
139.0780,89.6030
139.0537,89.6193
139.0250,89.6250
137.7000,89.6250
137.6713,89.6193
137.6470,89.6030
137.6307,89.5787
137.6250,89.5500
Z" /> 
<path style="fill:#FFFFFF; fill-opacity:1.0000; stroke:none;fill-rule:evenodd;"
d="M 137.6250,88.9000
137.6307,88.8713
137.6470,88.8470
137.6713,88.8307
137.7000,88.8250
139.0250,88.8250
139.0537,88.8307
139.0780,88.8470
139.0943,88.8713
139.1000,88.9000
139.1000,89.0500
139.0943,89.0787
139.0780,89.1030
139.0537,89.1193
139.0250,89.1250
137.7000,89.1250
137.6713,89.1193
137.6470,89.1030
137.6307,89.0787
137.6250,89.0500
Z" /> 
<path style="fill:#FFFFFF; fill-opacity:1.0000; stroke:none;fill-rule:evenodd;"
d="M 137.6250,88.4000
137.6307,88.3713
137.6470,88.3470
137.6713,88.3307
137.7000,88.3250
139.0250,88.3250
139.0537,88.3307
139.0780,88.3470
139.0943,88.3713
139.1000,88.4000
139.1000,88.5500
139.0943,88.5787
139.0780,88.6030
139.0537,88.6193
139.0250,88.6250
137.7000,88.6250
137.6713,88.6193
137.6470,88.6030
137.6307,88.5787
137.6250,88.5500
Z" /> 
<path style="fill:#FFFFFF; fill-opacity:1.0000; stroke:none;fill-rule:evenodd;"
d="M 137.6250,87.9000
137.6307,87.8713
137.6470,87.8470
137.6713,87.8307
137.7000,87.8250
139.0250,87.8250
139.0537,87.8307
139.0780,87.8470
139.0943,87.8713
139.1000,87.9000
139.1000,88.0500
139.0943,88.0787
139.0780,88.1030
139.0537,88.1193
139.0250,88.1250
137.7000,88.1250
137.6713,88.1193
137.6470,88.1030
137.6307,88.0787
137.6250,88.0500
Z" /> 
<path style="fill:#FFFFFF; fill-opacity:1.0000; stroke:none;fill-rule:evenodd;"
d="M 137.6250,87.4000
137.6307,87.3713
137.6470,87.3470
137.6713,87.3307
137.7000,87.3250
139.0250,87.3250
139.0537,87.3307
139.0780,87.3470
139.0943,87.3713
139.1000,87.4000
139.1000,87.5500
139.0943,87.5787
139.0780,87.6030
139.0537,87.6193
139.0250,87.6250
137.7000,87.6250
137.6713,87.6193
137.6470,87.6030
137.6307,87.5787
137.6250,87.5500
Z" /> 
<path style="fill:#FFFFFF; fill-opacity:1.0000; stroke:none;fill-rule:evenodd;"
d="M 136.8000,85.4000
136.8057,85.3713
136.8220,85.3470
136.8463,85.3307
136.8750,85.3250
137.0250,85.3250
137.0537,85.3307
137.0780,85.3470
137.0943,85.3713
137.1000,85.4000
137.1000,86.7250
137.0943,86.7537
137.0780,86.7780
137.0537,86.7943
137.0250,86.8000
136.8750,86.8000
136.8463,86.7943
136.8220,86.7780
136.8057,86.7537
136.8000,86.7250
Z" /> 
<path style="fill:#FFFFFF; fill-opacity:1.0000; stroke:none;fill-rule:evenodd;"
d="M 136.3000,85.4000
136.3057,85.3713
136.3220,85.3470
136.3463,85.3307
136.3750,85.3250
136.5250,85.3250
136.5537,85.3307
136.5780,85.3470
136.5943,85.3713
136.6000,85.4000
136.6000,86.7250
136.5943,86.7537
136.5780,86.7780
136.5537,86.7943
136.5250,86.8000
136.3750,86.8000
136.3463,86.7943
136.3220,86.7780
136.3057,86.7537
136.3000,86.7250
Z" /> 
<path style="fill:#FFFFFF; fill-opacity:1.0000; stroke:none;fill-rule:evenodd;"
d="M 135.8000,85.4000
135.8057,85.3713
135.8220,85.3470
135.8463,85.3307
135.8750,85.3250
136.0250,85.3250
136.0537,85.3307
136.0780,85.3470
136.0943,85.3713
136.1000,85.4000
136.1000,86.7250
136.0943,86.7537
136.0780,86.7780
136.0537,86.7943
136.0250,86.8000
135.8750,86.8000
135.8463,86.7943
135.8220,86.7780
135.8057,86.7537
135.8000,86.7250
Z" /> 
<path style="fill:#FFFFFF; fill-opacity:1.0000; stroke:none;fill-rule:evenodd;"
d="M 135.3000,85.4000
135.3057,85.3713
135.3220,85.3470
135.3463,85.3307
135.3750,85.3250
135.5250,85.3250
135.5537,85.3307
135.5780,85.3470
135.5943,85.3713
135.6000,85.4000
135.6000,86.7250
135.5943,86.7537
135.5780,86.7780
135.5537,86.7943
135.5250,86.8000
135.3750,86.8000
135.3463,86.7943
135.3220,86.7780
135.3057,86.7537
135.3000,86.7250
Z" /> 
<path style="fill:#FFFFFF; fill-opacity:1.0000; stroke:none;fill-rule:evenodd;"
d="M 134.8000,85.4000
134.8057,85.3713
134.8220,85.3470
134.8463,85.3307
134.8750,85.3250
135.0250,85.3250
135.0537,85.3307
135.0780,85.3470
135.0943,85.3713
135.1000,85.4000
135.1000,86.7250
135.0943,86.7537
135.0780,86.7780
135.0537,86.7943
135.0250,86.8000
134.8750,86.8000
134.8463,86.7943
134.8220,86.7780
134.8057,86.7537
134.8000,86.7250
Z" /> 
<path style="fill:#FFFFFF; fill-opacity:1.0000; stroke:none;fill-rule:evenodd;"
d="M 134.3000,85.4000
134.3057,85.3713
134.3220,85.3470
134.3463,85.3307
134.3750,85.3250
134.5250,85.3250
134.5537,85.3307
134.5780,85.3470
134.5943,85.3713
134.6000,85.4000
134.6000,86.7250
134.5943,86.7537
134.5780,86.7780
134.5537,86.7943
134.5250,86.8000
134.3750,86.8000
134.3463,86.7943
134.3220,86.7780
134.3057,86.7537
134.3000,86.7250
Z" /> 
<path style="fill:#FFFFFF; fill-opacity:1.0000; stroke:none;fill-rule:evenodd;"
d="M 133.8000,85.4000
133.8057,85.3713
133.8220,85.3470
133.8463,85.3307
133.8750,85.3250
134.0250,85.3250
134.0537,85.3307
134.0780,85.3470
134.0943,85.3713
134.1000,85.4000
134.1000,86.7250
134.0943,86.7537
134.0780,86.7780
134.0537,86.7943
134.0250,86.8000
133.8750,86.8000
133.8463,86.7943
133.8220,86.7780
133.8057,86.7537
133.8000,86.7250
Z" /> 
<path style="fill:#FFFFFF; fill-opacity:1.0000; stroke:none;fill-rule:evenodd;"
d="M 133.3000,85.4000
133.3057,85.3713
133.3220,85.3470
133.3463,85.3307
133.3750,85.3250
133.5250,85.3250
133.5537,85.3307
133.5780,85.3470
133.5943,85.3713
133.6000,85.4000
133.6000,86.7250
133.5943,86.7537
133.5780,86.7780
133.5537,86.7943
133.5250,86.8000
133.3750,86.8000
133.3463,86.7943
133.3220,86.7780
133.3057,86.7537
133.3000,86.7250
Z" /> 
<path style="fill:#FFFFFF; fill-opacity:1.0000; stroke:none;fill-rule:evenodd;"
d="M 132.8000,85.4000
132.8057,85.3713
132.8220,85.3470
132.8463,85.3307
132.8750,85.3250
133.0250,85.3250
133.0537,85.3307
133.0780,85.3470
133.0943,85.3713
133.1000,85.4000
133.1000,86.7250
133.0943,86.7537
133.0780,86.7780
133.0537,86.7943
133.0250,86.8000
132.8750,86.8000
132.8463,86.7943
132.8220,86.7780
132.8057,86.7537
132.8000,86.7250
Z" /> 
<path style="fill:#FFFFFF; fill-opacity:1.0000; stroke:none;fill-rule:evenodd;"
d="M 132.3000,85.4000
132.3057,85.3713
132.3220,85.3470
132.3463,85.3307
132.3750,85.3250
132.5250,85.3250
132.5537,85.3307
132.5780,85.3470
132.5943,85.3713
132.6000,85.4000
132.6000,86.7250
132.5943,86.7537
132.5780,86.7780
132.5537,86.7943
132.5250,86.8000
132.3750,86.8000
132.3463,86.7943
132.3220,86.7780
132.3057,86.7537
132.3000,86.7250
Z" /> 
<path style="fill:#FFFFFF; fill-opacity:1.0000; stroke:none;fill-rule:evenodd;"
d="M 131.8000,85.4000
131.8057,85.3713
131.8220,85.3470
131.8463,85.3307
131.8750,85.3250
132.0250,85.3250
132.0537,85.3307
132.0780,85.3470
132.0943,85.3713
132.1000,85.4000
132.1000,86.7250
132.0943,86.7537
132.0780,86.7780
132.0537,86.7943
132.0250,86.8000
131.8750,86.8000
131.8463,86.7943
131.8220,86.7780
131.8057,86.7537
131.8000,86.7250
Z" /> 
<path style="fill:#FFFFFF; fill-opacity:1.0000; stroke:none;fill-rule:evenodd;"
d="M 131.3000,85.4000
131.3057,85.3713
131.3220,85.3470
131.3463,85.3307
131.3750,85.3250
131.5250,85.3250
131.5537,85.3307
131.5780,85.3470
131.5943,85.3713
131.6000,85.4000
131.6000,86.7250
131.5943,86.7537
131.5780,86.7780
131.5537,86.7943
131.5250,86.8000
131.3750,86.8000
131.3463,86.7943
131.3220,86.7780
131.3057,86.7537
131.3000,86.7250
Z" /> 
<path style="fill:#FFFFFF; fill-opacity:1.0000; stroke:none;fill-rule:evenodd;"
d="M 121.2700,73.6500
119.5700,73.6500
119.5700,71.9500
121.2700,71.9500
Z" /> 
</g>
<g style="fill:#FFFFFF; fill-opacity:1.0000; stroke:none;">
<circle cx="122.9600" cy="72.8000" r="0.8500" /> 
<circle cx="125.5000" cy="72.8000" r="0.8500" /> 
<circle cx="128.0400" cy="72.8000" r="0.8500" /> 
<circle cx="130.5800" cy="72.8000" r="0.8500" /> 
<circle cx="133.1200" cy="72.8000" r="0.8500" /> 
<circle cx="135.6600" cy="72.8000" r="0.8500" /> 
<circle cx="138.2000" cy="72.8000" r="0.8500" /> 
<circle cx="140.7400" cy="72.8000" r="0.8500" /> 
<circle cx="143.2800" cy="72.8000" r="0.8500" /> 
<circle cx="145.8200" cy="72.8000" r="0.8500" /> 
<circle cx="148.3600" cy="72.8000" r="0.8500" /> 
<path style="fill:#FFFFFF; fill-opacity:1.0000; stroke:none;fill-rule:evenodd;"
d="M 125.2250,79.4500
125.2250,77.7500
126.9250,77.7500
126.9250,79.4500
Z" /> 
<path style="fill:#FFFFFF; fill-opacity:1.0000; stroke:none;fill-rule:evenodd;"
d="M 124.3250,94.2500
124.2293,94.2310
124.1482,94.1768
124.0940,94.0957
124.0750,94.0000
124.0750,93.5000
124.0940,93.4043
124.1482,93.3232
124.2293,93.2690
124.3250,93.2500
125.2750,93.2500
125.3707,93.2690
125.4518,93.3232
125.5060,93.4043
125.5250,93.5000
125.5250,94.0000
125.5060,94.0957
125.4518,94.1768
125.3707,94.2310
125.2750,94.2500
Z" /> 
<path style="fill:#FFFFFF; fill-opacity:1.0000; stroke:none;fill-rule:evenodd;"
d="M 124.3250,92.3500
124.2293,92.3310
124.1482,92.2768
124.0940,92.1957
124.0750,92.1000
124.0750,91.6000
124.0940,91.5043
124.1482,91.4232
124.2293,91.3690
124.3250,91.3500
125.2750,91.3500
125.3707,91.3690
125.4518,91.4232
125.5060,91.5043
125.5250,91.6000
125.5250,92.1000
125.5060,92.1957
125.4518,92.2768
125.3707,92.3310
125.2750,92.3500
Z" /> 
<path style="fill:#FFFFFF; fill-opacity:1.0000; stroke:none;fill-rule:evenodd;"
d="M 121.8500,93.6500
123.3500,93.6500
123.3500,95.5500
121.8500,95.5500
Z" /> 
<path style="fill:#FFFFFF; fill-opacity:1.0000; stroke:none;fill-rule:evenodd;"
d="M 121.8500,101.6500
123.3500,101.6500
123.3500,103.5500
121.8500,103.5500
Z" /> 
<path style="fill:#FFFFFF; fill-opacity:1.0000; stroke:none;fill-rule:evenodd;"
d="M 126.3250,84.2500
126.2293,84.2310
126.1482,84.1768
126.0940,84.0957
126.0750,84.0000
126.0750,83.5000
126.0940,83.4043
126.1482,83.3232
126.2293,83.2690
126.3250,83.2500
127.2750,83.2500
127.3707,83.2690
127.4518,83.3232
127.5060,83.4043
127.5250,83.5000
127.5250,84.0000
127.5060,84.0957
127.4518,84.1768
127.3707,84.2310
127.2750,84.2500
Z" /> 
<path style="fill:#FFFFFF; fill-opacity:1.0000; stroke:none;fill-rule:evenodd;"
d="M 126.3250,82.3500
126.2293,82.3310
126.1482,82.2768
126.0940,82.1957
126.0750,82.1000
126.0750,81.6000
126.0940,81.5043
126.1482,81.4232
126.2293,81.3690
126.3250,81.3500
127.2750,81.3500
127.3707,81.3690
127.4518,81.4232
127.5060,81.5043
127.5250,81.6000
127.5250,82.1000
127.5060,82.1957
127.4518,82.2768
127.3707,82.3310
127.2750,82.3500
Z" /> 
<path style="fill:#FFFFFF; fill-opacity:1.0000; stroke:none;fill-rule:evenodd;"
d="M 140.8000,96.6000
140.8957,96.6190
140.9768,96.6732
141.0310,96.7543
141.0500,96.8500
141.0500,97.3500
141.0310,97.4457
140.9768,97.5268
140.8957,97.5810
140.8000,97.6000
139.8500,97.6000
139.7543,97.5810
139.6732,97.5268
139.6190,97.4457
139.6000,97.3500
139.6000,96.8500
139.6190,96.7543
139.6732,96.6732
139.7543,96.6190
139.8500,96.6000
Z" /> 
<path style="fill:#FFFFFF; fill-opacity:1.0000; stroke:none;fill-rule:evenodd;"
d="M 140.8000,98.5000
140.8957,98.5190
140.9768,98.5732
141.0310,98.6543
141.0500,98.7500
141.0500,99.2500
141.0310,99.3457
140.9768,99.4268
140.8957,99.4810
140.8000,99.5000
139.8500,99.5000
139.7543,99.4810
139.6732,99.4268
139.6190,99.3457
139.6000,99.2500
139.6000,98.7500
139.6190,98.6543
139.6732,98.5732
139.7543,98.5190
139.8500,98.5000
Z" /> 
<path style="fill:#FFFFFF; fill-opacity:1.0000; stroke:none;fill-rule:evenodd;"
d="M 121.3625,76.7062
121.3777,76.6297
121.4211,76.5648
121.4860,76.5215
121.5625,76.5062
121.9625,76.5062
122.0390,76.5215
122.1039,76.5648
122.1473,76.6297
122.1625,76.7062
122.1625,77.2562
122.1473,77.3328
122.1039,77.3977
122.0390,77.4410
121.9625,77.4562
121.5625,77.4562
121.4860,77.4410
121.4211,77.3977
121.3777,77.3328
121.3625,77.2562
Z" /> 
<path style="fill:#FFFFFF; fill-opacity:1.0000; stroke:none;fill-rule:evenodd;"
d="M 123.0125,76.7062
123.0277,76.6297
123.0711,76.5648
123.1360,76.5215
123.2125,76.5062
123.6125,76.5062
123.6890,76.5215
123.7539,76.5648
123.7973,76.6297
123.8125,76.7062
123.8125,77.2562
123.7973,77.3328
123.7539,77.3977
123.6890,77.4410
123.6125,77.4562
123.2125,77.4562
123.1360,77.4410
123.0711,77.3977
123.0277,77.3328
123.0125,77.2562
Z" /> 
<path style="fill:#FFFFFF; fill-opacity:1.0000; stroke:none;fill-rule:evenodd;"
d="M 128.7250,85.0500
128.6293,85.0310
128.5482,84.9768
128.4940,84.8957
128.4750,84.8000
128.4750,84.3000
128.4940,84.2043
128.5482,84.1232
128.6293,84.0690
128.7250,84.0500
129.6750,84.0500
129.7707,84.0690
129.8518,84.1232
129.9060,84.2043
129.9250,84.3000
129.9250,84.8000
129.9060,84.8957
129.8518,84.9768
129.7707,85.0310
129.6750,85.0500
Z" /> 
<path style="fill:#FFFFFF; fill-opacity:1.0000; stroke:none;fill-rule:evenodd;"
d="M 128.7250,83.1500
128.6293,83.1310
128.5482,83.0768
128.4940,82.9957
128.4750,82.9000
128.4750,82.4000
128.4940,82.3043
128.5482,82.2232
128.6293,82.1690
128.7250,82.1500
129.6750,82.1500
129.7707,82.1690
129.8518,82.2232
129.9060,82.3043
129.9250,82.4000
129.9250,82.9000
129.9060,82.9957
129.8518,83.0768
129.7707,83.1310
129.6750,83.1500
Z" /> 
<path style="fill:#FFFFFF; fill-opacity:1.0000; stroke:none;fill-rule:evenodd;"
d="M 121.0500,109.2500
119.3500,109.2500
119.3500,107.5500
121.0500,107.5500
Z" /> 
<circle cx="122.7400" cy="108.4000" r="0.8500" /> 
<circle cx="125.2800" cy="108.4000" r="0.8500" /> 
<circle cx="127.8200" cy="108.4000" r="0.8500" /> 
<circle cx="130.3600" cy="108.4000" r="0.8500" /> 
<circle cx="132.9000" cy="108.4000" r="0.8500" /> 
<circle cx="135.4400" cy="108.4000" r="0.8500" /> 
<circle cx="137.9800" cy="108.4000" r="0.8500" /> 
<circle cx="140.5200" cy="108.4000" r="0.8500" /> 
<circle cx="143.0600" cy="108.4000" r="0.8500" /> 
<circle cx="145.6000" cy="108.4000" r="0.8500" /> 
<circle cx="148.1400" cy="108.4000" r="0.8500" /> 
<path style="fill:#FFFFFF; fill-opacity:1.0000; stroke:none;fill-rule:evenodd;"
d="M 117.6500,103.5500
117.6500,105.2500
115.9500,105.2500
115.9500,103.5500
Z" /> 
<circle cx="116.8000" cy="101.8600" r="0.8500" /> 
<circle cx="116.8000" cy="99.3200" r="0.8500" /> 
<circle cx="116.8000" cy="96.7800" r="0.8500" /> 
<circle cx="116.8000" cy="94.2400" r="0.8500" /> 
<circle cx="116.8000" cy="91.7000" r="0.8500" /> 
<circle cx="116.8000" cy="89.1600" r="0.8500" /> 
<circle cx="116.8000" cy="86.6200" r="0.8500" /> 
<circle cx="116.8000" cy="84.0800" r="0.8500" /> 
<circle cx="116.8000" cy="81.5400" r="0.8500" /> 
<circle cx="116.8000" cy="79.0000" r="0.8500" /> 
<circle cx="116.8000" cy="76.4600" r="0.8500" /> 
<path style="fill:#FFFFFF; fill-opacity:1.0000; stroke:none;fill-rule:evenodd;"
d="M 123.8125,79.2375
123.7958,79.3212
123.7484,79.3922
123.6775,79.4396
123.5938,79.4562
123.1562,79.4562
123.0725,79.4396
123.0016,79.3922
122.9542,79.3212
122.9375,79.2375
122.9375,78.7250
122.9542,78.6413
123.0016,78.5703
123.0725,78.5229
123.1562,78.5062
123.5938,78.5062
123.6775,78.5229
123.7484,78.5703
123.7958,78.6413
123.8125,78.7250
Z" /> 
<path style="fill:#FFFFFF; fill-opacity:1.0000; stroke:none;fill-rule:evenodd;"
d="M 122.2375,79.2375
122.2208,79.3212
122.1734,79.3922
122.1025,79.4396
122.0187,79.4562
121.5812,79.4562
121.4975,79.4396
121.4266,79.3922
121.3792,79.3212
121.3625,79.2375
121.3625,78.7250
121.3792,78.6413
121.4266,78.5703
121.4975,78.5229
121.5812,78.5062
122.0187,78.5062
122.1025,78.5229
122.1734,78.5703
122.2208,78.6413
122.2375,78.7250
Z" /> 
<path style="fill:#FFFFFF; fill-opacity:1.0000; stroke:none;fill-rule:evenodd;"
d="M 157.6500,84.7500
157.6500,86.4500
155.9500,86.4500
155.9500,84.7500
Z" /> 
<circle cx="156.8000" cy="83.0600" r="0.8500" /> 
<circle cx="156.8000" cy="80.5200" r="0.8500" /> 
<circle cx="156.8000" cy="77.9800" r="0.8500" /> 
<path style="fill:#FFFFFF; fill-opacity:1.0000; stroke:none;fill-rule:evenodd;"
d="M 120.2750,92.9750
120.3515,92.9902
120.4164,93.0336
120.4598,93.0985
120.4750,93.1750
120.4750,93.5750
120.4598,93.6515
120.4164,93.7164
120.3515,93.7598
120.2750,93.7750
119.7250,93.7750
119.6485,93.7598
119.5836,93.7164
119.5402,93.6515
119.5250,93.5750
119.5250,93.1750
119.5402,93.0985
119.5836,93.0336
119.6485,92.9902
119.7250,92.9750
Z" /> 
<path style="fill:#FFFFFF; fill-opacity:1.0000; stroke:none;fill-rule:evenodd;"
d="M 120.2750,94.6250
120.3515,94.6402
120.4164,94.6836
120.4598,94.7485
120.4750,94.8250
120.4750,95.2250
120.4598,95.3015
120.4164,95.3664
120.3515,95.4098
120.2750,95.4250
119.7250,95.4250
119.6485,95.4098
119.5836,95.3664
119.5402,95.3015
119.5250,95.2250
119.5250,94.8250
119.5402,94.7485
119.5836,94.6836
119.6485,94.6402
119.7250,94.6250
Z" /> 
<path style="fill:#FFFFFF; fill-opacity:1.0000; stroke:none;fill-rule:evenodd;"
d="M 153.4500,103.7500
153.4500,105.4500
151.7500,105.4500
151.7500,103.7500
Z" /> 
<circle cx="152.6000" cy="102.0600" r="0.8500" /> 
<circle cx="152.6000" cy="99.5200" r="0.8500" /> 
<circle cx="152.6000" cy="96.9800" r="0.8500" /> 
<circle cx="152.6000" cy="94.4400" r="0.8500" /> 
<circle cx="152.6000" cy="91.9000" r="0.8500" /> 
<circle cx="152.6000" cy="89.3600" r="0.8500" /> 
<circle cx="152.6000" cy="86.8200" r="0.8500" /> 
<circle cx="152.6000" cy="84.2800" r="0.8500" /> 
<circle cx="152.6000" cy="81.7400" r="0.8500" /> 
<circle cx="152.6000" cy="79.2000" r="0.8500" /> 
<circle cx="152.6000" cy="76.6600" r="0.8500" /> 
<circle cx="120.2700" cy="79.9300" r="0.7500" /> 
</g>
<g style="fill:#FFFFFF; fill-opacity:1.0000; stroke:none;">
<circle cx="119.8000" cy="97.0000" r="0.7500" /> 
</g>
<g style="fill:none; 
stroke:#FFFFFF; stroke-width:0.2000; stroke-opacity:1; 
stroke-linecap:round; stroke-linejoin:round;">
<path d="M140.5000 87.9750
L140.8500 87.6250
" />
<path d="M138.3625 87.9750
L140.5000 87.9750
" />
</g>
<g style="fill:none; 
stroke:#FFFFFF; stroke-width:0.3000; stroke-opacity:1; 
stroke-linecap:round; stroke-linejoin:round;">
<path d="M138.3625 87.4750
L139.4000 87.4750
" />
<path d="M139.4000 87.4750
L150.2150 76.6600
" />
<path d="M150.2150 76.6600
L152.6000 76.6600
" />
<path d="M132.9750 91.4500
L134.8781 91.4500
" />
<path d="M130.0375 91.4500
L132.9750 91.4500
" />
<path d="M118.5550 95.0250
L116.8000 96.7800
" />
<path d="M124.8000 94.9373
L124.8000 93.7500
" />
<path d="M127.6125 83.7500
L128.4125 84.5500
" />
<path d="M140.3000 97.1000
L140.3250 97.1000
" />
<path d="M120.0000 95.0250
L118.5550 95.0250
" />
<path d="M152.4000 108.4000
L148.1400 108.4000
" />
<path d="M126.8000 84.4000
L129.8500 87.4500
" />
<path d="M125.6500 93.7500
L124.8000 93.7500
" />
<path d="M123.3373 96.4000
L124.8000 94.9373
" />
<path d="M140.3250 97.1000
L148.1400 104.9150
" />
<path d="M137.5625 94.3625
L140.3000 97.1000
" />
</g>
<g style="fill:none; 
stroke:#FFFFFF; stroke-width:0.2000; stroke-opacity:1; 
stroke-linecap:round; stroke-linejoin:round;">
<path d="M120.4200 72.8000
L120.4200 72.8400
" />
</g>
<g style="fill:none; 
stroke:#FFFFFF; stroke-width:0.3000; stroke-opacity:1; 
stroke-linecap:round; stroke-linejoin:round;">
<path d="M120.0000 95.0250
L120.0000 96.8000
" />
<path d="M120.0000 95.0250
L121.3750 96.4000
" />
<path d="M131.4500 86.0375
L131.4500 85.4500
" />
<path d="M130.0375 91.4500
L127.9500 91.4500
" />
<path d="M136.9500 94.3625
L137.5625 94.3625
" />
<path d="M120.0000 96.8000
L119.8000 97.0000
" />
<path d="M121.3750 96.4000
L123.3373 96.4000
" />
<path d="M131.4500 85.4500
L130.5500 84.5500
" />
<path d="M134.8781 91.4500
L136.9500 93.5219
" />
<path d="M116.8000 76.4600
L116.8000 74.3000
" />
<path d="M116.8000 74.3000
L118.3000 72.8000
" />
<path d="M130.5500 84.5500
L129.2000 84.5500
" />
<path d="M116.8000 76.4600
L120.2700 79.9300
" />
<path d="M148.1400 104.9150
L148.1400 108.4000
" />
<path d="M124.0900 83.7500
L126.8000 83.7500
" />
<path d="M126.8000 83.7500
L127.6125 83.7500
" />
<path d="M126.8000 83.7500
L126.8000 84.4000
" />
<path d="M118.3000 72.8000
L120.4200 72.8000
" />
<path d="M156.8000 104.0000
L152.4000 108.4000
" />
<path d="M156.8000 85.6000
L156.8000 104.0000
" />
<path d="M136.9500 93.5219
L136.9500 94.3625
" />
<path d="M129.8500 87.4500
L130.0375 87.4500
" />
<path d="M128.4125 84.5500
L129.2000 84.5500
" />
<path d="M120.2700 79.9300
L124.0900 83.7500
" />
<path d="M127.9500 91.4500
L125.6500 93.7500
" />
<path d="M136.4500 95.9000
L139.5500 99.0000
" />
<path d="M130.0375 90.9500
L130.8781 90.9500
" />
<path d="M129.9250 82.6500
L129.2000 82.6500
" />
<path d="M130.0375 90.9500
L125.7000 90.9500
" />
<path d="M125.7000 90.9500
L124.8000 91.8500
" />
<path d="M131.9500 86.0375
L131.9500 84.6750
" />
<path d="M136.4500 94.3625
L136.4500 95.9000
" />
<path d="M130.8781 90.9500
L131.9500 89.8781
" />
<path d="M131.9500 89.8781
L131.9500 86.0375
" />
<path d="M131.9500 84.6750
L129.9250 82.6500
" />
<path d="M139.5500 99.0000
L140.3250 99.0000
" />
<path d="M123.0000 72.8000
L122.9600 72.8000
" />
<path d="M121.8000 78.9813
L121.8000 77.0187
" />
<path d="M121.8000 77.0187
L121.7625 76.9813
" />
<path d="M148.3600 74.0650
L148.3600 72.8000
" />
<path d="M152.9750 72.8000
L156.8000 76.6250
" />
<path d="M136.9500 86.0375
L136.9500 85.4750
" />
<path d="M136.9500 85.4750
L148.3600 74.0650
" />
<path d="M148.3600 72.8000
L152.9750 72.8000
" />
<path d="M156.8000 76.6250
L156.8000 77.9800
" />
<path d="M141.6500 91.4500
L146.9800 96.7800
" />
<path d="M146.9800 96.7800
L152.4000 96.7800
" />
<path d="M138.3625 91.4500
L141.6500 91.4500
" />
<path d="M152.4000 96.7800
L152.6000 96.9800
" />
<path d="M135.9500 86.0375
L135.9500 83.6500
" />
<path d="M135.9500 83.6500
L143.2800 76.3200
" />
<path d="M143.2800 76.3200
L143.2800 72.8000
" />
<path d="M132.9500 86.0375
L132.9500 82.0250
" />
<path d="M129.7500 74.5100
L128.0400 72.8000
" />
<path d="M129.7500 78.8250
L129.7500 74.5100
" />
<path d="M132.9500 82.0250
L129.7500 78.8250
" />
<path d="M138.9500 92.9500
L150.6000 104.6000
" />
<path d="M150.6000 104.6000
L152.6000 104.6000
" />
<path d="M138.3625 92.9500
L138.9500 92.9500
" />
<path d="M139.8500 92.4500
L149.4600 102.0600
" />
<path d="M138.3625 92.4500
L139.8500 92.4500
" />
<path d="M149.4600 102.0600
L152.6000 102.0600
" />
<path d="M132.4500 86.0375
L132.4500 82.5250
" />
<path d="M128.8750 78.9500
L128.8750 76.6750
" />
<path d="M132.4500 82.5250
L128.8750 78.9500
" />
<path d="M128.8750 76.6750
L125.5000 73.3000
" />
<path d="M125.5000 73.3000
L125.5000 72.8000
" />
<path d="M133.9500 73.6300
L133.1200 72.8000
" />
<path d="M133.9500 86.0375
L133.9500 73.6300
" />
<path d="M134.4500 99.2000
L135.4400 100.1900
" />
<path d="M135.4400 100.1900
L135.4400 108.4000
" />
<path d="M134.4500 94.3625
L134.4500 99.2000
" />
<path d="M133.9500 94.3625
L133.9500 107.4750
" />
<path d="M133.0250 108.4000
L132.9000 108.4000
" />
<path d="M133.9500 107.4750
L133.0250 108.4000
" />
<path d="M135.9500 94.3625
L135.9500 97.6000
" />
<path d="M143.0600 104.7100
L143.0600 108.4000
" />
<path d="M135.9500 97.6000
L143.0600 104.7100
" />
<path d="M140.7500 91.9500
L148.1200 99.3200
" />
<path d="M152.4000 99.3200
L152.6000 99.5200
" />
<path d="M138.3625 91.9500
L140.7500 91.9500
" />
<path d="M148.1200 99.3200
L152.4000 99.3200
" />
<path d="M140.7400 77.6600
L140.7400 72.8000
" />
<path d="M135.4500 82.9500
L140.7400 77.6600
" />
<path d="M135.4500 86.0375
L135.4500 82.9500
" />
<path d="M134.9500 94.7828
L134.9500 95.2031
" />
<path d="M134.9500 95.2031
L134.9500 98.5750
" />
<path d="M134.9500 98.5750
L138.1800 101.8050
" />
<path d="M138.1800 101.8050
L138.1800 108.2000
" />
<path d="M134.9500 94.3625
L134.9500 94.7828
" />
<path d="M138.1800 108.2000
L137.9800 108.4000
" />
<path d="M135.6600 80.3650
L135.6600 72.8000
" />
<path d="M134.4500 86.0375
L134.4500 81.5750
" />
<path d="M134.4500 81.5750
L135.6600 80.3650
" />
<path d="M134.9500 86.0375
L134.9500 82.2500
" />
<path d="M138.2000 79.0000
L138.2000 72.8000
" />
<path d="M134.9500 82.2500
L138.2000 79.0000
" />
<path d="M135.4500 98.0500
L140.5200 103.1200
" />
<path d="M135.4500 94.3625
L135.4500 95.2031
" />
<path d="M140.5200 103.1200
L140.5200 108.4000
" />
<path d="M135.4500 95.2031
L135.4500 98.0500
" />
<path d="M143.4500 89.9500
L144.2400 89.1600
" />
<path d="M152.4000 89.1600
L152.6000 89.3600
" />
<path d="M144.2400 89.1600
L152.4000 89.1600
" />
<path d="M138.3625 89.9500
L143.4500 89.9500
" />
<path d="M138.3625 88.9500
L142.2500 88.9500
" />
<path d="M142.2500 88.9500
L146.9200 84.2800
" />
<path d="M146.9200 84.2800
L152.6000 84.2800
" />
<path d="M143.3250 90.4500
L144.5750 91.7000
" />
<path d="M144.5750 91.7000
L152.4000 91.7000
" />
<path d="M152.4000 91.7000
L152.6000 91.9000
" />
<path d="M138.3625 90.4500
L143.3250 90.4500
" />
<path d="M131.4500 94.3625
L131.4500 97.0500
" />
<path d="M131.4500 97.0500
L120.2000 108.3000
" />
<path d="M120.2000 108.3000
L120.2000 108.4000
" />
<path d="M127.6000 92.7750
L127.6000 93.2000
" />
<path d="M128.4250 91.9500
L127.6000 92.7750
" />
<path d="M121.4800 99.3200
L116.8000 99.3200
" />
<path d="M127.6000 93.2000
L121.4800 99.3200
" />
<path d="M130.0375 91.9500
L128.4250 91.9500
" />
<path d="M133.4500 99.0250
L130.3600 102.1150
" />
<path d="M133.4500 94.3625
L133.4500 99.0250
" />
<path d="M130.3600 102.1150
L130.3600 108.4000
" />
<path d="M122.7400 106.8100
L122.7400 108.4000
" />
<path d="M131.9500 97.6000
L122.7400 106.8100
" />
<path d="M131.9500 94.3625
L131.9500 97.6000
" />
<path d="M128.8500 94.1500
L118.6000 104.4000
" />
<path d="M128.8500 93.1500
L128.8500 94.1500
" />
<path d="M129.0500 92.9500
L128.8500 93.1500
" />
<path d="M118.6000 104.4000
L116.8000 104.4000
" />
<path d="M130.0375 92.9500
L129.0500 92.9500
" />
<path d="M142.9500 89.4500
L145.7800 86.6200
" />
<path d="M145.7800 86.6200
L152.4000 86.6200
" />
<path d="M138.3625 89.4500
L142.9500 89.4500
" />
<path d="M152.4000 86.6200
L152.6000 86.8200
" />
<path d="M145.8200 75.1800
L145.8200 72.8000
" />
<path d="M136.4500 86.0375
L136.4500 84.5500
" />
<path d="M136.4500 84.5500
L145.8200 75.1800
" />
<path d="M116.8000 101.8600
L120.1400 101.8600
" />
<path d="M120.1400 101.8600
L128.2250 93.7750
" />
<path d="M128.2250 93.0679
L128.8429 92.4500
" />
<path d="M128.8429 92.4500
L130.0375 92.4500
" />
<path d="M128.2250 93.7750
L128.2250 93.0679
" />
<path d="M142.5750 90.9500
L145.8650 94.2400
" />
<path d="M152.4000 94.2400
L152.6000 94.4400
" />
<path d="M145.8650 94.2400
L152.4000 94.2400
" />
<path d="M138.3625 90.9500
L142.5750 90.9500
" />
<path d="M127.8200 103.7300
L127.8200 108.4000
" />
<path d="M132.9500 94.3625
L132.9500 95.2031
" />
<path d="M132.9500 98.6000
L127.8200 103.7300
" />
<path d="M132.9500 95.2031
L132.9500 98.6000
" />
<path d="M125.2800 105.2950
L125.2800 108.4000
" />
<path d="M132.4500 98.1250
L125.2800 105.2950
" />
<path d="M132.4500 94.3625
L132.4500 98.1250
" />
<path d="M127.7071 88.0000
L120.7200 88.0000
" />
<path d="M130.0375 88.9500
L128.6571 88.9500
" />
<path d="M128.6571 88.9500
L127.7071 88.0000
" />
<path d="M120.7200 88.0000
L116.8000 84.0800
" />
<path d="M129.1750 87.9500
L127.4250 86.2000
" />
<path d="M117.4000 79.0000
L116.8000 79.0000
" />
<path d="M127.4250 86.2000
L124.6000 86.2000
" />
<path d="M130.0375 87.9500
L129.1750 87.9500
" />
<path d="M124.6000 86.2000
L117.4000 79.0000
" />
<path d="M120.0000 93.3750
L121.9750 93.3750
" />
<path d="M117.3000 91.7000
L118.9750 93.3750
" />
<path d="M121.9750 93.3750
L122.6000 94.0000
" />
<path d="M116.8000 91.7000
L117.3000 91.7000
" />
<path d="M130.0375 90.4500
L127.9805 90.4500
" />
<path d="M118.1000 90.4000
L116.8000 91.7000
" />
<path d="M127.9305 90.4000
L118.1000 90.4000
" />
<path d="M118.9750 93.3750
L120.0000 93.3750
" />
<path d="M122.6000 94.0000
L122.6000 94.6000
" />
<path d="M127.9805 90.4500
L127.9305 90.4000
" />
<path d="M127.6142 87.2000
L122.4600 87.2000
" />
<path d="M130.0375 88.4500
L128.8642 88.4500
" />
<path d="M128.8642 88.4500
L127.6142 87.2000
" />
<path d="M122.4600 87.2000
L116.8000 81.5400
" />
<path d="M147.9850 81.7400
L152.6000 81.7400
" />
<path d="M156.8000 80.5200
L153.8200 80.5200
" />
<path d="M138.3625 88.4500
L141.2750 88.4500
" />
<path d="M153.8200 80.5200
L152.6000 81.7400
" />
<path d="M141.2750 88.4500
L147.9850 81.7400
" />
<path d="M126.0750 78.6000
L124.4562 76.9813
" />
<path d="M124.4562 76.9813
L123.4125 76.9813
" />
<path d="M116.8000 86.6200
L117.8200 86.6200
" />
<path d="M128.4500 89.4500
L130.0375 89.4500
" />
<path d="M117.8200 86.6200
L120.0000 88.8000
" />
<path d="M120.0000 88.8000
L127.8000 88.8000
" />
<path d="M127.8000 88.8000
L128.4500 89.4500
" />
<path d="M128.1876 89.9500
L127.8376 89.6000
" />
<path d="M130.0375 89.9500
L128.1876 89.9500
" />
<path d="M117.2400 89.6000
L116.8000 89.1600
" />
<path d="M127.8376 89.6000
L117.2400 89.6000
" />
<path d="M133.4500 81.5750
L130.5800 78.7050
" />
<path d="M133.4500 86.0375
L133.4500 81.5750
" />
<path d="M130.5800 78.7050
L130.5800 72.8000
" />
</g>
<g style="fill:none; 
stroke:#FFFFFF; stroke-width:0.2000; stroke-opacity:1; 
stroke-linecap:round; stroke-linejoin:round;">
<path d="M138.3625 87.9750
L137.5926 87.9750
" />
<path d="M137.5926 87.9750
L137.1676 88.4000
" />
<path d="M137.1676 88.4000
L136.9250 88.4000
" />
<path d="M136.9250 88.4000
L136.6750 88.6500
" />
<path style="fill:#FFFFFF; fill-opacity:1.0000; stroke:none;fill-rule:evenodd;"
d="M 137.6679,95.3878
139.0632,96.7831
139.0967,96.8444
139.0995,96.8708
139.0995,97.4000
139.0995,97.4000
139.1100,97.5028
139.1100,97.5028
139.1562,97.6422
139.1652,97.6693
139.2573,97.8187
139.3813,97.9427
139.3846,97.9447
139.3847,97.9448
139.3864,97.9467
139.3870,97.9472
139.3869,97.9473
139.4314,97.9967
139.4426,98.0657
139.4148,98.1297
139.3847,98.1558
139.3817,98.1577
139.3817,98.1577
139.2577,98.2817
139.1656,98.4309
139.1656,98.4309
139.1105,98.5973
139.1105,98.5973
139.1000,98.7000
139.1000,98.7500
140.4510,98.7500
140.5180,98.7697
140.5638,98.8225
140.5750,98.8740
140.5750,100.0000
140.8500,100.0000
140.8500,100.0000
140.9527,99.9895
141.1191,99.9344
141.1191,99.9344
141.2683,99.8423
141.3923,99.7183
141.4844,99.5691
141.4844,99.5691
141.5181,99.4672
141.5579,99.4097
141.6224,99.3829
141.6912,99.3952
141.7235,99.4185
147.4532,105.1481
147.4867,105.2094
147.4895,105.2358
147.4895,107.1423
147.4698,107.2093
147.4366,107.2439
147.2686,107.3615
147.1015,107.5286
146.9713,107.7146
146.9167,107.7582
146.8472,107.7654
146.7848,107.7339
146.7681,107.7146
146.6381,107.5289
146.6381,107.5289
146.4711,107.3619
146.2776,107.2264
146.0635,107.1266
146.0635,107.1266
145.8500,107.0694
145.8500,107.9670
145.7930,107.9341
145.6658,107.9000
145.5342,107.9000
145.4070,107.9341
145.3500,107.9670
145.3500,107.0694
145.3500,107.0694
145.1365,107.1266
145.1365,107.1266
144.9224,107.2264
144.9224,107.2264
144.7289,107.3619
144.7289,107.3619
144.5619,107.5289
144.5619,107.5289
144.4319,107.7146
144.3773,107.7582
144.3078,107.7654
144.2455,107.7339
144.2287,107.7146
144.0985,107.5286
143.9314,107.3615
143.9314,107.3615
143.7634,107.2439
143.7634,107.2439
143.7198,107.1893
143.7105,107.1423
143.7105,104.6459
143.6855,104.5203
143.6855,104.5203
143.6855,104.5203
143.6508,104.4365
143.6365,104.4019
143.5653,104.2953
143.5653,104.2953
139.4124,100.1425
139.3789,100.0811
139.3839,100.0115
139.4258,99.9555
139.4912,99.9311
139.5391,99.9371
139.6973,99.9895
139.6973,99.9895
139.8000,100.0000
140.0750,100.0000
140.0750,100.0000
140.0750,99.2500
139.1000,99.2500
139.1000,99.3000
139.1105,99.4027
139.1629,99.5609
139.1653,99.6307
139.1296,99.6908
139.0671,99.7220
138.9976,99.7144
138.9575,99.6876
136.6368,97.3669
136.6033,97.3055
136.6005,97.2792
136.6005,95.7357
136.6202,95.6687
136.6730,95.6229
136.7407,95.6128
136.8142,95.6225
136.8346,95.6251
136.8373,95.6255
136.8373,95.6255
137.0627,95.6255
137.0627,95.6255
137.1752,95.6107
137.3152,95.5527
137.4355,95.4605
137.4818,95.4000
137.5382,95.3588
137.6080,95.3547
Z" /> 
<path style="fill:#FFFFFF; fill-opacity:1.0000; stroke:none;fill-rule:evenodd;"
d="M 155.6093,81.1902
155.6439,81.2234
155.7615,81.3914
155.7615,81.3914
155.9286,81.5585
156.1146,81.6887
156.1582,81.7433
156.1654,81.8128
156.1339,81.8752
156.1146,81.8919
155.9289,82.0219
155.9289,82.0219
155.7619,82.1889
155.7619,82.1889
155.6264,82.3824
155.6264,82.3824
155.5266,82.5965
155.5266,82.5965
155.4694,82.8100
155.4694,82.8100
156.3670,82.8100
156.3341,82.8670
156.3000,82.9942
156.3000,83.1258
156.3341,83.2530
156.3670,83.3100
155.4694,83.3100
155.5266,83.5235
155.5266,83.5235
155.6264,83.7376
155.7619,83.9311
155.8839,84.0531
155.9174,84.1145
155.9124,84.1841
155.8706,84.2401
155.8396,84.2570
155.7077,84.3062
155.7077,84.3062
155.5925,84.3925
155.5925,84.3925
155.5062,84.5077
155.5062,84.5077
155.4559,84.6425
155.4505,84.6930
155.4495,84.7021
155.4495,84.7021
155.4495,86.4979
155.4495,86.4979
155.4559,86.5575
155.5062,86.6923
155.5062,86.6923
155.5925,86.8075
155.5925,86.8075
155.7077,86.8938
155.7077,86.8938
155.7526,86.9106
155.8425,86.9441
155.9021,86.9505
156.0255,86.9505
156.0925,86.9702
156.1383,87.0230
156.1495,87.0745
156.1495,103.6792
156.1298,103.7462
156.1132,103.7669
154.1220,105.7580
154.0607,105.7915
153.9910,105.7865
153.9351,105.7447
153.9107,105.6792
153.9182,105.6270
153.9441,105.5575
153.9505,105.4979
153.9505,103.7021
153.9441,103.6425
153.8938,103.5077
153.8938,103.5077
153.8938,103.5077
153.8075,103.3925
153.8075,103.3925
153.6923,103.3062
153.6923,103.3062
153.5609,103.2572
153.5050,103.2153
153.4806,103.1499
153.4954,103.0816
153.5166,103.0533
153.6385,102.9314
153.7740,102.7378
153.8739,102.5237
153.9351,102.2954
153.9557,102.0600
153.9351,101.8246
153.8815,101.6246
153.8739,101.5963
153.8739,101.5963
153.8739,101.5963
153.7740,101.3822
153.7677,101.3732
153.6385,101.1886
153.4714,101.0215
153.4714,101.0215
153.2858,100.8916
153.2422,100.8370
153.2350,100.7675
153.2665,100.7051
153.2858,100.6884
153.3593,100.6370
153.4714,100.5585
153.6385,100.3914
153.7740,100.1978
153.8739,99.9837
153.9351,99.7554
153.9557,99.5200
153.9351,99.2846
153.8739,99.0563
153.7740,98.8422
153.7095,98.7500
153.6385,98.6486
153.4714,98.4815
153.4714,98.4815
153.2858,98.3516
153.2422,98.2970
153.2350,98.2275
153.2665,98.1651
153.2858,98.1484
153.4264,98.0500
153.4714,98.0185
153.6385,97.8514
153.7740,97.6578
153.8739,97.4437
153.9351,97.2154
153.9557,96.9800
153.9351,96.7446
153.8739,96.5163
153.7740,96.3022
153.6781,96.1652
153.6385,96.1086
153.4714,95.9415
153.4714,95.9415
153.2858,95.8116
153.2422,95.7570
153.2350,95.6875
153.2665,95.6251
153.2858,95.6084
153.3654,95.5527
153.4714,95.4785
153.6385,95.3114
153.7740,95.1178
153.8739,94.9037
153.9351,94.6754
153.9557,94.4400
153.9351,94.2046
153.8739,93.9763
153.7740,93.7622
153.7564,93.7370
153.6385,93.5686
153.4714,93.4015
153.4714,93.4015
153.2858,93.2716
153.2422,93.2170
153.2350,93.1475
153.2665,93.0851
153.2858,93.0684
153.4208,92.9739
153.4714,92.9385
153.6385,92.7714
153.7740,92.5778
153.8739,92.3637
153.9351,92.1354
153.9557,91.9000
153.9351,91.6646
153.8739,91.4363
153.7740,91.2222
153.7046,91.1230
153.6385,91.0286
153.4714,90.8615
153.4714,90.8615
153.2858,90.7316
153.2422,90.6770
153.2350,90.6075
153.2665,90.5451
153.2858,90.5284
153.4264,90.4300
153.4714,90.3985
153.6385,90.2314
153.7740,90.0378
153.8739,89.8237
153.9351,89.5954
153.9557,89.3600
153.9351,89.1246
153.8739,88.8963
153.7740,88.6822
153.7079,88.5877
153.6385,88.4886
153.4714,88.3215
153.4714,88.3215
153.2858,88.1916
153.2422,88.1370
153.2350,88.0675
153.2665,88.0051
153.2858,87.9884
153.3080,87.9729
153.4714,87.8585
153.6385,87.6914
153.7740,87.4978
153.8739,87.2837
153.9351,87.0554
153.9557,86.8200
153.9546,86.8075
153.9452,86.7005
153.9351,86.5846
153.8739,86.3563
153.7740,86.1422
153.6393,85.9498
153.6385,85.9486
153.4714,85.7815
153.4714,85.7815
153.2858,85.6516
153.2422,85.5970
153.2350,85.5275
153.2665,85.4651
153.2858,85.4484
153.3562,85.3991
153.4714,85.3185
153.6385,85.1514
153.7740,84.9578
153.8739,84.7437
153.9351,84.5154
153.9557,84.2800
153.9351,84.0446
153.8739,83.8163
153.7740,83.6022
153.7615,83.5843
153.6385,83.4086
153.4714,83.2415
153.4714,83.2415
153.2858,83.1116
153.2422,83.0570
153.2350,82.9875
153.2665,82.9251
153.2858,82.9084
153.3943,82.8325
153.4714,82.7785
153.6385,82.6114
153.7740,82.4178
153.8739,82.2037
153.9351,81.9754
153.9557,81.7400
153.9351,81.5046
153.9156,81.4320
153.9173,81.3622
153.9477,81.3122
154.0531,81.2068
154.1144,81.1733
154.1408,81.1705
155.5423,81.1705
Z" /> 
<path style="fill:#FFFFFF; fill-opacity:1.0000; stroke:none;fill-rule:evenodd;"
d="M 118.2359,93.5559
118.5603,93.8803
118.5603,93.8803
118.6493,93.9397
118.6493,93.9397
118.6669,93.9515
118.6669,93.9515
118.6669,93.9515
118.7853,94.0005
118.7853,94.0005
118.7853,94.0005
118.9109,94.0255
118.9109,94.0255
119.1335,94.0255
119.2005,94.0452
119.2212,94.0618
119.2717,94.1123
119.3051,94.1736
119.3002,94.2433
119.2717,94.2877
119.2212,94.3382
119.1598,94.3717
119.1335,94.3745
118.4909,94.3745
118.3653,94.3995
118.3653,94.3995
118.2868,94.4320
118.2868,94.4320
118.2469,94.4485
118.2469,94.4485
118.2161,94.4691
118.1494,94.4900
118.1472,94.4900
117.2330,94.4900
117.2659,94.4330
117.3000,94.3058
117.3000,94.1742
117.2659,94.0470
117.2330,93.9900
118.1306,93.9900
118.1306,93.9900
118.0734,93.7765
118.0734,93.7765
118.0359,93.6960
118.0254,93.6269
118.0539,93.5631
118.1124,93.5249
118.1822,93.5243
Z" /> 
<path style="fill:#FFFFFF; fill-opacity:1.0000; stroke:none;fill-rule:evenodd;"
d="M 123.6276,91.0702
123.6734,91.1230
123.6833,91.1921
123.6661,91.2396
123.6406,91.2809
123.6406,91.2809
123.5855,91.4473
123.5855,91.4473
123.5750,91.5500
123.5750,91.6000
126.0250,91.6000
126.0250,91.5500
126.0250,91.5500
126.0145,91.4473
125.9594,91.2809
125.9594,91.2809
125.9339,91.2396
125.9155,91.1722
125.9364,91.1055
125.9900,91.0608
126.0394,91.0505
127.1302,91.0505
127.1972,91.0702
127.2430,91.1230
127.2529,91.1921
127.2239,91.2557
127.2179,91.2622
126.2365,92.2435
126.1752,92.2770
126.1055,92.2720
126.0496,92.2301
126.0252,92.1647
126.0251,92.1531
126.0250,92.1531
126.0250,92.1000
123.5750,92.1000
123.5750,92.1500
123.5855,92.2527
123.6406,92.4191
123.6406,92.4191
123.7327,92.5683
123.8567,92.6923
123.8567,92.6923
123.8597,92.6942
123.8613,92.6960
123.8623,92.6968
123.8622,92.6970
123.9064,92.7461
123.9176,92.8151
123.8898,92.8792
123.8597,92.9052
123.8563,92.9073
123.8563,92.9073
123.7323,93.0313
123.7323,93.0313
123.6719,93.1293
123.6199,93.1760
123.5510,93.1872
123.5230,93.1804
123.4575,93.1559
123.4575,93.1559
123.3979,93.1495
123.3979,93.1495
123.3979,93.1495
123.3979,93.1495
122.7208,93.1495
122.6538,93.1298
122.6331,93.1132
122.3897,92.8697
122.3897,92.8697
122.3897,92.8697
122.2831,92.7985
122.2539,92.7864
122.1647,92.7495
122.1647,92.7495
122.0391,92.7245
122.0391,92.7245
120.8665,92.7245
120.7995,92.7048
120.7788,92.6882
120.7102,92.6195
120.5646,92.5315
120.4022,92.4809
120.4022,92.4809
120.4022,92.4809
120.3528,92.4764
120.3316,92.4745
119.6684,92.4745
119.6491,92.4762
119.5978,92.4809
119.4354,92.5315
119.2834,92.6234
119.2823,92.6217
119.2271,92.6437
119.1585,92.6303
119.1278,92.6079
118.1814,91.6615
118.1479,91.6001
118.1456,91.5846
118.1351,91.4646
118.1156,91.3920
118.1173,91.3222
118.1477,91.2722
118.3331,91.0868
118.3945,91.0533
118.4208,91.0505
123.5606,91.0505
Z" /> 
<path style="fill:#FFFFFF; fill-opacity:1.0000; stroke:none;fill-rule:evenodd;"
d="M 132.0081,87.1711
132.0255,87.1822
132.0515,87.2022
132.0927,87.2586
132.0989,87.2941
132.1000,87.2951
132.1827,87.2842
132.2165,87.2864
132.2167,87.2846
132.2248,87.2857
132.2248,87.2857
132.3373,87.3005
132.3373,87.3005
132.5627,87.3005
132.5627,87.3005
132.6752,87.2857
132.6752,87.2857
132.6833,87.2846
132.6837,87.2877
132.7163,87.2877
132.7167,87.2846
132.7248,87.2857
132.7248,87.2857
132.8373,87.3005
132.8373,87.3005
133.0627,87.3005
133.0627,87.3005
133.1752,87.2857
133.1752,87.2857
133.1833,87.2846
133.1837,87.2877
133.2163,87.2877
133.2167,87.2846
133.2248,87.2857
133.2248,87.2857
133.3373,87.3005
133.3373,87.3005
133.5627,87.3005
133.5627,87.3005
133.6752,87.2857
133.6752,87.2857
133.6833,87.2846
133.6837,87.2877
133.7163,87.2877
133.7167,87.2846
133.7248,87.2857
133.7248,87.2857
133.8373,87.3005
133.8373,87.3005
134.0627,87.3005
134.0627,87.3005
134.1752,87.2857
134.1752,87.2857
134.1833,87.2846
134.1837,87.2877
134.2163,87.2877
134.2167,87.2846
134.2248,87.2857
134.2248,87.2857
134.3373,87.3005
134.3373,87.3005
134.5627,87.3005
134.5627,87.3005
134.6752,87.2857
134.6752,87.2857
134.6833,87.2846
134.6837,87.2877
134.7163,87.2877
134.7167,87.2846
134.7248,87.2857
134.7248,87.2857
134.8373,87.3005
134.8373,87.3005
135.0627,87.3005
135.0627,87.3005
135.1752,87.2857
135.1752,87.2857
135.1833,87.2846
135.1837,87.2877
135.2163,87.2877
135.2167,87.2846
135.2248,87.2857
135.2248,87.2857
135.3373,87.3005
135.3373,87.3005
135.5627,87.3005
135.5627,87.3005
135.6752,87.2857
135.6752,87.2857
135.6833,87.2846
135.6837,87.2877
135.7163,87.2877
135.7167,87.2846
135.7248,87.2857
135.7248,87.2857
135.8373,87.3005
135.8373,87.3005
136.0627,87.3005
136.0627,87.3005
136.1752,87.2857
136.1752,87.2857
136.1833,87.2846
136.1837,87.2877
136.2163,87.2877
136.2167,87.2846
136.2248,87.2857
136.2248,87.2857
136.3373,87.3005
136.3373,87.3005
136.5627,87.3005
136.5627,87.3005
136.6752,87.2857
136.6752,87.2857
136.6833,87.2846
136.6837,87.2877
136.7163,87.2877
136.7167,87.2846
136.7248,87.2857
136.7248,87.2857
136.8373,87.3005
136.8373,87.3005
137.0005,87.3005
137.0675,87.3202
137.1133,87.3730
137.1245,87.4245
137.1245,87.5877
137.1404,87.7083
137.1386,87.7085
137.1408,87.7423
137.1299,87.8250
137.1318,87.8272
137.1915,87.8447
137.2228,87.8735
137.2355,87.8900
137.2428,87.8995
137.2680,87.9647
137.2539,88.0331
137.2428,88.0505
137.2228,88.0765
137.1664,88.1177
137.1309,88.1239
137.1299,88.1250
137.1408,88.2077
137.1386,88.2415
137.1404,88.2417
137.1245,88.3623
137.1245,88.5877
137.1355,88.6713
137.1388,88.6963
137.1404,88.7083
137.1374,88.7087
137.1374,88.7413
137.1404,88.7417
137.1245,88.8623
137.1245,89.0877
137.1404,89.2083
137.1374,89.2087
137.1374,89.2413
137.1404,89.2417
137.1245,89.3623
137.1245,89.5877
137.1404,89.7083
137.1374,89.7087
137.1374,89.7413
137.1404,89.7417
137.1245,89.8623
137.1245,90.0877
137.1404,90.2083
137.1374,90.2087
137.1374,90.2413
137.1404,90.2417
137.1245,90.3623
137.1245,90.5877
137.1404,90.7083
137.1374,90.7087
137.1374,90.7413
137.1404,90.7417
137.1245,90.8623
137.1245,91.0877
137.1404,91.2083
137.1374,91.2087
137.1374,91.2413
137.1404,91.2417
137.1245,91.3623
137.1245,91.5877
137.1404,91.7083
137.1374,91.7087
137.1374,91.7413
137.1404,91.7417
137.1245,91.8623
137.1245,92.0877
137.1404,92.2083
137.1374,92.2087
137.1374,92.2413
137.1404,92.2417
137.1245,92.3623
137.1245,92.4771
137.1048,92.5441
137.0520,92.5899
136.9829,92.5998
136.9193,92.5708
136.9128,92.5648
135.2928,90.9447
135.2928,90.9447
135.2928,90.9447
135.1862,90.8735
135.1591,90.8623
135.0679,90.8245
135.0679,90.8245
134.9422,90.7995
134.9422,90.7995
133.0391,90.7995
131.3890,90.7995
131.3220,90.7798
131.2762,90.7270
131.2661,90.6593
131.2729,90.6075
131.2755,90.5877
131.2755,90.3623
131.2607,90.2498
131.2607,90.2498
131.2596,90.2417
131.2627,90.2413
131.2627,90.2087
131.2596,90.2083
131.2640,90.1748
131.2755,90.0877
131.2755,89.8623
131.2607,89.7498
131.2607,89.7498
131.2596,89.7417
131.2627,89.7413
131.2627,89.7087
131.2596,89.7083
131.2607,89.7002
131.2755,89.5877
131.2755,89.3623
131.2607,89.2498
131.2607,89.2498
131.2596,89.2417
131.2627,89.2413
131.2627,89.2087
131.2596,89.2083
131.2706,89.1246
131.2755,89.0877
131.2755,88.8623
131.2607,88.7498
131.2607,88.7498
131.2596,88.7417
131.2627,88.7413
131.2627,88.7087
131.2596,88.7083
131.2612,88.6963
131.2755,88.5877
131.2755,88.3623
131.2607,88.2498
131.2607,88.2498
131.2596,88.2417
131.2627,88.2413
131.2627,88.2087
131.2596,88.2083
131.2690,88.1370
131.2755,88.0877
131.2755,87.8623
131.2607,87.7498
131.2607,87.7498
131.2596,87.7417
131.2627,87.7413
131.2627,87.7087
131.2596,87.7083
131.2662,87.6585
131.2755,87.5877
131.2755,87.4245
131.2952,87.3575
131.3480,87.3117
131.3995,87.3005
131.5627,87.3005
131.5627,87.3005
131.6752,87.2857
131.6752,87.2857
131.6833,87.2846
131.6835,87.2864
131.7173,87.2842
131.8000,87.2951
131.8022,87.2932
131.8197,87.2335
131.8485,87.2022
131.8745,87.1822
131.9397,87.1570
Z" /> 
<path style="fill:#FFFFFF; fill-opacity:1.0000; stroke:none;fill-rule:evenodd;"
d="M 151.4093,77.3302
151.4439,77.3634
151.5615,77.5314
151.5615,77.5314
151.7286,77.6985
151.7286,77.6985
151.7736,77.7300
151.8903,77.8117
151.9146,77.8287
151.9582,77.8833
151.9654,77.9528
151.9339,78.0152
151.9146,78.0319
151.7289,78.1619
151.7289,78.1619
151.5619,78.3289
151.5619,78.3289
151.4264,78.5224
151.4264,78.5224
151.3266,78.7365
151.3266,78.7365
151.2694,78.9500
151.2694,78.9500
152.1670,78.9500
152.1341,79.0070
152.1000,79.1342
152.1000,79.2658
152.1341,79.3930
152.1670,79.4500
151.2694,79.4500
151.3266,79.6635
151.3266,79.6635
151.4264,79.8776
151.5619,80.0711
151.7289,80.2381
151.9146,80.3681
151.9582,80.4227
151.9654,80.4922
151.9339,80.5545
151.9146,80.5713
151.7286,80.7015
151.5615,80.8686
151.4439,81.0366
151.3893,81.0802
151.3423,81.0895
147.9209,81.0895
147.7953,81.1145
147.7953,81.1145
147.6769,81.1635
147.5703,81.2347
147.5703,81.2347
141.0419,87.7632
140.9805,87.7967
140.9542,87.7995
140.2948,87.7995
140.2278,87.7798
140.1820,87.7270
140.1721,87.6579
140.2011,87.5943
140.2071,87.5878
150.4481,77.3468
150.5094,77.3133
150.5358,77.3105
151.3423,77.3105
Z" /> 
<path style="fill:#FFFFFF; fill-opacity:1.0000; stroke:none;fill-rule:evenodd;"
d="M 152.7212,73.4702
152.7419,73.4868
155.9817,76.7267
156.0152,76.7880
156.0102,76.8577
155.9683,76.9136
155.9652,76.9159
155.9286,76.9415
155.7615,77.1086
155.6260,77.3022
155.6260,77.3022
155.5261,77.5163
155.5261,77.5163
155.4649,77.7446
155.4649,77.7446
155.4443,77.9800
155.4443,77.9800
155.4649,78.2154
155.4649,78.2154
155.5261,78.4437
155.5261,78.4437
155.5261,78.4437
155.5890,78.5786
155.6260,78.6578
155.6260,78.6578
155.7615,78.8514
155.7615,78.8514
155.9286,79.0185
155.9286,79.0185
156.1142,79.1484
156.1578,79.2030
156.1650,79.2725
156.1335,79.3349
156.1142,79.3516
155.9286,79.4815
155.7615,79.6486
155.6742,79.7732
155.6519,79.8051
155.6439,79.8166
155.5893,79.8602
155.5423,79.8695
153.9720,79.8695
153.9050,79.8498
153.8592,79.7970
153.8493,79.7279
153.8596,79.6931
153.8734,79.6635
153.8734,79.6635
153.9306,79.4500
153.0330,79.4500
153.0659,79.3930
153.1000,79.2658
153.1000,79.1342
153.0659,79.0070
153.0330,78.9500
153.9306,78.9500
153.9306,78.9500
153.8734,78.7365
153.8734,78.7365
153.7736,78.5224
153.7736,78.5224
153.6381,78.3289
153.6381,78.3289
153.4711,78.1619
153.2854,78.0319
153.2418,77.9773
153.2346,77.9078
153.2661,77.8454
153.2854,77.8287
153.2905,77.8251
153.4714,77.6985
153.6385,77.5314
153.7740,77.3378
153.8739,77.1237
153.9351,76.8954
153.9557,76.6600
153.9351,76.4246
153.8739,76.1963
153.7740,75.9822
153.7561,75.9566
153.6385,75.7886
153.4714,75.6215
153.4714,75.6215
153.2778,75.4860
153.2778,75.4860
153.2778,75.4860
153.0637,75.3861
153.0637,75.3861
153.0637,75.3861
152.8354,75.3249
152.8354,75.3249
152.6000,75.3043
152.6000,75.3043
152.3646,75.3249
152.3646,75.3249
152.1363,75.3861
152.1363,75.3861
151.9222,75.4860
151.9222,75.4860
151.7286,75.6215
151.5615,75.7886
151.4439,75.9566
151.3893,76.0002
151.3423,76.0095
150.1509,76.0095
150.0253,76.0345
150.0253,76.0345
149.9069,76.0835
149.8003,76.1547
149.8003,76.1547
139.1669,86.7882
139.1055,86.8217
139.0792,86.8245
137.7245,86.8245
137.6575,86.8048
137.6117,86.7520
137.6005,86.7005
137.6005,85.7958
137.6202,85.7288
137.6368,85.7081
148.8653,74.4797
148.8653,74.4797
148.9365,74.3731
148.9855,74.2547
148.9951,74.2065
149.0105,74.1291
149.0105,74.0577
149.0302,73.9907
149.0634,73.9561
149.1420,73.9011
149.2314,73.8385
149.3985,73.6714
149.5161,73.5034
149.5707,73.4598
149.6177,73.4505
152.6542,73.4505
Z" /> 
<path style="fill:#FFFFFF; fill-opacity:1.0000; stroke:none;fill-rule:evenodd;"
d="M 123.2100,74.1306
123.4235,74.0734
123.4235,74.0734
123.6376,73.9736
123.8311,73.8381
123.9981,73.6711
124.1281,73.4854
124.1827,73.4418
124.2522,73.4346
124.3145,73.4661
124.3313,73.4854
124.4615,73.6714
124.6286,73.8385
124.7180,73.9011
124.8222,73.9740
124.8222,73.9740
124.8222,73.9740
125.0363,74.0739
125.2646,74.1351
125.3846,74.1456
125.4497,74.1710
125.4615,74.1814
128.1882,76.9081
128.2217,76.9694
128.2245,76.9958
128.2245,79.0141
128.2245,79.0141
128.2245,79.0141
128.2455,79.1197
128.2455,79.1197
128.2495,79.1397
128.2740,79.1989
128.2891,79.2354
128.2985,79.2581
128.3610,79.3516
128.3697,79.3647
128.3697,79.3647
131.7632,82.7581
131.7967,82.8195
131.7995,82.8458
131.7995,84.5802
131.7798,84.6472
131.7270,84.6930
131.6579,84.7029
131.5943,84.6739
131.5878,84.6679
130.9647,84.0447
130.9645,84.0446
130.8581,83.9735
130.7556,83.9311
130.7397,83.9245
130.7397,83.9245
130.6141,83.8995
130.6141,83.8995
130.3790,83.8995
130.3119,83.8798
130.2734,83.8406
130.2677,83.8313
130.1437,83.7073
130.1437,83.7073
130.1403,83.7052
130.1386,83.7033
130.1380,83.7028
130.1381,83.7027
130.0936,83.6533
130.0824,83.5843
130.1102,83.5203
130.1404,83.4942
130.1433,83.4923
130.2673,83.3683
130.3594,83.2191
130.3594,83.2191
130.4145,83.0527
130.4145,83.0527
130.4250,82.9500
130.4250,82.9500
130.4250,82.9000
129.0740,82.9000
129.0070,82.8803
128.9612,82.8275
128.9500,82.7760
128.9500,82.4000
129.4500,82.4000
130.4250,82.4000
130.4250,82.3500
130.4250,82.3500
130.4145,82.2473
130.3594,82.0809
130.3594,82.0809
130.2673,81.9317
130.1433,81.8077
129.9941,81.7156
129.9941,81.7156
129.8277,81.6605
129.8277,81.6605
129.7250,81.6500
129.4500,81.6500
129.4500,82.4000
128.9500,82.4000
128.9500,81.6500
128.6750,81.6500
128.6750,81.6500
128.5723,81.6605
128.4059,81.7156
128.4059,81.7156
128.2567,81.8077
128.2367,81.8277
128.1754,81.8611
128.1057,81.8562
128.0497,81.8143
128.0253,81.7488
128.0250,81.7400
128.0250,81.5500
128.0250,81.5500
128.0145,81.4473
127.9594,81.2809
127.9594,81.2809
127.8673,81.1317
127.7433,81.0077
127.5941,80.9156
127.5941,80.9156
127.4277,80.8605
127.4277,80.8605
127.3250,80.8500
127.0500,80.8500
127.0500,81.9760
127.0303,82.0430
126.9775,82.0888
126.9260,82.1000
125.5750,82.1000
125.5750,82.1500
125.5855,82.2527
125.6406,82.4191
125.6406,82.4191
125.7327,82.5683
125.8567,82.6923
125.8567,82.6923
125.8597,82.6942
125.8613,82.6960
125.8623,82.6968
125.8622,82.6970
125.9064,82.7461
125.9176,82.8151
125.8898,82.8792
125.8597,82.9052
125.8563,82.9073
125.8563,82.9073
125.7323,83.0313
125.7266,83.0406
125.6746,83.0873
125.6210,83.0995
124.4108,83.0995
124.3438,83.0798
124.3231,83.0632
122.8100,81.5500
125.5750,81.5500
125.5750,81.6000
126.5500,81.6000
126.5500,80.8500
126.2750,80.8500
126.2750,80.8500
126.1723,80.8605
126.0059,80.9156
126.0059,80.9156
125.8567,81.0077
125.7327,81.1317
125.6406,81.2809
125.6406,81.2809
125.5855,81.4473
125.5855,81.4473
125.5750,81.5500
122.8100,81.5500
121.5361,80.2761
121.5026,80.2148
121.5040,80.1563
121.5062,80.1480
121.5130,80.0699
121.5385,80.0049
121.5951,79.9639
121.6366,79.9567
122.0667,79.9567
122.0667,79.9567
122.1652,79.9467
122.3248,79.8938
122.4679,79.8055
122.5002,79.7732
122.5615,79.7398
122.6312,79.7447
122.6755,79.7732
122.7074,79.8051
122.8504,79.8933
122.8504,79.8933
123.0099,79.9462
123.1084,79.9562
123.6250,79.9562
123.6416,79.9562
123.6417,79.9562
123.7401,79.9462
123.8996,79.8933
123.8996,79.8933
124.0426,79.8051
124.1614,79.6863
124.2496,79.5433
124.2496,79.5433
124.3024,79.3838
124.3125,79.2854
124.3125,79.2854
124.3125,79.2313
123.6250,79.2313
123.6250,79.9562
123.1084,79.9562
123.1250,79.9562
123.1250,78.8552
123.1447,78.7882
123.1975,78.7425
123.2490,78.7313
124.3125,78.7313
124.3125,78.6771
124.3125,78.6771
124.3024,78.5787
124.2496,78.4192
124.2496,78.4192
124.1614,78.2762
124.0426,78.1574
123.9349,78.0910
123.8882,78.0390
123.8770,77.9701
123.9048,77.9060
123.9359,77.8793
124.0477,77.8117
124.1195,77.7399
124.1809,77.7064
124.2506,77.7114
124.2949,77.7399
124.6882,78.1331
124.7217,78.1944
124.7245,78.2208
124.7245,79.4979
124.7245,79.4979
124.7309,79.5575
124.7812,79.6923
124.7812,79.6923
124.8675,79.8075
124.8675,79.8075
124.9827,79.8938
124.9827,79.8938
125.1175,79.9441
125.1175,79.9441
125.1244,79.9448
125.1771,79.9505
126.9729,79.9505
127.0325,79.9441
127.1673,79.8938
127.2825,79.8075
127.3688,79.6923
127.4191,79.5575
127.4255,79.4979
127.4255,77.7021
127.4191,77.6425
127.4159,77.6340
127.3688,77.5077
127.3688,77.5077
127.2825,77.3925
127.2825,77.3925
127.1673,77.3062
127.1673,77.3062
127.0325,77.2559
127.0325,77.2559
126.9729,77.2495
126.9729,77.2495
126.9729,77.2495
126.9729,77.2495
125.6958,77.2495
125.6288,77.2298
125.6081,77.2132
124.8709,76.4760
124.8709,76.4760
124.8470,76.4600
124.7644,76.4048
124.6460,76.3557
124.6460,76.3557
124.5203,76.3307
124.5203,76.3307
124.2740,76.3307
124.2069,76.3111
124.1733,76.2764
124.1726,76.2770
124.1680,76.2711
124.0477,76.1508
123.9021,76.0628
123.8114,76.0345
123.7397,76.0122
123.7397,76.0122
123.7397,76.0122
123.6903,76.0077
123.6691,76.0057
123.1559,76.0057
123.1366,76.0075
123.0853,76.0122
122.9229,76.0628
122.7773,76.1508
122.7773,76.1508
122.6752,76.2529
122.6139,76.2864
122.5442,76.2814
122.4998,76.2529
122.3977,76.1508
122.2521,76.0628
122.1614,76.0345
122.0897,76.0122
122.0897,76.0122
122.0897,76.0122
122.0403,76.0077
122.0191,76.0057
121.5059,76.0057
121.4866,76.0075
121.4353,76.0122
121.2729,76.0628
121.1273,76.1508
121.0070,76.2711
120.9190,76.4166
120.8684,76.5791
120.8633,76.6355
120.8620,76.6496
120.8620,77.3129
120.8639,77.3340
120.8684,77.3834
120.8684,77.3834
120.8684,77.3834
120.9190,77.5459
121.0070,77.6914
121.1132,77.7976
121.1467,77.8589
121.1495,77.8853
121.1495,78.0882
121.1298,78.1553
121.1132,78.1759
121.0132,78.2759
121.0132,78.2759
120.9250,78.4190
120.9249,78.4190
120.8721,78.5786
120.8721,78.5786
120.8651,78.6465
120.8387,78.7112
120.7815,78.7514
120.7117,78.7542
120.6994,78.7504
120.6993,78.7504
120.4880,78.6938
120.2700,78.6747
120.2700,78.6747
120.0520,78.6938
120.0520,78.6938
120.0520,78.6938
120.0520,78.6938
120.0520,78.6938
120.0437,78.6960
119.9738,78.6944
119.9239,78.6639
118.1477,76.8878
118.1142,76.8264
118.1156,76.7680
118.1279,76.7223
118.1351,76.6954
118.1557,76.4600
118.1526,76.4246
118.1431,76.3169
118.1351,76.2246
118.0739,75.9963
117.9740,75.7822
117.9682,75.7739
117.8385,75.5886
117.6714,75.4215
117.6714,75.4215
117.5749,75.3539
117.5034,75.3039
117.4598,75.2493
117.4505,75.2023
117.4505,74.6208
117.4702,74.5538
117.4868,74.5331
118.5331,73.4868
118.5944,73.4533
118.6208,73.4505
118.9455,73.4505
119.0125,73.4702
119.0583,73.5230
119.0695,73.5745
119.0695,73.6979
119.0759,73.7575
119.1262,73.8923
119.1262,73.8923
119.2125,74.0075
119.2125,74.0075
119.3277,74.0938
119.3277,74.0938
119.4625,74.1441
119.4625,74.1441
119.4694,74.1448
119.5221,74.1505
121.3179,74.1505
121.3775,74.1441
121.5123,74.0938
121.6275,74.0075
121.7138,73.8923
121.7630,73.7604
121.8049,73.7045
121.8703,73.6800
121.9386,73.6949
121.9669,73.7161
122.0889,73.8381
122.2824,73.9736
122.4965,74.0734
122.4965,74.0734
122.7100,74.1306
122.7100,73.2330
122.7670,73.2659
122.8942,73.3000
123.0258,73.3000
123.1530,73.2659
123.2100,73.2330
Z" /> 
<path style="fill:#FFFFFF; fill-opacity:1.0000; stroke:none;fill-rule:evenodd;"
d="M 158.8425,69.9202
158.8883,69.9730
158.8995,70.0245
158.8995,110.9755
158.8798,111.0425
158.8270,111.0883
158.7755,111.0995
114.0245,111.0995
113.9575,111.0798
113.9117,111.0270
113.9005,110.9755
113.9005,76.4600
115.4443,76.4600
115.4443,76.4600
115.4649,76.6954
115.4649,76.6954
115.5261,76.9237
115.5261,76.9237
115.5261,76.9237
115.5980,77.0779
115.6260,77.1378
115.6260,77.1378
115.7042,77.2495
115.7439,77.3062
115.7615,77.3314
115.7615,77.3314
115.9286,77.4985
115.9286,77.4985
116.1142,77.6284
116.1578,77.6830
116.1650,77.7525
116.1335,77.8149
116.1142,77.8316
115.9286,77.9615
115.7615,78.1286
115.6260,78.3222
115.6260,78.3222
115.5261,78.5363
115.5261,78.5363
115.4649,78.7646
115.4649,78.7646
115.4443,79.0000
115.4443,79.0000
115.4649,79.2354
115.4649,79.2354
115.5261,79.4637
115.5261,79.4637
115.5261,79.4637
115.6058,79.6345
115.6260,79.6778
115.6260,79.6778
115.7615,79.8714
115.7615,79.8714
115.9286,80.0385
115.9286,80.0385
116.1142,80.1684
116.1578,80.2230
116.1650,80.2925
116.1335,80.3549
116.1142,80.3716
115.9286,80.5015
115.7615,80.6686
115.6260,80.8622
115.6260,80.8622
115.5261,81.0763
115.5261,81.0763
115.4649,81.3046
115.4649,81.3046
115.4443,81.5400
115.4443,81.5400
115.4649,81.7754
115.4649,81.7754
115.5261,82.0037
115.5261,82.0037
115.5261,82.0037
115.5943,82.1500
115.6260,82.2178
115.6260,82.2178
115.7615,82.4114
115.7615,82.4114
115.9286,82.5785
115.9286,82.5785
116.1142,82.7084
116.1578,82.7630
116.1650,82.8325
116.1335,82.8949
116.1142,82.9116
115.9286,83.0415
115.7615,83.2086
115.6260,83.4022
115.6260,83.4022
115.5261,83.6163
115.5261,83.6163
115.4649,83.8446
115.4649,83.8446
115.4443,84.0800
115.4443,84.0800
115.4649,84.3154
115.4649,84.3154
115.5261,84.5437
115.5261,84.5437
115.5261,84.5437
115.5840,84.6679
115.6260,84.7578
115.6260,84.7578
115.7615,84.9514
115.7615,84.9514
115.9286,85.1185
115.9286,85.1185
116.1142,85.2484
116.1578,85.3030
116.1650,85.3725
116.1335,85.4349
116.1142,85.4516
115.9286,85.5815
115.7615,85.7486
115.6260,85.9422
115.6260,85.9422
115.5261,86.1563
115.5261,86.1563
115.4649,86.3846
115.4649,86.3846
115.4443,86.6200
115.4443,86.6200
115.4649,86.8554
115.4649,86.8554
115.5261,87.0837
115.5261,87.0837
115.5261,87.0837
115.6212,87.2877
115.6260,87.2978
115.6260,87.2978
115.7615,87.4914
115.7615,87.4914
115.9286,87.6585
115.9286,87.6585
116.1142,87.7884
116.1578,87.8430
116.1650,87.9125
116.1335,87.9749
116.1142,87.9916
115.9286,88.1215
115.7615,88.2886
115.6260,88.4822
115.6260,88.4822
115.5261,88.6963
115.5261,88.6963
115.4649,88.9246
115.4649,88.9246
115.4443,89.1600
115.4443,89.1600
115.4649,89.3954
115.4649,89.3954
115.5261,89.6237
115.5261,89.6237
115.5261,89.6237
115.5849,89.7498
115.6260,89.8378
115.6260,89.8378
115.7615,90.0314
115.7615,90.0314
115.9286,90.1985
115.9286,90.1985
116.1142,90.3284
116.1578,90.3830
116.1650,90.4525
116.1335,90.5149
116.1142,90.5316
115.9286,90.6615
115.7615,90.8286
115.6260,91.0222
115.6260,91.0222
115.5261,91.2363
115.5261,91.2363
115.4649,91.4646
115.4649,91.4646
115.4443,91.7000
115.4443,91.7000
115.4649,91.9354
115.4649,91.9354
115.5261,92.1637
115.5261,92.1637
115.5261,92.1637
115.6132,92.3505
115.6260,92.3778
115.6260,92.3778
115.7615,92.5714
115.7615,92.5714
115.9286,92.7385
115.9286,92.7385
116.1146,92.8687
116.1582,92.9233
116.1654,92.9928
116.1339,93.0552
116.1146,93.0719
115.9289,93.2019
115.9289,93.2019
115.7619,93.3689
115.7619,93.3689
115.6264,93.5624
115.6264,93.5624
115.5266,93.7765
115.5266,93.7765
115.4694,93.9900
115.4694,93.9900
116.3670,93.9900
116.3341,94.0470
116.3000,94.1742
116.3000,94.3058
116.3341,94.4330
116.3670,94.4900
115.4694,94.4900
115.5266,94.7035
115.5266,94.7035
115.6264,94.9176
115.7619,95.1111
115.9289,95.2781
116.1146,95.4081
116.1582,95.4627
116.1654,95.5322
116.1339,95.5945
116.1146,95.6113
115.9286,95.7415
115.7615,95.9086
115.6260,96.1022
115.6260,96.1022
115.5261,96.3163
115.5261,96.3163
115.4649,96.5446
115.4649,96.5446
115.4443,96.7800
115.4443,96.7800
115.4649,97.0154
115.4649,97.0154
115.5261,97.2437
115.5261,97.2437
115.5261,97.2437
115.6127,97.4293
115.6260,97.4578
115.6260,97.4578
115.7615,97.6514
115.7615,97.6514
115.9286,97.8185
115.9286,97.8185
116.1142,97.9484
116.1578,98.0030
116.1650,98.0725
116.1335,98.1349
116.1142,98.1516
115.9286,98.2815
115.7615,98.4486
115.6260,98.6422
115.6260,98.6422
115.5261,98.8563
115.5261,98.8563
115.4649,99.0846
115.4649,99.0846
115.4443,99.3200
115.4443,99.3200
115.4649,99.5554
115.4649,99.5554
115.5261,99.7837
115.5261,99.7837
115.5261,99.7837
115.5976,99.9371
115.6260,99.9978
115.6260,99.9978
115.7121,100.1209
115.7615,100.1914
115.7615,100.1914
115.9286,100.3585
115.9286,100.3585
116.1142,100.4884
116.1578,100.5430
116.1650,100.6125
116.1335,100.6749
116.1142,100.6916
115.9286,100.8215
115.7615,100.9886
115.6260,101.1822
115.6260,101.1822
115.5261,101.3963
115.5261,101.3963
115.4649,101.6246
115.4649,101.6246
115.4443,101.8600
115.4443,101.8600
115.4649,102.0954
115.4649,102.0954
115.5261,102.3237
115.5261,102.3237
115.5261,102.3237
115.6132,102.5105
115.6260,102.5378
115.6260,102.5378
115.7343,102.6925
115.7615,102.7314
115.7615,102.7314
115.8834,102.8533
115.9169,102.9146
115.9119,102.9843
115.8701,103.0403
115.8391,103.0572
115.7077,103.1062
115.7077,103.1062
115.5925,103.1925
115.5925,103.1925
115.5062,103.3077
115.5062,103.3077
115.4559,103.4425
115.4495,103.5021
115.4495,103.5021
115.4495,103.5021
115.4495,105.2979
115.4495,105.2979
115.4559,105.3575
115.5062,105.4923
115.5062,105.4923
115.5925,105.6075
115.5925,105.6075
115.7077,105.6938
115.7077,105.6938
115.8425,105.7441
115.8425,105.7441
115.8479,105.7447
115.9021,105.7505
117.6979,105.7505
117.7575,105.7441
117.8923,105.6938
118.0075,105.6075
118.0938,105.4923
118.1441,105.3575
118.1505,105.2979
118.1505,105.1745
118.1702,105.1075
118.2230,105.0617
118.2745,105.0505
118.6641,105.0505
118.7486,105.0337
118.7897,105.0255
118.9081,104.9765
119.0147,104.9053
121.1383,102.7816
121.1996,102.7481
121.2693,102.7531
121.3253,102.7950
121.3497,102.8605
121.3500,102.8693
121.3500,103.5978
121.3564,103.6574
121.3564,103.6574
121.4066,103.7921
121.4066,103.7921
121.4928,103.9072
121.4928,103.9072
121.6079,103.9933
121.6079,103.9934
121.7426,104.0436
121.7426,104.0436
121.8022,104.0500
121.8022,104.0500
122.3500,104.0500
122.3500,102.4740
122.3697,102.4070
122.4225,102.3612
122.4740,102.3500
123.8500,102.3500
123.8500,101.6022
123.8500,101.6022
123.8436,101.5426
123.8436,101.5426
123.7934,101.4079
123.7933,101.4079
123.7072,101.2928
123.7072,101.2928
123.5921,101.2066
123.5921,101.2066
123.4574,101.1564
123.4574,101.1564
123.3978,101.1500
123.0693,101.1500
123.0023,101.1303
122.9565,101.0775
122.9466,101.0084
122.9756,100.9448
122.9816,100.9383
129.3553,94.5647
129.3553,94.5647
129.4265,94.4581
129.4755,94.3397
129.4796,94.3192
129.4837,94.2984
129.4837,94.2984
129.5005,94.2141
129.5005,93.7495
129.5202,93.6825
129.5730,93.6367
129.6245,93.6255
130.6755,93.6255
130.7425,93.6452
130.7883,93.6980
130.7995,93.7495
130.7995,96.7292
130.7798,96.7962
130.7632,96.8169
124.0617,103.5184
124.0004,103.5519
123.9307,103.5469
123.8747,103.5050
123.8503,103.4395
123.8500,103.4307
123.8500,102.8500
122.8500,102.8500
122.8500,104.0500
123.2307,104.0500
123.2977,104.0697
123.3435,104.1225
123.3534,104.1916
123.3244,104.2552
123.3184,104.2617
120.5669,107.0132
120.5055,107.0467
120.4792,107.0495
119.3021,107.0495
119.3021,107.0495
119.2425,107.0559
119.1077,107.1062
119.1077,107.1062
118.9925,107.1925
118.9925,107.1925
118.9062,107.3077
118.9062,107.3077
118.8559,107.4425
118.8495,107.5021
118.8495,107.5021
118.8495,109.2979
118.8495,109.2979
118.8559,109.3575
118.9062,109.4923
118.9062,109.4923
118.9925,109.6075
118.9925,109.6075
119.1077,109.6938
119.1077,109.6938
119.2425,109.7441
119.2425,109.7441
119.2494,109.7448
119.3021,109.7505
121.0979,109.7505
121.1575,109.7441
121.2923,109.6938
121.4075,109.6075
121.4938,109.4923
121.5428,109.3609
121.5847,109.3050
121.6501,109.2806
121.7184,109.2954
121.7467,109.3166
121.8686,109.4385
121.9654,109.5063
122.0622,109.5740
122.0622,109.5740
122.0622,109.5740
122.2763,109.6739
122.5046,109.7351
122.6810,109.7505
122.7400,109.7557
122.7400,109.7557
122.7400,109.7557
122.7990,109.7505
122.9754,109.7351
123.2037,109.6739
123.4178,109.5740
123.6114,109.4385
123.7785,109.2714
123.9084,109.0858
123.9630,109.0422
124.0325,109.0350
124.0949,109.0665
124.1116,109.0858
124.2413,109.2711
124.2415,109.2714
124.4086,109.4385
124.5054,109.5063
124.6022,109.5740
124.6022,109.5740
124.6022,109.5740
124.8163,109.6739
125.0446,109.7351
125.2210,109.7505
125.2800,109.7557
125.2800,109.7557
125.2800,109.7557
125.3390,109.7505
125.5154,109.7351
125.7437,109.6739
125.9578,109.5740
126.1514,109.4385
126.3185,109.2714
126.4484,109.0858
126.5030,109.0422
126.5725,109.0350
126.6349,109.0665
126.6516,109.0858
126.7813,109.2711
126.7815,109.2714
126.9486,109.4385
127.0454,109.5063
127.1422,109.5740
127.1422,109.5740
127.1422,109.5740
127.3563,109.6739
127.5846,109.7351
127.7610,109.7505
127.8200,109.7557
127.8200,109.7557
127.8200,109.7557
127.8790,109.7505
128.0554,109.7351
128.2837,109.6739
128.4978,109.5740
128.6914,109.4385
128.8585,109.2714
128.9884,109.0858
129.0430,109.0422
129.1125,109.0350
129.1749,109.0665
129.1916,109.0858
129.3213,109.2711
129.3215,109.2714
129.4886,109.4385
129.5854,109.5063
129.6822,109.5740
129.6822,109.5740
129.6822,109.5740
129.8963,109.6739
130.1246,109.7351
130.3010,109.7505
130.3600,109.7557
130.3600,109.7557
130.3600,109.7557
130.4190,109.7505
130.5954,109.7351
130.8237,109.6739
131.0378,109.5740
131.2314,109.4385
131.3985,109.2714
131.5284,109.0858
131.5830,109.0422
131.6525,109.0350
131.7149,109.0665
131.7316,109.0858
131.8613,109.2711
131.8615,109.2714
132.0286,109.4385
132.1254,109.5063
132.2222,109.5740
132.2222,109.5740
132.2222,109.5740
132.4363,109.6739
132.6646,109.7351
132.8410,109.7505
132.9000,109.7557
132.9000,109.7557
132.9000,109.7557
132.9590,109.7505
133.1354,109.7351
133.3637,109.6739
133.5778,109.5740
133.7714,109.4385
133.9385,109.2714
134.0684,109.0858
134.1230,109.0422
134.1925,109.0350
134.2549,109.0665
134.2716,109.0858
134.4013,109.2711
134.4015,109.2714
134.5686,109.4385
134.6654,109.5063
134.7622,109.5740
134.7622,109.5740
134.7622,109.5740
134.9763,109.6739
135.2046,109.7351
135.3810,109.7505
135.4400,109.7557
135.4400,109.7557
135.4400,109.7557
135.4990,109.7505
135.6754,109.7351
135.9037,109.6739
136.1178,109.5740
136.3114,109.4385
136.4785,109.2714
136.6084,109.0858
136.6630,109.0422
136.7325,109.0350
136.7949,109.0665
136.8116,109.0858
136.9413,109.2711
136.9415,109.2714
137.1086,109.4385
137.2054,109.5063
137.3022,109.5740
137.3022,109.5740
137.3022,109.5740
137.5163,109.6739
137.7446,109.7351
137.9210,109.7505
137.9800,109.7557
137.9800,109.7557
137.9800,109.7557
138.0390,109.7505
138.2154,109.7351
138.4437,109.6739
138.6578,109.5740
138.8514,109.4385
139.0185,109.2714
139.1484,109.0858
139.2030,109.0422
139.2725,109.0350
139.3349,109.0665
139.3516,109.0858
139.4813,109.2711
139.4815,109.2714
139.6486,109.4385
139.7454,109.5063
139.8422,109.5740
139.8422,109.5740
139.8422,109.5740
140.0563,109.6739
140.2846,109.7351
140.4610,109.7505
140.5200,109.7557
140.5200,109.7557
140.5200,109.7557
140.5790,109.7505
140.7554,109.7351
140.9837,109.6739
141.1978,109.5740
141.3914,109.4385
141.5585,109.2714
141.6884,109.0858
141.7430,109.0422
141.8125,109.0350
141.8749,109.0665
141.8916,109.0858
142.0213,109.2711
142.0215,109.2714
142.1886,109.4385
142.2854,109.5063
142.3822,109.5740
142.3822,109.5740
142.3822,109.5740
142.5963,109.6739
142.8246,109.7351
143.0010,109.7505
143.0600,109.7557
143.0600,109.7557
143.0600,109.7557
143.1190,109.7505
143.2954,109.7351
143.5237,109.6739
143.7378,109.5740
143.9314,109.4385
144.0985,109.2714
144.2287,109.0854
144.2833,109.0418
144.3528,109.0346
144.4152,109.0661
144.4319,109.0854
144.5619,109.2711
144.7289,109.4381
144.9224,109.5736
145.1365,109.6734
145.1365,109.6734
145.3500,109.7306
145.3500,108.8330
145.4070,108.8659
145.5342,108.9000
145.6658,108.9000
145.7930,108.8659
145.8500,108.8330
145.8500,109.7306
146.0635,109.6734
146.0635,109.6734
146.2776,109.5736
146.4711,109.4381
146.6381,109.2711
146.7681,109.0854
146.8227,109.0418
146.8922,109.0346
146.9545,109.0661
146.9713,109.0854
147.1015,109.2714
147.2686,109.4385
147.3654,109.5063
147.4622,109.5740
147.4622,109.5740
147.4622,109.5740
147.6763,109.6739
147.9046,109.7351
148.0810,109.7505
148.1400,109.7557
148.1400,109.7557
148.1400,109.7557
148.1990,109.7505
148.3754,109.7351
148.6037,109.6739
148.8178,109.5740
149.0114,109.4385
149.1785,109.2714
149.2961,109.1034
149.3507,109.0598
149.3977,109.0505
152.4641,109.0505
152.5486,109.0337
152.5897,109.0255
152.7081,108.9765
152.7470,108.9505
152.7470,108.9505
152.7976,108.9167
152.8147,108.9053
157.3053,104.4147
157.3579,104.3359
157.3765,104.3081
157.4255,104.1897
157.4505,104.0641
157.4505,87.0745
157.4702,87.0075
157.5230,86.9617
157.5745,86.9505
157.6979,86.9505
157.6979,86.9505
157.7575,86.9441
157.8923,86.8938
158.0075,86.8075
158.0938,86.6923
158.1441,86.5575
158.1505,86.4979
158.1505,84.7021
158.1441,84.6425
158.1072,84.5437
158.0938,84.5077
158.0938,84.5077
158.0075,84.3925
158.0075,84.3925
157.8923,84.3062
157.8923,84.3062
157.7604,84.2570
157.7045,84.2151
157.6800,84.1497
157.6949,84.0814
157.7161,84.0531
157.8381,83.9311
157.9736,83.7376
158.0734,83.5235
158.0734,83.5235
158.1306,83.3100
157.2330,83.3100
157.2659,83.2530
157.3000,83.1258
157.3000,82.9942
157.2659,82.8670
157.2330,82.8100
158.1306,82.8100
158.1306,82.8100
158.0734,82.5965
158.0734,82.5965
157.9736,82.3824
157.9736,82.3824
157.8381,82.1889
157.8381,82.1889
157.6711,82.0219
157.4854,81.8919
157.4418,81.8373
157.4346,81.7678
157.4661,81.7054
157.4854,81.6887
157.6714,81.5585
157.8385,81.3914
157.9740,81.1978
158.0739,80.9837
158.1351,80.7554
158.1557,80.5200
158.1351,80.2846
158.0739,80.0563
157.9740,79.8422
157.9561,79.8166
157.8385,79.6486
157.6714,79.4815
157.6714,79.4815
157.5321,79.3839
157.4858,79.3516
157.4422,79.2970
157.4350,79.2275
157.4665,79.1651
157.4858,79.1484
157.6714,79.0185
157.8385,78.8514
157.9740,78.6578
158.0739,78.4437
158.1351,78.2154
158.1557,77.9800
158.1351,77.7446
158.0886,77.5713
158.0739,77.5163
158.0739,77.5163
158.0739,77.5163
157.9740,77.3022
157.9416,77.2559
157.8385,77.1086
157.6714,76.9415
157.6714,76.9415
157.5749,76.8739
157.5034,76.8239
157.4598,76.7693
157.4505,76.7223
157.4505,76.5609
157.4255,76.4353
157.4255,76.4353
157.4255,76.4353
157.3765,76.3169
157.3053,76.2103
157.3053,76.2103
157.3053,76.2103
153.3897,72.2947
153.3897,72.2947
153.2831,72.2235
153.1647,72.1745
153.1647,72.1745
153.0391,72.1495
153.0391,72.1495
149.6177,72.1495
149.5507,72.1298
149.5161,72.0966
149.5133,72.0925
149.3985,71.9286
149.3985,71.9286
149.2314,71.7615
149.2314,71.7615
149.0378,71.6260
149.0378,71.6260
149.0378,71.6260
148.8237,71.5261
148.8237,71.5261
148.8237,71.5261
148.5954,71.4649
148.5954,71.4649
148.3600,71.4443
148.3600,71.4443
148.1246,71.4649
148.1246,71.4649
147.8963,71.5261
147.8963,71.5261
147.6822,71.6260
147.6822,71.6260
147.4886,71.7615
147.3215,71.9286
147.1916,72.1142
147.1370,72.1578
147.0675,72.1650
147.0051,72.1335
146.9884,72.1142
146.8585,71.9286
146.6914,71.7615
146.6914,71.7615
146.4978,71.6260
146.4978,71.6260
146.4978,71.6260
146.2837,71.5261
146.2837,71.5261
146.2837,71.5261
146.0554,71.4649
146.0554,71.4649
145.8200,71.4443
145.8200,71.4443
145.5846,71.4649
145.5846,71.4649
145.3563,71.5261
145.3563,71.5261
145.1422,71.6260
145.1422,71.6260
144.9486,71.7615
144.7815,71.9286
144.6516,72.1142
144.5970,72.1578
144.5275,72.1650
144.4651,72.1335
144.4484,72.1142
144.3185,71.9286
144.1514,71.7615
144.1514,71.7615
143.9578,71.6260
143.9578,71.6260
143.9578,71.6260
143.7437,71.5261
143.7437,71.5261
143.7437,71.5261
143.5154,71.4649
143.5154,71.4649
143.2800,71.4443
143.2800,71.4443
143.0446,71.4649
143.0446,71.4649
142.8163,71.5261
142.8163,71.5261
142.6022,71.6260
142.6022,71.6260
142.4086,71.7615
142.2415,71.9286
142.1116,72.1142
142.0570,72.1578
141.9875,72.1650
141.9251,72.1335
141.9084,72.1142
141.7785,71.9286
141.6114,71.7615
141.6114,71.7615
141.4178,71.6260
141.4178,71.6260
141.4178,71.6260
141.2037,71.5261
141.2037,71.5261
141.2037,71.5261
140.9754,71.4649
140.9754,71.4649
140.7400,71.4443
140.7400,71.4443
140.5046,71.4649
140.5046,71.4649
140.2763,71.5261
140.2763,71.5261
140.0622,71.6260
140.0622,71.6260
139.8686,71.7615
139.7015,71.9286
139.5716,72.1142
139.5170,72.1578
139.4475,72.1650
139.3851,72.1335
139.3684,72.1142
139.2385,71.9286
139.0714,71.7615
139.0714,71.7615
138.8778,71.6260
138.8778,71.6260
138.8778,71.6260
138.6637,71.5261
138.6637,71.5261
138.6637,71.5261
138.4354,71.4649
138.4354,71.4649
138.2000,71.4443
138.2000,71.4443
137.9646,71.4649
137.9646,71.4649
137.7363,71.5261
137.7363,71.5261
137.5222,71.6260
137.5222,71.6260
137.3286,71.7615
137.1615,71.9286
137.0316,72.1142
136.9770,72.1578
136.9075,72.1650
136.8451,72.1335
136.8284,72.1142
136.6985,71.9286
136.5314,71.7615
136.5314,71.7615
136.3378,71.6260
136.3378,71.6260
136.3378,71.6260
136.1237,71.5261
136.1237,71.5261
136.1237,71.5261
135.8954,71.4649
135.8954,71.4649
135.6600,71.4443
135.6600,71.4443
135.4246,71.4649
135.4246,71.4649
135.1963,71.5261
135.1963,71.5261
134.9822,71.6260
134.9822,71.6260
134.7886,71.7615
134.6215,71.9286
134.4916,72.1142
134.4370,72.1578
134.3675,72.1650
134.3051,72.1335
134.2884,72.1142
134.1585,71.9286
133.9914,71.7615
133.9914,71.7615
133.7978,71.6260
133.7978,71.6260
133.7978,71.6260
133.5837,71.5261
133.5837,71.5261
133.5837,71.5261
133.3554,71.4649
133.3554,71.4649
133.1200,71.4443
133.1200,71.4443
132.8846,71.4649
132.8846,71.4649
132.6563,71.5261
132.6563,71.5261
132.4422,71.6260
132.4422,71.6260
132.2486,71.7615
132.0815,71.9286
131.9516,72.1142
131.8970,72.1578
131.8275,72.1650
131.7651,72.1335
131.7484,72.1142
131.6185,71.9286
131.4514,71.7615
131.4514,71.7615
131.2578,71.6260
131.2578,71.6260
131.2578,71.6260
131.0437,71.5261
131.0437,71.5261
131.0437,71.5261
130.8154,71.4649
130.8154,71.4649
130.5800,71.4443
130.5800,71.4443
130.3446,71.4649
130.3446,71.4649
130.1163,71.5261
130.1163,71.5261
129.9022,71.6260
129.9022,71.6260
129.7086,71.7615
129.5415,71.9286
129.4116,72.1142
129.3570,72.1578
129.2875,72.1650
129.2251,72.1335
129.2084,72.1142
129.0785,71.9286
128.9114,71.7615
128.9114,71.7615
128.7178,71.6260
128.7178,71.6260
128.7178,71.6260
128.5037,71.5261
128.5037,71.5261
128.5037,71.5261
128.2754,71.4649
128.2754,71.4649
128.0400,71.4443
128.0400,71.4443
127.8046,71.4649
127.8046,71.4649
127.5763,71.5261
127.5763,71.5261
127.3622,71.6260
127.3622,71.6260
127.1686,71.7615
127.0015,71.9286
126.8716,72.1142
126.8170,72.1578
126.7475,72.1650
126.6851,72.1335
126.6684,72.1142
126.5385,71.9286
126.3714,71.7615
126.3714,71.7615
126.1778,71.6260
126.1778,71.6260
126.1778,71.6260
125.9637,71.5261
125.9637,71.5261
125.9637,71.5261
125.7354,71.4649
125.7354,71.4649
125.5000,71.4443
125.5000,71.4443
125.2646,71.4649
125.2646,71.4649
125.0363,71.5261
125.0363,71.5261
124.8222,71.6260
124.8222,71.6260
124.6286,71.7615
124.4615,71.9286
124.3313,72.1146
124.2767,72.1582
124.2072,72.1654
124.1448,72.1339
124.1281,72.1146
123.9981,71.9289
123.9981,71.9289
123.8311,71.7619
123.6376,71.6264
123.4235,71.5266
123.4235,71.5266
123.2100,71.4694
123.2100,72.3670
123.1530,72.3341
123.0258,72.3000
122.8942,72.3000
122.7670,72.3341
122.7100,72.3670
122.7100,71.4694
122.7100,71.4694
122.4965,71.5266
122.4965,71.5266
122.2824,71.6264
122.2824,71.6264
122.0889,71.7619
121.9669,71.8839
121.9055,71.9174
121.8358,71.9124
121.7799,71.8706
121.7630,71.8396
121.7138,71.7077
121.7138,71.7077
121.6275,71.5925
121.6275,71.5925
121.5123,71.5062
121.5123,71.5062
121.3775,71.4559
121.3775,71.4559
121.3179,71.4495
121.3179,71.4495
121.3179,71.4495
121.3179,71.4495
119.5221,71.4495
119.5221,71.4495
119.4625,71.4559
119.3277,71.5062
119.3277,71.5062
119.2125,71.5925
119.2125,71.5925
119.1262,71.7077
119.1262,71.7077
119.0759,71.8425
119.0695,71.9021
119.0695,71.9021
119.0695,72.0255
119.0498,72.0925
118.9970,72.1383
118.9455,72.1495
118.2359,72.1495
118.1103,72.1745
118.1103,72.1745
117.9919,72.2235
117.8853,72.2947
117.8853,72.2947
116.2947,73.8853
116.2355,73.9740
116.2355,73.9740
116.2235,73.9919
116.2235,73.9919
116.1745,74.1103
116.1745,74.1103
116.1495,74.2359
116.1495,75.2023
116.1298,75.2693
116.0966,75.3039
115.9286,75.4215
115.7615,75.5886
115.6260,75.7822
115.6260,75.7822
115.5261,75.9963
115.5261,75.9963
115.4649,76.2246
115.4649,76.2246
115.4443,76.4600
113.9005,76.4600
113.9005,70.0245
113.9202,69.9575
113.9730,69.9117
114.0245,69.9005
158.7755,69.9005
Z" /> 
</g>
<g style="fill:#000000; fill-opacity:1.0000; stroke:none;">
<circle cx="120.2700" cy="79.9300" r="0.3500" /> 
</g>
<g style="fill:#000000; fill-opacity:1.0000; stroke:none;">
<circle cx="119.8000" cy="97.0000" r="0.3500" /> 
</g>
<g style="fill:#000000; fill-opacity:1.0000; stroke:none;">
<circle cx="120.4200" cy="72.8000" r="0.5000" /> 
</g>
<g style="fill:#000000; fill-opacity:1.0000; stroke:none;">
<circle cx="122.9600" cy="72.8000" r="0.5000" /> 
</g>
<g style="fill:#000000; fill-opacity:1.0000; stroke:none;">
<circle cx="125.5000" cy="72.8000" r="0.5000" /> 
</g>
<g style="fill:#000000; fill-opacity:1.0000; stroke:none;">
<circle cx="128.0400" cy="72.8000" r="0.5000" /> 
</g>
<g style="fill:#000000; fill-opacity:1.0000; stroke:none;">
<circle cx="130.5800" cy="72.8000" r="0.5000" /> 
</g>
<g style="fill:#000000; fill-opacity:1.0000; stroke:none;">
<circle cx="133.1200" cy="72.8000" r="0.5000" /> 
</g>
<g style="fill:#000000; fill-opacity:1.0000; stroke:none;">
<circle cx="135.6600" cy="72.8000" r="0.5000" /> 
</g>
<g style="fill:#000000; fill-opacity:1.0000; stroke:none;">
<circle cx="138.2000" cy="72.8000" r="0.5000" /> 
</g>
<g style="fill:#000000; fill-opacity:1.0000; stroke:none;">
<circle cx="140.7400" cy="72.8000" r="0.5000" /> 
</g>
<g style="fill:#000000; fill-opacity:1.0000; stroke:none;">
<circle cx="143.2800" cy="72.8000" r="0.5000" /> 
</g>
<g style="fill:#000000; fill-opacity:1.0000; stroke:none;">
<circle cx="145.8200" cy="72.8000" r="0.5000" /> 
</g>
<g style="fill:#000000; fill-opacity:1.0000; stroke:none;">
<circle cx="148.3600" cy="72.8000" r="0.5000" /> 
</g>
<g style="fill:#000000; fill-opacity:1.0000; stroke:none;">
<circle cx="126.0750" cy="78.6000" r="0.5000" /> 
</g>
<g style="fill:#000000; fill-opacity:1.0000; stroke:none;">
<circle cx="120.2000" cy="108.4000" r="0.5000" /> 
</g>
<g style="fill:#000000; fill-opacity:1.0000; stroke:none;">
<circle cx="122.7400" cy="108.4000" r="0.5000" /> 
</g>
<g style="fill:#000000; fill-opacity:1.0000; stroke:none;">
<circle cx="125.2800" cy="108.4000" r="0.5000" /> 
</g>
<g style="fill:#000000; fill-opacity:1.0000; stroke:none;">
<circle cx="127.8200" cy="108.4000" r="0.5000" /> 
</g>
<g style="fill:#000000; fill-opacity:1.0000; stroke:none;">
<circle cx="130.3600" cy="108.4000" r="0.5000" /> 
</g>
<g style="fill:#000000; fill-opacity:1.0000; stroke:none;">
<circle cx="132.9000" cy="108.4000" r="0.5000" /> 
</g>
<g style="fill:#000000; fill-opacity:1.0000; stroke:none;">
<circle cx="135.4400" cy="108.4000" r="0.5000" /> 
</g>
<g style="fill:#000000; fill-opacity:1.0000; stroke:none;">
<circle cx="137.9800" cy="108.4000" r="0.5000" /> 
</g>
<g style="fill:#000000; fill-opacity:1.0000; stroke:none;">
<circle cx="140.5200" cy="108.4000" r="0.5000" /> 
</g>
<g style="fill:#000000; fill-opacity:1.0000; stroke:none;">
<circle cx="143.0600" cy="108.4000" r="0.5000" /> 
</g>
<g style="fill:#000000; fill-opacity:1.0000; stroke:none;">
<circle cx="145.6000" cy="108.4000" r="0.5000" /> 
</g>
<g style="fill:#000000; fill-opacity:1.0000; stroke:none;">
<circle cx="148.1400" cy="108.4000" r="0.5000" /> 
</g>
<g style="fill:#000000; fill-opacity:1.0000; stroke:none;">
<circle cx="116.8000" cy="104.4000" r="0.5000" /> 
</g>
<g style="fill:#000000; fill-opacity:1.0000; stroke:none;">
<circle cx="116.8000" cy="101.8600" r="0.5000" /> 
</g>
<g style="fill:#000000; fill-opacity:1.0000; stroke:none;">
<circle cx="116.8000" cy="99.3200" r="0.5000" /> 
</g>
<g style="fill:#000000; fill-opacity:1.0000; stroke:none;">
<circle cx="116.8000" cy="96.7800" r="0.5000" /> 
</g>
<g style="fill:#000000; fill-opacity:1.0000; stroke:none;">
<circle cx="116.8000" cy="94.2400" r="0.5000" /> 
</g>
<g style="fill:#000000; fill-opacity:1.0000; stroke:none;">
<circle cx="116.8000" cy="91.7000" r="0.5000" /> 
</g>
<g style="fill:#000000; fill-opacity:1.0000; stroke:none;">
<circle cx="116.8000" cy="89.1600" r="0.5000" /> 
</g>
<g style="fill:#000000; fill-opacity:1.0000; stroke:none;">
<circle cx="116.8000" cy="86.6200" r="0.5000" /> 
</g>
<g style="fill:#000000; fill-opacity:1.0000; stroke:none;">
<circle cx="116.8000" cy="84.0800" r="0.5000" /> 
</g>
<g style="fill:#000000; fill-opacity:1.0000; stroke:none;">
<circle cx="116.8000" cy="81.5400" r="0.5000" /> 
</g>
<g style="fill:#000000; fill-opacity:1.0000; stroke:none;">
<circle cx="116.8000" cy="79.0000" r="0.5000" /> 
</g>
<g style="fill:#000000; fill-opacity:1.0000; stroke:none;">
<circle cx="116.8000" cy="76.4600" r="0.5000" /> 
</g>
<g style="fill:#000000; fill-opacity:1.0000; stroke:none;">
<circle cx="156.8000" cy="85.6000" r="0.5000" /> 
</g>
<g style="fill:#000000; fill-opacity:1.0000; stroke:none;">
<circle cx="156.8000" cy="83.0600" r="0.5000" /> 
</g>
<g style="fill:#000000; fill-opacity:1.0000; stroke:none;">
<circle cx="156.8000" cy="80.5200" r="0.5000" /> 
</g>
<g style="fill:#000000; fill-opacity:1.0000; stroke:none;">
<circle cx="156.8000" cy="77.9800" r="0.5000" /> 
</g>
<g style="fill:#000000; fill-opacity:1.0000; stroke:none;">
<circle cx="152.6000" cy="104.6000" r="0.5000" /> 
</g>
<g style="fill:#000000; fill-opacity:1.0000; stroke:none;">
<circle cx="152.6000" cy="102.0600" r="0.5000" /> 
</g>
<g style="fill:#000000; fill-opacity:1.0000; stroke:none;">
<circle cx="152.6000" cy="99.5200" r="0.5000" /> 
</g>
<g style="fill:#000000; fill-opacity:1.0000; stroke:none;">
<circle cx="152.6000" cy="96.9800" r="0.5000" /> 
</g>
<g style="fill:#000000; fill-opacity:1.0000; stroke:none;">
<circle cx="152.6000" cy="94.4400" r="0.5000" /> 
</g>
<g style="fill:#000000; fill-opacity:1.0000; stroke:none;">
<circle cx="152.6000" cy="91.9000" r="0.5000" /> 
</g>
<g style="fill:#000000; fill-opacity:1.0000; stroke:none;">
<circle cx="152.6000" cy="89.3600" r="0.5000" /> 
</g>
<g style="fill:#000000; fill-opacity:1.0000; stroke:none;">
<circle cx="152.6000" cy="86.8200" r="0.5000" /> 
</g>
<g style="fill:#000000; fill-opacity:1.0000; stroke:none;">
<circle cx="152.6000" cy="84.2800" r="0.5000" /> 
</g>
<g style="fill:#000000; fill-opacity:1.0000; stroke:none;">
<circle cx="152.6000" cy="81.7400" r="0.5000" /> 
</g>
<g style="fill:#000000; fill-opacity:1.0000; stroke:none;">
<circle cx="152.6000" cy="79.2000" r="0.5000" /> 
</g>
<g style="fill:#000000; fill-opacity:1.0000; stroke:none;">
<circle cx="152.6000" cy="76.6600" r="0.5000" /> 
</g> 
</svg>
